<?xml version="1.0" standalone="no"?>
<!DOCTYPE svg PUBLIC "-//W3C//DTD SVG 1.1//EN" "http://www.w3.org/Graphics/SVG/1.1/DTD/svg11.dtd" >
<svg xmlns="http://www.w3.org/2000/svg">
<metadata></metadata>
<defs>
<font id="solomon_thin_decoregular" horiz-adv-x="1718" >
<font-face units-per-em="2048" ascent="1536" descent="-512" />
<missing-glyph horiz-adv-x="575" />
<glyph unicode="&#xfb01;" horiz-adv-x="1009" d="M16 -373q102 3 155.5 52.5t53.5 164.5v1151h-114v43h114v136q0 74 20.5 127t58.5 81.5t85 41t107 12.5v-41q-118 -2 -172 -52.5t-54 -168.5v-136h545v-1038h-45v995h-500v-1151q0 -129 -67.5 -193t-186.5 -61v37zM766 1346v88h57v-88h-57z" />
<glyph unicode="&#xfb02;" horiz-adv-x="1046" d="M16 -373q102 3 155.5 52.5t53.5 164.5v1151h-114v43h114v136q0 74 20.5 127t58.5 81.5t85 41t107 12.5v-41q-118 -2 -172 -52.5t-54 -168.5v-136h217v-43h-217v-1151q0 -129 -67.5 -193t-186.5 -61v37zM760 236v1198h45v-1198q0 -105 41.5 -152t134.5 -47v-39 q-110 0 -165.5 55t-55.5 183z" />
<glyph unicode="&#xfb03;" horiz-adv-x="1617" d="M20 -373q102 3 155.5 52.5t53.5 164.5v1155h-114v39h114v136q0 74 20.5 127t58.5 81.5t85 41t107 12.5v-41q-118 -2 -172 -52.5t-54 -168.5v-136h541v136q0 74 20.5 127t58.5 81.5t84.5 41t106.5 12.5v-41q-118 -2 -171.5 -52.5t-53.5 -168.5v-136h547v-1038h-45v999 h-502v-1155q0 -129 -67.5 -193t-186.5 -61v37q102 3 155.5 52.5t53.5 164.5v1155h-541v-1155q0 -129 -67.5 -193t-186.5 -61v37zM1358 1323v111h57v-111h-57z" />
<glyph unicode="&#xfb04;" horiz-adv-x="1679" d="M16 -373q102 3 155.5 52.5t53.5 164.5v1155h-114v39h114v136q0 74 20.5 127t58.5 81.5t85 41t107 12.5v-41q-118 -2 -172 -52.5t-54 -168.5v-136h551v136q0 74 20.5 127t58.5 81.5t85 41t107 12.5v-41q-118 -2 -172 -52.5t-54 -168.5v-136h217v-39h-217v-1155 q0 -129 -67.5 -193t-186.5 -61v37q102 3 155.5 52.5t53.5 164.5v1155h-551v-1155q0 -129 -67.5 -193t-186.5 -61v37zM1378 236v1198h45v-1198q0 -105 41.5 -152t134.5 -47v-39q-110 0 -165.5 55t-55.5 183z" />
<glyph horiz-adv-x="2048" />
<glyph horiz-adv-x="2048" />
<glyph unicode="&#xd;" horiz-adv-x="2048" />
<glyph unicode=" "  horiz-adv-x="575" />
<glyph unicode="&#x09;" horiz-adv-x="575" />
<glyph unicode="&#xa0;" horiz-adv-x="575" />
<glyph unicode="!" horiz-adv-x="632" d="M293 -4v96h53v-96h-53zM297 305v1129h43v-1129h-43z" />
<glyph unicode="&#x22;" horiz-adv-x="595" d="M166 1075v359h41v-359h-41zM373 1075v359h41v-359h-41z" />
<glyph unicode="#" horiz-adv-x="1144" d="M90 481v35h213l66 414h-209v33h215l78 473h41l-78 -473h370l78 473h39l-78 -473h193v-33h-199l-67 -414h194v-35h-201l-77 -481h-39l80 481h-373l-78 -481h-41l80 481h-207zM342 516h373l65 414h-370z" />
<glyph unicode="$" horiz-adv-x="1124" d="M150 223l38 23q53 -106 147 -159.5t206 -55.5q155 -2 254 78.5t106 220.5q3 73 -17.5 135.5t-54.5 105.5t-82.5 77.5t-94 55t-97.5 35.5q-54 15 -100.5 34t-95.5 51t-83 71.5t-55.5 96.5t-19.5 124q6 151 105 237.5t237 92.5v178h35v-176q219 -7 325 -184l-39 -19 q-56 87 -127.5 123.5t-169.5 36.5q-82 1 -151 -28t-116.5 -96.5t-53.5 -164.5q-1 -64 20.5 -117.5t52.5 -87.5t79 -62t85 -42.5t86 -28.5q75 -22 139 -55.5t122.5 -86.5t90 -132.5t25.5 -177.5q-4 -81 -37 -145.5t-86.5 -104t-115.5 -61.5t-129 -27v-156h-35v154h-2 q-125 0 -229 60.5t-162 176.5z" />
<glyph unicode="%" horiz-adv-x="1581" d="M158 1147q0 126 86 211.5t207 85.5t206.5 -85.5t85.5 -211.5q0 -121 -86 -208t-206 -87q-121 0 -207 85t-86 210zM201 1147q0 -107 72 -181.5t178 -74.5q108 0 179.5 74.5t71.5 181.5q0 109 -71.5 183.5t-179.5 74.5q-107 0 -178.5 -74.5t-71.5 -183.5zM311 -23 q132 224 436 720.5t463 768.5h50q-132 -224 -436 -720.5t-462 -768.5h-51zM817 283q0 126 86 211.5t207 85.5t207 -85.5t86 -211.5q0 -121 -86.5 -208t-206.5 -87q-121 0 -207 85t-86 210zM860 283q0 -107 72 -181.5t178 -74.5q108 0 180 74.5t72 181.5q0 109 -72 183.5 t-180 74.5q-107 0 -178.5 -74.5t-71.5 -183.5z" />
<glyph unicode="&#x26;" horiz-adv-x="1304" d="M154 356q0 122 83 243t242 200q-38 45 -63 77.5t-54.5 79t-44 93t-14.5 92.5q0 77 25 137.5t67.5 96.5t94 54.5t108.5 18.5q72 0 135 -30.5t106.5 -97.5t43.5 -159q0 -62 -28.5 -118.5t-81.5 -104.5t-104.5 -82.5t-121.5 -73.5l393 -458l125 204l33 -18l-131 -215 l231 -270h-45l-209 237q-106 -136 -199 -205t-206 -69q-101 0 -188 44t-142 129.5t-55 194.5zM197 356q0 -100 50 -175.5t128 -112.5t170 -37q178 0 375 262l-412 475q-131 -59 -221 -176.5t-90 -235.5zM346 1143q0 -141 176 -334q47 24 83.5 45.5t83 56.5t77.5 70t52.5 82 t21.5 96q0 116 -68.5 182t-173.5 66q-115 0 -183.5 -72.5t-68.5 -191.5z" />
<glyph unicode="'" horiz-adv-x="362" d="M152 1065v373h41v-373h-41z" />
<glyph unicode="(" horiz-adv-x="778" d="M199 721q0 285 139 548.5t362 393.5v-43q-140 -92 -245 -243t-157 -320.5t-52 -335.5q0 -171 57 -345t164.5 -324t247.5 -242v-48q-152 92 -269.5 245t-182 339t-64.5 375z" />
<glyph unicode=")" horiz-adv-x="776" d="M63 -190q140 92 247.5 242t164.5 324t57 345q0 166 -52 335.5t-157 320.5t-245 243v43q223 -130 362.5 -393.5t139.5 -548.5q0 -189 -65 -375t-182.5 -339t-269.5 -245v48z" />
<glyph unicode="*" horiz-adv-x="829" d="M119 1180l10 32l285 -96l-2 316h34l-2 -316l295 98l11 -32l-295 -95l196 -264l-28 -20l-195 262l-188 -260l-31 18l197 264z" />
<glyph unicode="+" horiz-adv-x="1224" d="M182 657v41h402v408h43v-408h399v-41h-399v-421h-43v421h-402z" />
<glyph unicode="," horiz-adv-x="440" d="M113 -229l108 317h55l-124 -317h-39z" />
<glyph unicode="-" horiz-adv-x="917" d="M207 618v46h504v-46h-504z" />
<glyph unicode="." horiz-adv-x="440" d="M193 0v92h69v-92h-69z" />
<glyph unicode="/" horiz-adv-x="806" d="M121 -111l579 1680h43l-577 -1680h-45z" />
<glyph unicode="0" horiz-adv-x="1228" d="M186 399v666q0 89 36 163t95.5 121t134 72.5t154.5 26.5q83 2 162 -23t142.5 -71.5t102 -121.5t38.5 -167v-690q-3 -110 -62.5 -201.5t-153.5 -141.5t-198 -50q-94 0 -174.5 25.5t-143 75t-98 131t-35.5 185.5zM229 399q0 -98 31.5 -171.5t88.5 -117t129 -64.5t159 -21 q97 0 183 47t139 132t53 187q0 52 -8 88q-28 102 -111 167t-197 59q-96 -6 -159 -55.5t-72 -137.5q-2 -33 5 -65t24.5 -60.5t50.5 -46.5t78 -18v-35q-98 0 -150 65t-47 160q4 103 80 163t184 68q104 7 196.5 -48t129.5 -144l-8 115v399q0 81 -36 148t-94.5 108.5t-128.5 64 t-141 21.5q-97 -1 -181.5 -39t-141 -117.5t-56.5 -185.5v-666z" />
<glyph unicode="1" horiz-adv-x="614" d="M147 1393v41h203v-1434h-43v1393h-160z" />
<glyph unicode="2" horiz-adv-x="1144" d="M156 47l647 713q133 133 133 282q0 155 -97.5 257t-263.5 108q-57 2 -114.5 -14t-109 -47.5t-87.5 -86t-45 -122.5q-9 -100 42.5 -174.5t146.5 -96.5q41 -10 86 -4t83.5 20.5t65 48.5t29.5 81h39q-6 -103 -96 -153t-201 -34q-110 19 -181 113.5t-53 210.5q12 96 76 167 t149 102.5t175 27.5q179 -8 288 -118.5t109 -285.5q0 -157 -152 -319l-622 -682h776v-41h-793z" />
<glyph unicode="3" horiz-adv-x="1124" d="M145 303q0 109 71.5 199t172.5 100q111 14 201 -37.5t100 -156.5h-39q-16 92 -92 130t-174 23q-59 -8 -106 -51t-69.5 -98.5t-21.5 -108.5q0 -64 23 -116.5t59.5 -86t85 -55.5t97 -30.5t96.5 -6.5q157 6 258 118t100 282q-3 147 -105 253.5t-235 106.5h-96v41h96 q129 0 216 75t87 210q0 77 -26.5 137t-71.5 97t-102 56t-121 19q-89 0 -172 -41.5t-133 -116.5l-31 21q54 88 144 133t194 45q96 0 176.5 -38t133 -119t52.5 -193q0 -43 -11.5 -86t-36 -86.5t-71 -79.5t-110.5 -56q69 -24 122.5 -67.5t84 -96.5t45.5 -108t16 -111 q1 -190 -117 -312t-284 -122q-79 -2 -150.5 18.5t-129 60t-92 105.5t-34.5 150z" />
<glyph unicode="4" horiz-adv-x="1089" d="M90 385l678 1051h72v-1053h127v-41h-127v-342h-43v342h-678zM135 383h662v1022z" />
<glyph unicode="5" horiz-adv-x="1171" d="M162 348q0 94 47 170t131 111q52 21 109.5 17t106 -23.5t82.5 -66.5t40 -112h-37q-8 55 -38 93t-70 53t-86.5 17.5t-88.5 -15.5q-72 -30 -114.5 -98t-42.5 -144q0 -98 57.5 -177t144.5 -118.5t179 -36.5q126 5 219 70t137.5 163t44.5 212q-1 73 -27.5 143t-75 127.5 t-127 93t-173.5 35.5q-99 0 -179 -22t-170 -74h-12l94 668h621v-41h-586l-80 -564q87 46 159.5 61t156.5 15q104 -1 189.5 -40.5t139.5 -103.5t83.5 -141.5t31.5 -158.5q2 -130 -52 -239t-159.5 -175.5t-241.5 -66.5q-169 0 -291 102.5t-122 265.5z" />
<glyph unicode="6" horiz-adv-x="1185" d="M145 451q0 142 78 268q73 117 223 357.5t224 357.5h49l-395 -631q71 62 132 80t132 18q109 0 196.5 -40t140 -105.5t80 -144t27.5 -160.5q0 -68 -18 -134t-55.5 -125.5t-89 -104t-124.5 -71t-157 -26.5q-104 0 -189.5 39.5t-140 104.5t-84 147t-29.5 170zM190 453 q0 -78 26 -152.5t74.5 -135.5t126 -98.5t171.5 -37.5t172.5 38.5t127 100t74.5 136t25 149.5q0 71 -26.5 142.5t-75 131.5t-126.5 97.5t-171 37.5q-162 0 -279 -122t-119 -287z" />
<glyph unicode="7" horiz-adv-x="985" d="M88 1391v43h807l27 -37l-711 -1397h-51l710 1391h-782z" />
<glyph unicode="8" horiz-adv-x="1181" d="M170 389q-1 54 17 112.5t53 113.5t94.5 98t132.5 61q-119 47 -180.5 135.5t-61.5 190.5q0 83 31 151t82.5 111t115.5 66.5t132 23.5q67 0 130 -23t114 -65.5t81.5 -110.5t30.5 -151q0 -60 -22.5 -121.5t-78.5 -120t-136 -84.5q80 -23 140.5 -66.5t95 -97t51.5 -110 t16 -113.5q-1 -92 -37.5 -170.5t-96.5 -130t-135 -80t-153 -28.5t-151.5 27t-132.5 77t-95 129.5t-37 175.5zM213 387q0 -69 25 -134.5t70.5 -118t118 -84t159.5 -30.5q116 1 204.5 55.5t131.5 137.5t43 178q0 66 -26 130.5t-72.5 117t-120 85t-160.5 32.5 q-86 0 -158.5 -33.5t-118 -87.5t-71 -118.5t-25.5 -129.5zM268 1102q0 -53 22 -107t61.5 -99.5t101 -74t133.5 -28.5q73 0 134 28.5t99 74t59 99.5t21 107q0 123 -84 216t-229 93q-144 0 -231 -92t-87 -217z" />
<glyph unicode="9" horiz-adv-x="1218" d="M145 985q0 86 29.5 167.5t84 147.5t141 106t190.5 40t189.5 -39.5t139.5 -105t83.5 -147t29.5 -169.5q0 -145 -76 -268q-74 -117 -224.5 -358.5t-223.5 -358.5h-49l395 633q-71 -62 -132 -80t-132 -18q-109 0 -196.5 40t-140.5 105.5t-80.5 144t-27.5 160.5zM190 983 q0 -57 16.5 -114t50 -110.5t80 -95t112.5 -66t141 -24.5q162 0 278.5 122.5t118.5 287.5q0 78 -26 152.5t-74.5 135.5t-125.5 98.5t-171 37.5t-172.5 -38.5t-127 -100t-75 -136t-25.5 -149.5z" />
<glyph unicode=":" horiz-adv-x="581" d="M258 0v92h70v-92h-70zM258 915v93h70v-93h-70z" />
<glyph unicode=";" horiz-adv-x="600" d="M158 -229l108 317h56l-125 -317h-39zM258 915v93h70v-93h-70z" />
<glyph unicode="&#x3c;" horiz-adv-x="1013" d="M109 565v39l749 400v-52l-702 -366l702 -359v-51z" />
<glyph unicode="=" horiz-adv-x="1265" d="M225 346v41h813v-41h-813zM225 748v40h813v-40h-813z" />
<glyph unicode="&#x3e;" horiz-adv-x="1011" d="M141 176v51l703 357l-703 368v52l750 -400v-39z" />
<glyph unicode="?" horiz-adv-x="1030" d="M123 1305q116 141 332 141q162 0 289 -114.5t126 -289.5q-1 -168 -113 -278.5t-302 -138.5l-4 -367h-39v401q83 8 156.5 36t132.5 75t93 118t33 156q-1 83 -34.5 153t-86.5 114.5t-118 69t-133 24.5q-196 0 -301 -127zM410 -2v98h51v-98h-51z" />
<glyph unicode="@" horiz-adv-x="1617" d="M147 444q2 106 33.5 210t92.5 195.5t143.5 161.5t195 111t238.5 41q269 0 445.5 -157t179.5 -398q2 -133 -50.5 -260.5t-150 -206.5t-211.5 -65q-46 5 -72 40t-16 105h-6q-43 -67 -117.5 -109t-153.5 -38q-94 5 -163.5 86.5t-69.5 199.5q0 135 47.5 245t142.5 177.5 t222 67.5q26 0 56 -7.5t66.5 -25.5t62.5 -58t32 -97l43 122h41l-152 -491q-16 -50 -16 -88q0 -88 92 -88q91 0 168.5 73t120.5 186t43 232q0 163 -91 289l3 -2q-83 107 -215 166t-277 59q-119 0 -224.5 -38t-184 -103.5t-136 -151.5t-87.5 -184t-32 -199q-1 -99 19.5 -188.5 t68 -169.5t118 -138t175 -92t232.5 -34q99 0 190 39l15 -37q-98 -39 -205 -39q-135 0 -246 35.5t-186.5 97t-127 145.5t-74.5 179.5t-22 201.5zM508 360q0 -95 56.5 -168t142.5 -73q157 0 262 155q59 146 96 320q0 99 -51.5 156t-145.5 57q-72 1 -133 -24.5t-102 -69 t-70 -102t-42 -122t-13 -129.5zM1337 905l6 -8z" />
<glyph unicode="A" horiz-adv-x="2217" d="M20 4q0 114 48.5 212.5t145 161t220.5 62.5q74 0 143 -27.5t122 -76.5t79 -126q18 -53 19 -112q0 -27 -4 -55q-21 -124 -93 -186.5t-174 -65.5h-11q-79 -1 -141 41q-66 44 -71 131h39q4 -41 25 -69t52 -40t55.5 -16t51.5 -4h3q88 0 147 59q60 60 74 154q4 27 4 52 q0 51 -16 97q-22 68 -68 110.5t-108 65.5t-132 23q-91 0 -163.5 -37.5t-114 -96.5t-63 -124.5t-21.5 -128.5q0 -122 63 -225t168.5 -161t228.5 -58q184 0 298.5 103t183.5 296l518 1438h-244q-73 0 -129 -30t-84.5 -75.5t-33.5 -100.5q-1 -11 -1 -22q0 -43 16 -83 q20 -50 69 -89.5t120 -52.5l-10 -37q-84 19 -140.5 66.5t-77.5 105.5q-15 43 -15 88q0 15 2 33q8 64 41 116t96 86t143 34h344l524 -1440h-49l-186 508h-662l-198 -563q-151 -426 -525 -426q-98 0 -190.5 38t-162.5 102t-112.5 155t-42.5 190zM1268 551h633l-306 850h-24z " />
<glyph unicode="B" horiz-adv-x="1343" d="M16 1147q-2 18 -2 36q0 23 2 46q4 41 24.5 77.5t48.5 65t71 45.5t94 17h489q158 0 263.5 -99t105.5 -248q0 -36 -11 -78.5t-36.5 -93t-78 -92.5t-124.5 -61q66 -15 120.5 -47.5t90 -72t59.5 -85.5q24 -47 34 -89q10 -39 10 -74v-7q0 -174 -123.5 -280.5t-311.5 -106.5 h-370v1397h-115q-64 0 -111 -31q-47 -32 -69 -78q-23 -48 -22 -103q0 -53 20 -97q20 -46 68 -77.5t114 -31.5v-37q-53 0 -97 17t-72.5 45.5t-47.5 65t-23 77.5zM416 43h327q94 0 169.5 29t123 77.5t72.5 109.5t25 128q0 48 -15.5 97t-48.5 95t-78 82t-109.5 58t-138.5 22 h-327v-698zM416 782h327q78 0 142 28t103 73t60 98t21 106t-21 105.5t-60 97.5t-103 73t-142 28h-327v-609z" />
<glyph unicode="C" horiz-adv-x="1472" d="M115 711q0 116 30 224.5t90 201t144 161.5t198.5 108t247.5 40q128 0 238 -46.5t180 -139.5t70 -213q0 -94 -44 -175t-123.5 -130t-176.5 -50h-8q-108 0 -191 52q-86 54 -102 163q-4 20 -4 39q0 68 45 130q57 80 159 81h13v-39h-13q-62 -1 -102 -37q-39 -35 -51 -79 q-8 -29 -8 -57q0 -14 2 -27q7 -49 31 -85.5t60 -58t77.5 -31.5t87.5 -10q135 0 221 91t86 220q0 82 -39 151.5t-102.5 114.5t-142 70t-159.5 25q-193 0 -345 -85.5t-238 -244t-86 -364.5q0 -142 48.5 -267t135 -217t212.5 -145t273 -53q140 0 267.5 57.5t220.5 169.5l31 -27 q-98 -119 -231 -181t-288 -62q-161 0 -296.5 58t-226 156.5t-141 230.5t-50.5 280z" />
<glyph unicode="D" horiz-adv-x="1581" d="M16 1147q-2 18 -2 36q0 23 2 46q4 41 24.5 77.5t48.5 65t71 45.5t94 17h504q146 0 267.5 -49.5t200.5 -132.5t134 -191q54 -108 66 -227q6 -60 6 -119t-6 -119q-12 -118 -67 -225.5t-134 -190.5t-201 -131.5t-268 -48.5h-385v1397h-115q-64 0 -111 -31q-47 -32 -69 -78 q-23 -48 -22 -103q0 -53 20 -97q20 -46 68 -77.5t114 -31.5v-37q-53 0 -97 17t-72.5 45.5t-47.5 65t-23 77.5zM416 43h338h6q135 0 247 45q115 46 189.5 123.5t126 179t63.5 213.5q6 56 6 112q0 55 -6 111q-12 112 -63.5 213.5t-125.5 180t-188.5 124.5t-250.5 46h-342 v-1348z" />
<glyph unicode="E" horiz-adv-x="1187" d="M22 1147q-2 18 -2 36q0 23 2 46q4 41 24.5 77.5t48.5 65t71 45.5t94 17h819v-43h-655v-652h647v-41h-649v-655h657v-43h-702v1397h-115q-64 0 -111 -31q-47 -32 -69 -78q-23 -48 -22 -103q0 -53 20 -97q20 -46 68 -77.5t114 -31.5v-37q-53 0 -97 17t-72.5 45.5t-47.5 65 t-23 77.5z" />
<glyph unicode="F" horiz-adv-x="1654" d="M23 -78q0 79 33 150.5t86 119.5q54 50 124 74q49 17 98 16q22 0 44 -3q59 -8 108 -35.5t78 -65.5q30 -39 46 -84q13 -35 12 -69q0 -10 -1 -21q-5 -45 -24.5 -83t-62.5 -64.5t-103 -32.5v37q47 6 82 28.5t50.5 53.5t19.5 68q1 8 1 16q0 29 -11 58q-14 37 -38.5 69t-66 56 t-92.5 32q-19 2 -37 2q-71 0 -135 -34q-80 -43 -126.5 -119.5t-46.5 -164.5q0 -86 40 -167.5t112 -129.5q101 -67 242 -67q171 0 293 134t122 331v1370h-114q-64 0 -111 -31q-47 -32 -69 -78q-23 -48 -22 -103q0 -53 20 -97q20 -46 68 -77.5t114 -31.5v-37q-53 0 -97 17 t-72.5 45.5t-48.5 65.5q-18 36 -22 77q-2 18 -2 36q0 23 2 46q4 41 24.5 77.5t48.5 65t71 45.5t94 17h794v-41h-635v-658h627v-41h-627v-667q0 -142 -63.5 -258.5t-169 -181t-227.5 -64.5q-141 0 -265 78q-76 49 -120.5 137t-44.5 184z" />
<glyph unicode="G" horiz-adv-x="1660" d="M127 715q0 111 30.5 218t91 199t144 162t197 110t241.5 40q329 0 533 -217l-31 -27q-189 203 -502 203q-146 0 -271.5 -57.5t-209 -153t-131 -219.5t-47.5 -258q0 -127 47.5 -249t131 -218t209.5 -154.5t271 -58.5q112 0 217.5 37.5t192 107.5t144 179.5t69.5 242.5h-666 v41h715q-9 -138 -62 -258t-140 -207t-208.5 -136.5t-261.5 -49.5q-159 0 -293.5 62t-222.5 164.5t-137.5 231.5t-50.5 265z" />
<glyph unicode="H" horiz-adv-x="2007" d="M33 -78q0 79 33 150.5t86 119.5q54 50 124 74q49 17 98 16q22 0 44 -3q59 -8 108 -35.5t78 -65.5q30 -39 46 -84q13 -35 12 -69q0 -10 -1 -21q-5 -45 -24.5 -83t-62.5 -64.5t-103 -32.5v37q47 6 82 28.5t50.5 53.5t19.5 68q1 8 1 16q0 29 -11 58q-14 37 -38.5 69t-66 56 t-92.5 32q-18 2 -35 2q-51 0 -99 -18q-64 -24 -109.5 -68t-73 -105.5t-27.5 -126.5q0 -86 40 -167.5t111 -129.5q101 -67 242 -67q171 0 293.5 134t122.5 331v1370h-115q-64 0 -111 -31q-47 -32 -69 -78q-23 -48 -22 -103q0 -53 20 -97q20 -46 68 -77.5t114 -31.5v-37 q-53 0 -97 17t-72.5 45.5t-48.5 65.5q-18 36 -22 77q-2 18 -2 36q0 23 2 46q4 41 24.5 77.5t48.5 65t71 45.5t94 17h160v-697h788v697h45v-1434h-45v694h-788v-667q0 -214 -136.5 -359t-324.5 -145q-140 0 -264 78q-76 49 -121 137t-45 184z" />
<glyph unicode="I" horiz-adv-x="667" d="M14 1147q-2 18 -2 36q0 23 2 46q4 41 24.5 77.5t48.5 65t71 45.5t94 17h162v-1434h-45v1397h-115q-64 0 -111 -31q-47 -32 -69 -78q-23 -48 -22 -103q0 -53 20 -97q20 -46 68 -77.5t114 -31.5v-37q-53 0 -97 17t-72.5 45.5t-47.5 65t-23 77.5z" />
<glyph unicode="J" horiz-adv-x="1159" d="M37 395q0 99 53.5 184t142.5 130q69 35 144 35q21 0 43 -3q103 -12 170.5 -74.5t73.5 -148.5q1 -14 1 -27q0 -72 -37 -125q-43 -64 -134 -71v39q38 4 65 20t38.5 37.5t19 46t6 44.5t-1.5 34q-8 71 -63 120.5t-142 61.5q-20 3 -40 3q-110 0 -196 -81q-102 -95 -102 -227 q0 -156 116.5 -261t274.5 -105q173 0 296.5 128.5t123.5 327.5v910h-322v41h367v-951q0 -149 -67 -265t-173.5 -175t-230.5 -59q-111 0 -208 51t-157.5 146.5t-60.5 213.5z" />
<glyph unicode="K" horiz-adv-x="1890" d="M31 -78q0 79 33 150.5t86 119.5q54 50 124 74q49 17 98 16q22 0 44 -3q59 -8 108 -35.5t78 -65.5q30 -39 46 -84q13 -35 12 -69q0 -10 -1 -21q-5 -45 -24.5 -83t-62.5 -64.5t-103 -32.5v37q47 6 82 28.5t50.5 53.5t19.5 68q1 8 1 16q0 29 -11 58q-14 37 -38.5 69t-66 56 t-92.5 32q-18 2 -35 2q-51 0 -99 -18q-64 -24 -109.5 -68t-73 -105.5t-27.5 -126.5q0 -86 40 -167.5t111 -129.5q101 -67 242 -67q171 0 293.5 134t122.5 331v1370h-115q-64 0 -111 -31q-47 -32 -69 -78q-23 -48 -22 -103q0 -53 20 -97q20 -46 68 -77.5t114 -31.5v-37 q-53 0 -97 17t-72.5 45.5t-48.5 65.5q-18 36 -22 77q-2 18 -2 36q0 23 2 46q4 41 24.5 77.5t48.5 65t71 45.5t94 17h160v-822l772 822h55l-584 -629l613 -805h-52l-591 774l-213 -217v-530q0 -214 -136.5 -359t-324.5 -145q-140 0 -264 78q-76 49 -121 137t-45 184z" />
<glyph unicode="L" horiz-adv-x="1075" d="M20 1147q-2 18 -2 36q0 23 2 46q4 41 24.5 77.5t48.5 65t71 45.5t94 17h160v-1393h604v-41h-649v1397h-113q-64 0 -111 -31q-47 -32 -69 -78q-23 -48 -22 -103q0 -53 20 -97q20 -46 68 -77.5t114 -31.5v-37q-53 0 -97 17t-72.5 45.5t-47.5 65t-23 77.5z" />
<glyph unicode="M" horiz-adv-x="2342" d="M33 -78q0 79 33 150.5t86 119.5q54 50 124 74q49 17 98 16q22 0 44 -3q59 -8 108 -35.5t78 -65.5q30 -39 46 -84q13 -35 12 -69q0 -10 -1 -21q-5 -45 -24.5 -83t-62.5 -64.5t-103 -32.5v37q47 6 82 28.5t50.5 53.5t19.5 68q1 8 1 16q0 29 -11 58q-14 37 -38.5 69t-66 56 t-92.5 32q-18 2 -35 2q-51 0 -99 -18q-64 -24 -109.5 -68t-73 -105.5t-27.5 -126.5q0 -86 40 -167.5t111 -129.5q101 -67 242 -67q171 0 293.5 134t122.5 331v1370h-115q-64 0 -111 -31q-47 -32 -69 -78q-23 -48 -22 -103q0 -53 20 -97q20 -46 68 -77.5t114 -31.5v-37 q-53 0 -97 17t-72.5 45.5t-48.5 65.5q-18 36 -22 77q-2 18 -2 36q0 23 2 46q4 41 24.5 77.5t48.5 65t71 45.5t94 17h199l524 -1160l524 1160h82v-1434h-45v1403h-2l-528 -1167h-62l-528 1167h-2v-1376q0 -142 -64.5 -258.5t-170.5 -181t-228 -64.5q-140 0 -264 78 q-76 49 -121 137t-45 184z" />
<glyph unicode="N" horiz-adv-x="2088" d="M37 -78q0 79 33 150.5t86 119.5q54 50 124 74q49 17 98 16q22 0 44 -3q59 -8 108 -35.5t78 -65.5q30 -39 46 -84q13 -35 12 -69q0 -10 -1 -21q-5 -45 -24.5 -83t-62.5 -64.5t-103 -32.5v37q47 6 82 28.5t50.5 53.5t19.5 68q1 8 1 16q0 29 -11 58q-14 37 -38.5 69t-66 56 t-92.5 32q-18 2 -35 2q-51 0 -99 -18q-64 -24 -109.5 -68t-73 -105.5t-27.5 -126.5q0 -86 40 -167.5t111 -129.5q101 -67 242 -67q171 0 293.5 134t122.5 331v1370h-115q-64 0 -111 -31q-47 -32 -69 -78q-23 -48 -22 -103q0 -53 20 -97q20 -46 68 -77.5t114 -31.5v-37 q-53 0 -97 17t-72.5 45.5t-48.5 65.5q-18 36 -22 77q-2 18 -2 36q0 23 2 46q4 41 24.5 77.5t48.5 65t71 45.5t94 17h186l838 -1409h4v1409h45v-1436h-84l-827 1395v-1366q0 -142 -64.5 -258.5t-170.5 -181t-228 -64.5q-140 0 -264 78q-76 49 -121 137t-45 184z" />
<glyph unicode="O" d="M145 711q0 140 58 276t153.5 239t227.5 166.5t272 63.5q114 0 220 -30.5t197.5 -92.5t159.5 -149t107 -206.5t39 -258.5q0 -174 -59 -317t-159 -234.5t-230 -141t-275 -49.5q-142 0 -271 53t-226.5 147.5t-155.5 233.5t-58 300zM190 737q-1 -20 -1 -41q0 -141 49 -262 q56 -139 153 -228t218 -138.5t247 -49.5q95 0 188.5 24.5t182.5 79t157 134t109 199t41 264.5q0 141 -40.5 259t-108 197.5t-155.5 134.5q-90 56 -184 81q-91 24 -183 24h-7q-175 0 -346.5 -114t-263.5 -310q128 148 313 148q164 0 272.5 -94t108.5 -250q0 -137 -83.5 -215 t-192.5 -78q-93 0 -160 53.5t-70 149.5h37q1 -56 35 -94.5t75 -52t83 -13.5q113 0 173 71.5t60 180.5q0 77 -29.5 136t-79 93t-108 51t-123.5 17q-156 0 -257.5 -104.5t-109.5 -252.5z" />
<glyph unicode="P" horiz-adv-x="1286" d="M14 1147q-2 18 -2 36q0 23 2 46q4 41 24.5 77.5t48.5 65t71 45.5t94 17h487q82 -1 152 -26t119.5 -65.5t85.5 -94.5q35 -56 52 -116q18 -62 18 -127q0 -61 -16 -121t-50.5 -114t-84 -94.5t-120.5 -64.5t-154 -25h-327v-586h-45v1397h-115q-64 0 -111 -31q-47 -32 -69 -78 q-23 -48 -22 -103q0 -53 20 -97q20 -46 68 -77.5t114 -31.5v-37q-53 0 -97 17t-72.5 45.5t-47.5 65t-23 77.5zM414 627h325q94 2 170 35t121 86q46 52 70 120q23 64 24 130v8q-2 70 -27.5 138t-72 121.5t-120.5 88t-165 37.5h-325v-764z" />
<glyph unicode="Q" horiz-adv-x="1689" d="M123 723q0 160 58.5 297.5t156.5 229.5t226 144t267 52q142 0 274 -56t230 -151t156.5 -228.5t58.5 -281.5q0 -191 -81 -345.5t-224 -248.5q79 -285 354 -285q59 0 99 13v-37q-50 -12 -99 -12q-136 0 -248 87.5t-149 237.5q-7 65 -17 123.5t-28.5 126.5t-43 124.5 t-61.5 110t-82.5 90t-108 59t-136.5 22.5q-160 0 -275.5 -115t-115.5 -279q0 -163 104 -249q71 -58 179 -90.5t208 -32.5q68 0 152 16t145 49l15 -37q-59 -35 -149.5 -53t-162.5 -18q-152 0 -283 55t-223 151.5t-144 233.5t-52 297zM164 723q0 -103 34.5 -223.5 t104.5 -216.5l4 4q-16 62 -16 121q0 23 3 45q8 80 47 149.5t95.5 121.5t131 82t153.5 30q102 0 186 -37.5t140.5 -100.5t96.5 -150.5t60.5 -181.5t26.5 -200q150 118 214 264t64 297q0 143 -56 271t-149.5 217t-217.5 140q-122 50 -252 50h-5q-95 -1 -188.5 -28t-180 -83 t-152 -135t-105 -192t-39.5 -244z" />
<glyph unicode="R" horiz-adv-x="1368" d="M28 1147q-2 18 -2 36q0 23 2 46q4 41 24.5 77.5t48.5 65t71 45.5t94 17h514q192 0 309.5 -102.5t120.5 -287.5v-7q0 -186 -106 -293q-108 -109 -328 -109h-49l500 -635h-53l-500 633h-246v-633h-45v1397h-115q-64 0 -111 -31q-47 -32 -69 -78q-23 -48 -22 -103 q0 -53 20 -97q20 -46 68 -77.5t114 -31.5v-37q-53 0 -97 17t-72.5 45.5t-47.5 65t-23 77.5zM428 676h342q197 0 297 92.5t100 275.5q0 171 -107 260t-282 89h-350v-717z" />
<glyph unicode="S" horiz-adv-x="1300" d="M80 31q0 180 112.5 294.5t284.5 114.5q59 0 118.5 -19.5t110 -55t82 -94.5t31.5 -130q0 -100 -54 -167.5t-149 -77.5v43q77 6 118.5 65t41.5 135q0 79 -44.5 139.5t-111.5 89.5t-143 29q-85 0 -154 -31t-112 -83.5t-65.5 -117.5t-22.5 -136q0 -120 64 -215t166.5 -145 t221.5 -50q154 0 279 75q124 74 192 200q64 119 64 258v16q-2 85 -26.5 159t-64.5 129.5t-96 101.5t-118 77.5t-135 54.5q-404 119 -404 393q0 163 114.5 264t268.5 101q250 0 352 -193l-32 -16q-59 96 -132 133t-186 37q-144 0 -242 -90t-98 -232q0 -55 15.5 -101.5 t45.5 -81.5t63.5 -62t79.5 -49t82 -35.5t83 -28.5q215 -65 342.5 -206t134.5 -347v-24q0 -86 -25 -168q-29 -92 -83 -165t-126.5 -128t-159.5 -84t-177 -29q-136 0 -250.5 54t-185 159t-70.5 240z" />
<glyph unicode="T" horiz-adv-x="903" d="M41 1391v43h821v-43h-387v-1391h-45v1391h-389z" />
<glyph unicode="U" horiz-adv-x="1325" d="M238 399v1035h43v-1035q0 -98 32 -172t89.5 -117t130 -64t159.5 -21q97 0 183 47t139 132t53 187q0 52 -8 88q-27 101 -110 165q-76 59 -178 59q-10 0 -19 -1q-98 -6 -160.5 -52.5t-71.5 -137.5v-15q0 -25 5 -50q7 -32 24.5 -60.5t50.5 -46.5t78 -18v-35q-98 0 -150 65 q-47 59 -47 144v16q4 99 81 161t183 70q12 1 23 1q92 0 174 -49q92 -55 129 -144l-8 115v768h43v-1059q-3 -110 -62.5 -201.5t-153.5 -141.5t-198 -50q-94 0 -175 25.5t-144 75t-99 131t-36 185.5z" />
<glyph unicode="V" horiz-adv-x="2093" d="M57 1006q0 99 42.5 190t112.5 155t162.5 102t190.5 38q371 0 522 -426l377 -1038h6l498 1407h47l-512 -1438h-73l-381 1051q-69 192 -184.5 295.5t-299.5 103.5q-123 0 -229 -58.5t-169 -161.5t-63 -225q0 -50 13 -102t41.5 -103.5t69.5 -91.5t103 -65t136 -25 q70 0 131.5 23t107.5 66t68 111q15 45 16 97q0 25 -4 52q-14 94 -74 154q-59 59 -146 59h-3q-27 0 -51.5 -4t-55.5 -16t-52 -40t-25 -69h-39q4 87 70 131q62 42 142 41h11q102 -3 173.5 -65.5t92.5 -186.5q4 -28 4 -55q-1 -59 -19 -112q-26 -77 -78.5 -126.5t-121.5 -77 t-143 -27.5q-124 0 -220.5 63t-145 161.5t-48.5 212.5z" />
<glyph unicode="W" horiz-adv-x="2750" d="M57 1006q0 99 42.5 190t112.5 155t162.5 102t190.5 38q190 0 332 -108t203 -318l299 -1042h4l356 1153h70l356 -1153h4l404 1411h45l-412 -1436h-76l-356 1147l-356 -1147h-76l-301 1049q-54 188 -180.5 293.5t-315.5 105.5q-123 0 -229 -58.5t-169 -161.5t-63 -225 q0 -50 13 -102t41.5 -103.5t69.5 -91.5t103 -65t136 -25q70 0 131.5 23t107.5 66t68 111q15 45 16 97q0 25 -4 52q-14 94 -74 154q-59 59 -146 59h-3q-20 0 -39.5 -2.5t-45 -11t-45.5 -22.5t-35.5 -39.5t-18.5 -58.5h-39q4 88 71 134q63 44 142 43h10q102 -3 173.5 -65.5 t92.5 -186.5q4 -28 4 -55q-1 -59 -19 -112q-26 -77 -78.5 -126.5t-121.5 -77t-143 -27.5q-124 0 -220.5 63t-145 161.5t-48.5 212.5z" />
<glyph unicode="X" horiz-adv-x="2203" d="M47 201q31 109 105.5 190.5t179.5 115.5q52 17 109 17q59 0 122 -18q96 -26 167 -96q70 -70 94 -168q8 -32 8 -65q0 -71 -33 -150q-27 -63 -75 -105q-48 -44 -102 -60q-40 -12 -82 -12q-14 0 -28 2q-57 6 -102 30.5t-74.5 73t-30.5 112.5h39q6 -69 43 -114.5t89 -57.5 q28 -6 57 -6q25 0 51 5q56 10 104 50t72 98q29 72 29 136q0 29 -6 57q-20 86 -82.5 145t-153.5 84q-56 14 -106 14q-33 0 -63 -6q-76 -15 -134.5 -61.5t-96 -103.5t-53.5 -118q-18 -59 -17 -117q1 -31 5 -62q14 -89 57 -163.5t115.5 -131t161.5 -81.5q74 -21 141 -21 q93 0 173 40q138 69 257 235l578 828l-488 719h49l463 -686l465 684h51l-491 -719l497 -715h-49l-473 682l-571 -821q-128 -181 -285 -249q-90 -39 -185 -40q-71 0 -145 22q-127 37 -222 130.5t-133 221.5q-19 65 -19 129q0 63 18 126z" />
<glyph unicode="Y" horiz-adv-x="1589" d="M33 1112v19q0 112 67 197q73 93 189 110q34 7 67 7q79 0 154 -37q107 -52 164 -157l348 -630l455 813h49l-484 -854v-553q0 -142 -63.5 -258.5t-169 -181t-227.5 -64.5q-141 0 -265 78q-76 49 -120.5 137t-44.5 184q0 79 33 150.5t86 120t123 73.5q49 16 99 16 q22 0 44 -3q59 -8 108 -35.5t78 -66t45 -83.5q13 -35 13 -69q0 -11 -1 -21q-5 -45 -24.5 -83t-62.5 -64.5t-103 -32.5v37q47 6 82 28.5t50.5 53.5t19.5 68q1 8 1 16q0 29 -11 58q-14 37 -38.5 69t-66 56t-92.5 32q-19 2 -37 2q-71 0 -136 -34q-80 -43 -126 -119.5 t-46 -164.5q0 -86 40 -167.5t112 -129.5q101 -67 242 -67q171 0 293 134t122 331v555l-362 645q-48 94 -139 143q-67 35 -144 35q-27 0 -55 -4q-99 -19 -165 -99q-59 -73 -59 -166q0 -10 1 -20q5 -91 68 -150q53 -49 131 -49q14 0 28 1q53 6 88.5 35.5t44.5 74.5h39 q-23 -123 -164 -149q-20 -3 -39 -3q-79 0 -148 54q-85 66 -91 182z" />
<glyph unicode="Z" horiz-adv-x="1325" d="M123 41l842 1350h-768v43h794l27 -39l-844 -1352h733q124 0 221 95t97 229q0 112 -72 184t-178 72q-64 0 -121.5 -35t-77.5 -92q-11 -30 -10 -58q0 -36 16 -72q30 -62 109 -69v-35q-49 2 -86.5 25.5t-54.5 59t-22 77.5q-1 10 -1 21q0 32 12 63q27 73 93.5 113.5 t144.5 40.5q118 0 203.5 -84.5t85.5 -206.5q0 -155 -108.5 -263t-252.5 -108h-749z" />
<glyph unicode="[" horiz-adv-x="616" d="M264 -141v1722h273v-41h-230v-1640h221v-41h-264z" />
<glyph unicode="\" horiz-adv-x="798" d="M61 1581h45l580 -1696h-45z" />
<glyph unicode="]" horiz-adv-x="618" d="M92 1540v41h273v-1722h-265v41h222v1640h-230z" />
<glyph unicode="^" horiz-adv-x="1226" d="M217 664l381 770h33l383 -770h-45l-355 720l-352 -720h-45z" />
<glyph unicode="_" horiz-adv-x="1099" d="M96 -18h940v-43h-940v43z" />
<glyph unicode="`" horiz-adv-x="937" d="M367 1743h61l117 -203h-43z" />
<glyph unicode="a" horiz-adv-x="1169" d="M82 492q0 153 69 276.5t185 194.5q139 88 319 93q11 0 22 1q167 0 306 -72v-985h-41v958q-119 57 -264 57q-16 0 -33 -1q-165 -7 -291 -88q-104 -67 -166.5 -180t-62.5 -254q0 -97 26.5 -179.5t77 -146t132 -100.5t184.5 -39h5q108 1 198 89q92 90 92 214q0 84 -39.5 148 t-96 94t-116.5 30q-66 0 -116.5 -39t-59.5 -104h-39q6 82 68 133t149 51q126 1 210 -93q82 -91 81 -214v-6q1 -141 -103.5 -242.5t-232.5 -101.5q-114 0 -204.5 41.5t-146 113t-84 161t-28.5 190.5z" />
<glyph unicode="b" horiz-adv-x="1198" d="M211 33v1401h43v-1364q118 -26 164 -31.5t137 -7.5q139 0 252 70.5t175 187t62 252.5q0 213 -106.5 341t-298.5 128q-129 0 -206 -86.5t-77 -198.5q0 -84 45 -150t134 -96q36 -11 69 -11q48 0 90 23q72 39 78 127h41q-7 -108 -89 -156q-58 -34 -122 -34q-27 0 -55 6 q-103 21 -167.5 99t-64.5 194q0 79 29.5 142.5t77 102t103 59t112.5 20.5q203 0 326.5 -136t123.5 -376q0 -107 -39.5 -206.5t-108 -175.5t-169 -121.5t-215.5 -45.5q-106 2 -175 10t-169 33z" />
<glyph unicode="c" horiz-adv-x="1073" d="M102 512q0 154 65 278t184.5 195t271.5 72q203 0 344 -127l-27 -29q-127 117 -319 117h-7q-64 0 -126 -17q-66 -18 -128 -58t-108.5 -98.5t-75 -144.5t-29.5 -190q0 -134 58.5 -243.5t167.5 -174.5t248 -65q191 0 327 116l25 -30q-143 -125 -352 -125q-153 0 -273 73 t-183 192t-63 259z" />
<glyph unicode="d" horiz-adv-x="1210" d="M115 532q0 226 127 369t327 143q57 0 112.5 -19.5t103 -56.5t77 -99.5t29.5 -141.5q0 -116 -64.5 -194t-167.5 -99q-28 -6 -55 -6q-64 0 -122 34q-82 48 -89 156h41q6 -88 78 -127q42 -23 91 -23q33 0 69 11q88 29 133 95.5t45 150.5q0 112 -76.5 195.5t-206.5 83.5 q-189 0 -299 -133.5t-110 -335.5q0 -138 63 -253.5t176.5 -183t253.5 -67.5q91 2 137 7.5t164 31.5v1364h43v-1401q-100 -25 -169 -33t-175 -10q-154 0 -277.5 74.5t-191 198t-67.5 269.5z" />
<glyph unicode="e" horiz-adv-x="1230" d="M115 539q0 141 60.5 257.5t176 187t264.5 71.5h5q103 0 197 -42q96 -43 163 -114.5t101 -171.5q26 -76 27 -156q0 -25 -3 -51h-948q6 -205 136 -348t324 -143q219 0 343 143l30 -29q-90 -90 -169.5 -122.5t-203.5 -32.5q-114 0 -211 48t-160 126.5t-98 176.5 q-34 95 -34 194v6zM158 561h911q0 86 -26 159.5t-70.5 126t-102.5 90t-122.5 56t-131.5 19.5q-191 -2 -320 -123.5t-138 -327.5z" />
<glyph unicode="f" horiz-adv-x="585" d="M33 -373q102 3 155.5 52.5t53.5 164.5v1151h-115v43h115v136q0 74 20.5 127t58.5 81.5t84.5 41t106.5 12.5v-41q-118 -2 -171.5 -52.5t-53.5 -168.5v-136h217v-43h-217v-1151q0 -129 -67 -193q-65 -61 -176 -61h-11v37z" />
<glyph unicode="g" horiz-adv-x="1228" d="M115 492q0 153 69 276.5t185 194.5q139 88 319 93h22q167 0 306 -71v-1018q0 -104 -43 -184t-112 -124t-157 -63q-58 -12 -116 -12q-31 0 -61 3q-88 10 -172 46.5t-142 94.5l29 34q45 -45 107.5 -77t130.5 -45q64 -12 129 -12h10q70 1 133.5 25t113 63t78.5 104t29 147 v991q-119 57 -264 57q-16 0 -32 -1q-164 -7 -290 -88q-104 -67 -166.5 -180t-62.5 -254q0 -97 26.5 -179.5t77 -146t132 -100.5t184.5 -39h5q109 0 198 89q91 90 91 214q0 125 -78 198.5t-173 73.5q-66 0 -117 -39t-60 -104h-38q6 82 68 133t149 51q126 0 209 -93 q81 -92 81 -214v-6q1 -142 -103 -243t-232 -101q-114 0 -204.5 41.5t-146 113t-84 161t-28.5 190.5z" />
<glyph unicode="h" horiz-adv-x="1220" d="M213 0v1434h45v-461q141 69 295 69q93 0 177.5 -29t150 -83t103.5 -139q38 -83 38 -184v-5v-758q0 -116 50 -165t151 -52v-37h-11q-110 0 -171 60q-64 64 -64 194v758q0 99 -35.5 176.5t-96.5 125.5t-138 72.5t-164 24.5q-144 0 -285 -69v-932h-45z" />
<glyph unicode="i" horiz-adv-x="473" d="M209 1323v111h57v-111h-57zM213 0v1040h45v-1040h-45z" />
<glyph unicode="j" horiz-adv-x="473" d="M2 -371q211 0 211 215v1194h45v-1194q0 -123 -66.5 -189.5t-189.5 -66.5v41zM207 1323v111h57v-111h-57z" />
<glyph unicode="k" horiz-adv-x="1040" d="M6 1399v37h11q110 0 171 -60q64 -64 64 -194v-721l594 577h55l-440 -432l475 -606h-49l-457 578l-178 -168v-410h-43v1182q0 116 -51 165t-152 52z" />
<glyph unicode="l" horiz-adv-x="536" d="M201 236v1198h45v-1198q0 -105 41.5 -152t134.5 -47v-39q-110 0 -165.5 55t-55.5 183z" />
<glyph unicode="m" horiz-adv-x="1869" d="M213 0v977q176 70 358 70q45 0 87.5 -6t90 -23t85 -44t67 -72.5t41.5 -104.5q15 61 46 107t67 72t81.5 42t83 21t76.5 5q82 0 147 -20.5t117.5 -65.5t81.5 -126t29 -193v-795q0 -116 50 -165t151 -52v-37h-11q-110 0 -171 60q-64 64 -64 194v795q0 103 -25 176t-72 112.5 t-103.5 56.5t-129.5 17t-131 -19t-103.5 -60t-70.5 -111.5t-26 -167.5v-643h-45v643v8q0 77 -18 137q-18 64 -50 104t-78 66.5t-96 37t-109 10.5q-80 0 -147.5 -13t-161.5 -45v-948h-47z" />
<glyph unicode="n" horiz-adv-x="1241" d="M213 0v995q100 32 175 44t181 12q136 0 240.5 -45t167.5 -140t63 -229l2 -793q0 -116 50 -165t151 -52v-37h-11q-110 0 -171 60q-64 64 -64 194v793q0 102 -36.5 177t-101 116.5t-141 60.5t-167.5 19q-168 0 -293 -43v-967h-45z" />
<glyph unicode="o" horiz-adv-x="1277" d="M113 516q0 118 42.5 219t114 169.5t166 107.5t197.5 39q105 0 199 -38t165.5 -106t113.5 -169.5t42 -221.5q0 -304 -225 -448q36 51 45 77q139 122 139 371q0 98 -29 181.5t-77 140.5t-110.5 97.5t-129 59.5t-133.5 19q-66 0 -132 -18.5t-128.5 -58.5t-110.5 -97 t-77 -141t-29 -183q0 -121 40.5 -217.5t107 -155t145 -90t161.5 -33.5h10q132 0 218 74q90 77 90 201q0 118 -68 193t-174 77h-6q-61 0 -116 -36q-57 -38 -60 -109h-39q6 89 72.5 135.5t150.5 46.5q128 0 203.5 -89.5t75.5 -213.5q-1 -143 -99 -231q-94 -85 -248 -84h-14 q-136 5 -247 69.5t-178.5 185.5t-67.5 277z" />
<glyph unicode="p" horiz-adv-x="1196" d="M213 -412v1422q157 40 344 43q114 0 213.5 -50.5t165.5 -131t103.5 -179.5t37.5 -198q0 -227 -120 -367.5t-318 -140.5q-57 0 -112.5 20.5t-103 58.5t-77 101.5t-29.5 142.5q0 116 63 194t165 99q28 6 57 6q32 0 64 -8q61 -15 106.5 -62.5t50.5 -119.5h-41q-7 86 -82 122 q-48 24 -104 24q-31 0 -64 -7q-86 -25 -130 -93t-44 -153q0 -112 77 -198t206 -86q126 0 216.5 62.5t133.5 166t43 236.5q0 91 -35 183.5t-96 167.5t-152 122t-194 47q-139 -3 -301 -39v-1385h-43z" />
<glyph unicode="q" horiz-adv-x="1189" d="M111 494q0 99 37.5 198t103.5 179.5t165.5 131t213.5 50.5q187 -3 344 -43v-1166q0 -116 50 -165t151 -52v-37h-11q-110 0 -171 60q-64 64 -64 194v1129q-162 36 -299 39q-103 0 -194 -47t-152 -122t-96 -167.5t-35 -183.5q0 -133 43 -236.5t133.5 -166t216.5 -62.5 q129 0 205.5 86t76.5 198q0 85 -44 153t-130 93q-33 7 -63 7q-56 0 -104 -24q-75 -36 -82 -122h-41q5 72 50.5 119.5t106.5 62.5q32 8 64 8q29 0 57 -6q102 -21 164.5 -99t62.5 -194q0 -79 -29 -142.5t-76.5 -101.5t-103 -58.5t-112.5 -20.5q-198 0 -318 140.5t-120 367.5z " />
<glyph unicode="r" horiz-adv-x="806" d="M199 0v1038h39l2 -196q45 102 140 156q87 49 182 49h18q104 -5 186 -62l-18 -33q-80 50 -170 53h-14q-82 0 -150 -33q-74 -36 -123 -113.5t-49 -178.5v-680h-43z" />
<glyph unicode="s" horiz-adv-x="878" d="M131 119l27 28q99 -120 272 -120q111 0 190 62.5t80 178.5q-1 55 -24 99.5t-62.5 73t-83.5 46t-94 25.5q-114 18 -192 90.5t-78 177.5q0 124 88 197.5t213 73.5q69 0 121.5 -18t105.5 -62l-20 -29q-54 39 -97 54.5t-106 15.5q-110 0 -186 -62t-76 -172q0 -54 22 -96.5 t59 -68t75 -40t81 -22.5q63 -13 114.5 -35.5t93.5 -56t65.5 -82.5t23.5 -109q0 -90 -45.5 -155.5t-115 -96t-152.5 -30.5q-90 0 -169 33.5t-130 99.5z" />
<glyph unicode="t" horiz-adv-x="620" d="M106 999v39h121v396h43v-396h213v-39h-213v-747q0 -108 50 -162.5t169 -54.5v-37h-8q-125 0 -189 60q-66 62 -65 194v747h-121z" />
<glyph unicode="u" horiz-adv-x="1239" d="M0 1399v37h10q110 0 170 -60q62 -64 62 -194v-754q1 -85 27 -153.5t70.5 -113t106 -74.5t128.5 -43t143 -13q159 0 266 37v970h43v-997q-128 -51 -313 -51q-81 0 -154 15t-139 48.5t-114 83.5t-76.5 124t-30.5 165v756q0 116 -49 165t-150 52z" />
<glyph unicode="v" horiz-adv-x="958" d="M80 1038h47l354 -1020h2l346 1020h48l-359 -1042h-72z" />
<glyph unicode="w" horiz-adv-x="1443" d="M96 1038h43l293 -1015h4l256 1017h66l256 -1017h4l293 1015h43l-299 -1042h-80l-248 1008h-4l-248 -1008h-80z" />
<glyph unicode="x" horiz-adv-x="1028" d="M119 0l368 520l-366 518h51l340 -487l340 487h49l-364 -518l372 -520h-51l-346 489l-344 -489h-49z" />
<glyph unicode="y" horiz-adv-x="1009" d="M66 1038h47l401 -991l385 991h45l-510 -1304q-32 -88 -79.5 -117t-133.5 -29h-10v37q83 1 115 23.5t67 95.5l99 250q-56 138 -426 1044z" />
<glyph unicode="z" horiz-adv-x="909" d="M119 47l610 950h-579v41h598l30 -43l-614 -952h635v-43h-647z" />
<glyph unicode="{" horiz-adv-x="618" d="M158 684v61q141 49 141 291v359q0 186 162 186h37v-33q-39 2 -65.5 -3t-49 -21t-33 -48t-10.5 -81v-361q0 -130 -37 -206.5t-113 -112.5v-2q77 -35 113.5 -116.5t36.5 -190.5v-349q0 -87 39.5 -122t118.5 -37v-35q-199 0 -199 190v348q0 228 -141 283z" />
<glyph unicode="|" horiz-adv-x="563" d="M254 -305v1829h41v-1829h-41z" />
<glyph unicode="}" horiz-adv-x="618" d="M106 -102q79 2 118.5 37t39.5 122v349q0 109 36.5 190.5t113.5 116.5v2q-76 36 -113 112.5t-37 206.5v361q0 49 -10.5 81t-33 48t-49 21t-65.5 3v33h37q162 0 162 -186v-359q0 -242 141 -291v-61q-141 -55 -141 -283v-348q0 -190 -199 -190v35z" />
<glyph unicode="~" horiz-adv-x="1157" d="M154 578q35 57 76.5 91.5t83 47t90 8t93 -21t97.5 -44.5q78 -45 141 -57.5t125 16.5t111 107l30 -18q-52 -89 -123.5 -122t-145.5 -20t-163 62q-85 46 -145.5 58t-122.5 -17t-121 -109z" />
<glyph unicode="&#xa1;" horiz-adv-x="575" d="M256 938v96h53v-96h-53zM262 -403v1128h43v-1128h-43z" />
<glyph unicode="&#xa2;" horiz-adv-x="1110" d="M158 721q1 128 56 240.5t162 189t245 90.5v191h36v-191q178 -9 295 -111l-24 -30q-106 96 -285 96q-86 0 -165 -34.5t-140 -95.5t-97.5 -152t-37.5 -197q0 -119 56 -228.5t158.5 -179.5t223.5 -67q93 2 164 24t143 86l25 -24q-54 -59 -138.5 -93.5t-179.5 -35.5v-201h-37 v201q-108 10 -196.5 58.5t-145.5 121.5t-87.5 161t-30.5 181z" />
<glyph unicode="&#xa3;" horiz-adv-x="1191" d="M164 0v39h125v649h-121v39h121v330q0 94 30.5 168.5t82.5 120t116 69t135 23.5q63 0 116 -11.5t104.5 -40t90.5 -83t62 -132.5l-39 -6q-68 232 -330 232q-64 0 -120 -19t-103 -57.5t-74.5 -106.5t-27.5 -157v-330h459v-39h-459v-649h723v-39h-891z" />
<glyph unicode="&#xa5;" horiz-adv-x="1189" d="M102 1434h54l450 -816q72 131 228 408t227 408h53l-379 -666h228v-37h-248l-88 -151v-95h336v-36h-336v-449h-43v449h-338v36h338v97l-88 149h-250v37h229q-87 159 -373 666z" />
<glyph unicode="&#xa6;" horiz-adv-x="528" d="M242 -293v799h47v-799h-47zM242 780v809h47v-809h-47z" />
<glyph unicode="&#xa7;" horiz-adv-x="913" d="M154 119l30 26q47 -49 113 -76.5t137 -27.5q105 -2 192.5 60t86.5 165q0 45 -18.5 82t-45.5 60.5t-65.5 42.5t-71 28.5t-68.5 16.5q-57 9 -104.5 26.5t-88.5 45t-64 70.5t-23 97q0 62 36 122t113 95q-56 33 -85 90.5t-29 116.5q0 123 90 204t211 81q140 0 239 -78 l-20 -31q-82 66 -223 70q-103 2 -180 -70.5t-76 -175.5q0 -182 249 -219q297 -48 297 -254q0 -143 -139 -217q64 -49 87.5 -94.5t23.5 -108.5q0 -66 -31 -119.5t-80 -85t-104 -48.5t-109 -17q-172 0 -280 123zM207 735q0 -30 9 -55.5t23 -44t36.5 -34t42 -25t48 -18.5 t47.5 -13.5t46 -9.5q50 -8 145 -48q141 78 141 199q0 38 -12 69t-35.5 53t-47.5 37.5t-61 27t-62.5 18t-65.5 14.5q-68 14 -111 27q-146 -73 -143 -197z" />
<glyph unicode="&#xa8;" horiz-adv-x="1021" d="M305 1618v76h70v-76h-70zM659 1618v76h70v-76h-70z" />
<glyph unicode="&#xa9;" horiz-adv-x="1660" d="M131 717q0 151 55 284t148 226t219 146.5t264 53.5q140 0 266.5 -53.5t220 -146.5t148.5 -226t55 -284t-55 -285t-148.5 -227.5t-220 -148t-266.5 -54.5q-185 0 -342 92t-250.5 257t-93.5 366zM176 717q0 -144 51 -270t137.5 -213.5t204 -138t248.5 -50.5q132 0 250.5 50 t205.5 138t138 214t51 270q0 192 -87 345.5t-234 237.5t-324 84q-131 0 -248.5 -49.5t-204 -136t-137.5 -212t-51 -269.5zM493.5 713q-2.5 108 41.5 192q45 85 125 131.5t176 46.5q134 0 221 -73l-21 -31q-91 61 -200 61q-175 0 -258 -149q-44 -81 -43 -183t51 -180 q39 -63 105 -97t145 -34q64 0 109 16.5t104 57.5l24 -31q-51 -40 -114 -63t-123 -23q-90 0 -169 44.5t-126 123.5q-45 83 -47.5 191z" />
<glyph unicode="&#xaa;" horiz-adv-x="956" d="M162 1067q0 147 102.5 256.5t243.5 112.5q149 7 266 -41v-666h-41v82q-49 -55 -112 -80.5t-125.5 -21.5t-123.5 32t-107 74t-74.5 112.5t-28.5 139.5zM182 489v41h609v-41h-609zM205 1065q0 -65 27 -124t70.5 -101.5t100 -66.5t114 -24.5t115.5 30t101 91.5v498 q-106 36 -227 29q-131 -10 -216 -104.5t-85 -227.5z" />
<glyph unicode="&#xab;" horiz-adv-x="1013" d="M158 578l317 401h55l-321 -401l321 -396h-55zM496 578l317 401h55l-321 -401l321 -396h-55z" />
<glyph unicode="&#xac;" horiz-adv-x="1257" d="M143 782v41h899v-481h-41v440h-858z" />
<glyph unicode="&#xad;" horiz-adv-x="882" d="M152 584v41h571v-41h-571z" />
<glyph unicode="&#xae;" horiz-adv-x="1681" d="M150 717q0 152 55 285.5t148 227t219.5 147t265.5 53.5q141 0 268 -53.5t220.5 -147t148.5 -227t55 -285.5t-55 -286t-148.5 -228t-220.5 -148.5t-268 -54.5q-139 0 -265.5 54.5t-219.5 148.5t-148 228t-55 286zM193 717q0 -145 51 -272t138.5 -215t206 -138.5 t249.5 -50.5q133 0 252.5 50.5t206.5 139t138.5 215t51.5 271.5t-51.5 271t-139 213.5t-206.5 137.5t-252 50q-132 0 -250 -50t-205.5 -137.5t-138.5 -213.5t-51 -271zM633 356v731h229q103 0 171 -56t69 -150q0 -89 -69.5 -154t-192.5 -59l250 -312h-54l-241 310h-121v-310 h-41zM674 702h188q97 1 148 54.5t51 126.5q0 72 -50.5 119t-148.5 47h-188v-347z" />
<glyph unicode="&#xaf;" horiz-adv-x="1021" d="M268 1569v39h494v-39h-494z" />
<glyph unicode="&#xb0;" horiz-adv-x="782" d="M166 1231q0 90 62.5 152.5t152.5 62.5q91 0 154 -63t63 -152t-63 -152t-154 -63q-90 0 -152.5 62.5t-62.5 152.5zM203 1231q0 -71 52.5 -125.5t125.5 -54.5t125.5 54.5t52.5 125.5q0 70 -53 124t-125 54t-125 -54t-53 -124z" />
<glyph unicode="&#xb1;" horiz-adv-x="1271" d="M197 16v39h870v-39h-870zM197 756v41h405v407h43v-407h406v-41h-406v-422h-43v422h-405z" />
<glyph unicode="&#xb2;" horiz-adv-x="808" d="M129 735q161 153 281.5 270.5t148.5 143.5q57 53 74 115t-4 112.5t-75 86.5t-130 42q-152 6 -244 -110l-33 24q101 134 279 127q87 -4 152 -47.5t90.5 -105.5t6.5 -138t-89 -139l-393 -379h512v-43h-551z" />
<glyph unicode="&#xb3;" horiz-adv-x="831" d="M135 768l31 23q48 -67 105.5 -98t140.5 -31q93 0 168 57.5t75 150.5q0 95 -67 152t-160 57h-76v39h76q83 0 142 43.5t59 126.5q0 87 -65 140t-152 53q-67 0 -115 -23t-90 -78l-29 23q88 119 232 119q104 0 183 -65t79 -169q0 -66 -42.5 -121t-99.5 -67v-2 q80 -24 125 -93.5t43 -136.5q-1 -77 -44 -135t-108 -86.5t-138 -28.5q-78 0 -150 39t-123 111z" />
<glyph unicode="&#xb4;" horiz-adv-x="972" d="M408 1540l116 203h62l-135 -203h-43z" />
<glyph unicode="&#xb6;" horiz-adv-x="1138" d="M113 1040q0 75 27 144.5t78 126t134 90t185 33.5h397v-1661h-41v1622h-315v-1622h-41v884q-102 4 -185 39t-134 89t-78 119.5t-27 135.5z" />
<glyph unicode="&#xb7;" horiz-adv-x="532" d="M227 571v60h58v-60h-58z" />
<glyph unicode="&#xb8;" horiz-adv-x="1021" d="M379 -326l6 35q38 -24 93 -29.5t100.5 12.5t52.5 58q10 57 -52 87t-137 22q15 29 43.5 79t40.5 72h43l-67 -119q95 0 138 -46.5t34 -100.5q-9 -51 -54 -78.5t-112 -27.5q-69 0 -129 36z" />
<glyph unicode="&#xb9;" horiz-adv-x="583" d="M137 1395v39h174v-881h-43v842h-131z" />
<glyph unicode="&#xba;" horiz-adv-x="956" d="M199 1149q0 117 79.5 194.5t196.5 77.5q119 0 200 -78t81 -194q0 -120 -80.5 -199.5t-198.5 -79.5q-119 0 -198.5 79t-79.5 200zM213 621v43h539v-43h-539zM242 1149q0 -105 68 -172.5t167 -67.5q97 0 165.5 67.5t68.5 172.5q0 102 -68.5 167.5t-165.5 65.5 q-99 0 -167 -65.5t-68 -167.5z" />
<glyph unicode="&#xbb;" horiz-adv-x="1042" d="M178 180l322 402l-322 395h55l318 -395l-318 -402h-55zM516 180l322 402l-322 395h55l318 -395l-318 -402h-55z" />
<glyph unicode="&#xbc;" horiz-adv-x="1808" d="M166 1395v39h174v-824h-43v785h-131zM424 -47q127 265 379 787.5t379 787.5h49q-127 -265 -379 -787.5t-379 -787.5h-49zM1038 252l453 606h72v-610h94v-43h-94v-205h-45v205h-447zM1087 248h433v579z" />
<glyph unicode="&#xbd;" horiz-adv-x="1880" d="M147 1395v39h175v-824h-43v785h-132zM395 -47l758 1575h49l-758 -1575h-49zM1124 41q161 153 281.5 270.5t148.5 143.5q57 53 74 115t-4 112.5t-75 86.5t-130 42q-150 6 -243 -111l-33 25q101 134 278 127q87 -4 152 -47.5t90.5 -105.5t6.5 -138t-89 -139l-393 -379h512 v-43h-551z" />
<glyph unicode="&#xbe;" horiz-adv-x="1916" d="M90 768l31 23q48 -67 105.5 -98t140.5 -31q93 0 168 57.5t75 150.5q0 95 -67 152t-160 57h-76v39h76q83 0 142 43.5t59 126.5q0 87 -65 140t-152 53q-67 0 -115 -23t-90 -78l-29 23q88 119 232 119q104 0 183 -65t79 -169q0 -66 -42.5 -121t-99.5 -67v-2 q80 -24 125 -93.5t43 -136.5q-1 -77 -44.5 -135t-108.5 -86.5t-138 -28.5q-78 0 -149.5 39t-122.5 111zM530 -47l758 1575h49l-757 -1575h-50zM1116 252l453 606h71v-610h95v-43h-95v-205h-45v205h-446zM1165 248h432v579z" />
<glyph unicode="&#xbf;" horiz-adv-x="985" d="M147 10q1 168 113.5 279t302.5 139l4 367h39v-402q-83 -8 -157 -36t-133 -75t-93 -118t-33 -156q1 -83 34.5 -153t87 -114t118.5 -68.5t133 -24.5q196 0 301 127l31 -27q-116 -141 -332 -141q-77 0 -151.5 29t-134 80.5t-95.5 128.5t-35 165zM557 956v99h51v-99h-51z" />
<glyph unicode="&#xc0;" horiz-adv-x="2232" d="M35 4q0 114 48.5 212.5t145 161t220.5 62.5q74 0 143 -27.5t121.5 -76.5t79 -126t14.5 -167q-21 -124 -92.5 -186.5t-173.5 -65.5q-86 -3 -153 41.5t-71 130.5h39q4 -41 25 -69t52.5 -40t56 -16t51.5 -4q89 -1 149 59t74 154q11 82 -11.5 149.5t-68.5 110t-108 65.5 t-132 23q-91 0 -163.5 -37.5t-114 -96.5t-63 -124.5t-21.5 -128.5q0 -122 63.5 -225t169 -161t228.5 -58q184 0 298 103t183 296l518 1438h-244q-73 0 -129 -30t-84.5 -75.5t-33.5 -100.5t14.5 -105t69 -89.5t120.5 -52.5l-10 -37q-84 19 -140.5 66.5t-77.5 105.5 t-13.5 121.5t41 115.5t96.5 86t143 34h344l525 -1440h-49l-187 508h-661l-199 -563q-151 -426 -524 -426q-98 0 -190.5 38t-162.5 102t-112.5 155t-42.5 190zM1282 551h633l-305 850h-25zM1438 1739h61l117 -203h-43z" />
<glyph unicode="&#xc1;" horiz-adv-x="2232" d="M35 4q0 -99 42.5 -190t112.5 -155t162.5 -102t190.5 -38q373 0 524 426l199 563h661l187 -508h49l-525 1440h-344q-80 0 -143 -34t-96.5 -86t-41 -115.5t13.5 -121.5t77.5 -105.5t140.5 -66.5l10 37q-71 13 -120.5 52.5t-69 89.5t-14.5 105t33.5 100.5t84.5 75.5t129 30 h244l-518 -1438q-69 -193 -183 -296t-298 -103q-123 0 -228.5 58t-169 161t-63.5 225q0 63 21.5 128.5t63 124.5t114 96.5t163.5 37.5q70 0 132 -23t108 -65.5t68.5 -110t11.5 -149.5q-14 -94 -74 -154t-149 -59q-27 0 -51.5 4t-56 16t-52.5 40t-25 69h-39q4 -86 71 -130.5 t153 -41.5q102 3 173.5 65.5t92.5 186.5q12 90 -14.5 167t-79 126t-121.5 76.5t-143 27.5q-124 0 -220.5 -62.5t-145 -161t-48.5 -212.5zM1282 551l303 850h25l305 -850h-633zM1573 1542l117 203h61l-135 -203h-43z" />
<glyph unicode="&#xc2;" horiz-adv-x="2244" d="M47 4q0 114 48.5 212.5t145 161t220.5 62.5q74 0 143 -27.5t121.5 -76.5t79 -126t14.5 -167q-21 -124 -92.5 -186.5t-173.5 -65.5q-86 -3 -152.5 41.5t-70.5 130.5h39q4 -41 25 -69t52 -40t55.5 -16t51.5 -4q89 -1 149 59t74 154q11 82 -11.5 149.5t-68.5 110 t-107.5 65.5t-131.5 23q-74 0 -136 -25t-103 -65t-69.5 -91.5t-41.5 -103.5t-13 -102q0 -122 63.5 -225t169 -161t228.5 -58q184 0 298 103t183 296l518 1438h-243q-73 0 -129 -30t-84.5 -75.5t-33.5 -100.5t14.5 -105t69 -89.5t120.5 -52.5l-11 -37q-84 19 -140.5 66.5 t-77 105.5t-13 121.5t41 115.5t96.5 86t143 34h344l524 -1440h-49l-187 508h-661l-199 -563q-151 -426 -524 -426q-98 0 -190.5 38t-162.5 102t-112.5 155t-42.5 190zM1294 551h633l-305 850h-25zM1411 1530l168 196h53l168 -196h-47l-147 162l-148 -162h-47z" />
<glyph unicode="&#xc3;" horiz-adv-x="2222" d="M25 4q0 114 48.5 212.5t144.5 161t220 62.5q74 0 143 -27.5t122 -76.5t79.5 -126t14.5 -167q-21 -124 -93 -186.5t-174 -65.5q-86 -3 -152.5 41.5t-70.5 130.5h39q4 -41 25 -69t52 -40t55.5 -16t51.5 -4q90 -1 150 59t74 154q11 82 -11.5 149.5t-68.5 110t-108 65.5 t-132 23q-91 0 -163.5 -37.5t-114 -96.5t-63 -124.5t-21.5 -128.5q0 -122 63 -225t168.5 -161t228.5 -58q184 0 298.5 103t183.5 296l518 1438h-244q-73 0 -129 -30t-84.5 -75.5t-33.5 -100.5t14.5 -105t69 -89.5t120.5 -52.5l-10 -37q-84 19 -140.5 66.5t-77.5 105.5 t-13.5 121.5t41 115.5t96.5 86t143 34h344l524 -1440h-49l-186 508h-662l-198 -563q-151 -426 -525 -426q-131 0 -247.5 63.5t-188 176.5t-71.5 245zM1272 551h633l-306 850h-24zM1382 1585q33 76 117 76q33 0 97.5 -38t95.5 -38q52 0 90 55l22 -16q-47 -78 -116 -78 q-35 0 -98 38t-93 38q-57 0 -90 -51z" />
<glyph unicode="&#xc4;" horiz-adv-x="2232" d="M35 4q0 114 48.5 212.5t145 161t220.5 62.5q74 0 143 -27.5t121.5 -76.5t79 -126t14.5 -167q-21 -124 -92.5 -186.5t-173.5 -65.5q-86 -3 -153 41.5t-71 130.5h39q4 -41 25 -69t52.5 -40t56 -16t51.5 -4q89 -1 149 59t74 154q11 82 -11.5 149.5t-68.5 110t-108 65.5 t-132 23q-91 0 -163.5 -37.5t-114 -96.5t-63 -124.5t-21.5 -128.5q0 -122 63.5 -225t169 -161t228.5 -58q184 0 298 103t183 296l518 1438h-244q-73 0 -129 -30t-84.5 -75.5t-33.5 -100.5t14.5 -105t69 -89.5t120.5 -52.5l-10 -37q-84 19 -140.5 66.5t-77.5 105.5 t-13.5 121.5t41 115.5t96.5 86t143 34h344l525 -1440h-49l-187 508h-661l-199 -563q-151 -426 -524 -426q-98 0 -190.5 38t-162.5 102t-112.5 155t-42.5 190zM1282 551h633l-305 850h-25zM1380 1538v76h70v-76h-70zM1735 1538v76h69v-76h-69z" />
<glyph unicode="&#xc5;" horiz-adv-x="2232" d="M35 4q0 114 48.5 212.5t145 161t220.5 62.5q74 0 143 -27.5t121.5 -76.5t79 -126t14.5 -167q-21 -124 -92.5 -186.5t-173.5 -65.5q-86 -3 -153 41.5t-71 130.5h39q4 -41 25 -69t52.5 -40t56 -16t51.5 -4q89 -1 149 59t74 154q11 82 -11.5 149.5t-68.5 110t-108 65.5 t-132 23q-91 0 -163.5 -37.5t-114 -96.5t-63 -124.5t-21.5 -128.5q0 -122 63.5 -225t169 -161t228.5 -58q184 0 298 103t183 296l518 1438h-244q-73 0 -129 -30t-84.5 -75.5t-33.5 -100.5t14.5 -105t69 -89.5t120.5 -52.5l-10 -37q-84 19 -140.5 66.5t-77.5 105.5 t-13.5 121.5t41 115.5t96.5 86t143 34h344l525 -1440h-49l-187 508h-661l-199 -563q-151 -426 -524 -426q-98 0 -190.5 38t-162.5 102t-112.5 155t-42.5 190zM1282 551h633l-305 850h-25zM1489 1601q-7 33 0 65.5t38 55t75 21.5q44 1 74 -21.5t36.5 -55t-0.5 -65.5t-37 -56 t-73 -23q-45 0 -75.5 23t-37.5 56zM1522.5 1654.5q-4.5 -22.5 0.5 -45.5t26.5 -39t52.5 -16q50 0 71.5 39t1 77.5t-72.5 37.5q-32 1 -53.5 -15t-26 -38.5z" />
<glyph unicode="&#xc6;" horiz-adv-x="2666" d="M35 70q23 176 152 290.5t313 92.5q73 -9 138 -44t111.5 -92.5t63.5 -134t-6 -168.5q-35 -120 -114.5 -173.5t-180.5 -43.5q-85 7 -146 59.5t-55 139.5l39 -6q-1 -33 11.5 -59.5t30.5 -42t42.5 -26.5t43.5 -15.5t38 -6.5q90 -12 156 40.5t92 144.5q20 83 7 150t-54 116.5 t-99.5 79.5t-128.5 39q-73 9 -137.5 -8.5t-110 -52.5t-80 -83t-53 -98t-24.5 -100q-23 -184 96 -329t305 -167q127 -16 226 21t169 114t132 203l776 1485h-256q-73 0 -129.5 -30t-86 -75.5t-35.5 -100.5t12.5 -105t67.5 -89.5t120 -52.5l-15 -35q-84 19 -139.5 66t-75 105 t-10.5 121.5t44 115.5t99 85.5t144 33.5h997v-39h-631v-654h625v-36h-625v-668h631v-37h-672v535h-467l-335 -650q-201 -405 -570 -358q-97 12 -184.5 61t-149.5 121t-93 167t-19 194zM1405 573h448v826h-18z" />
<glyph unicode="&#xc7;" horiz-adv-x="1472" d="M115 711q0 116 30 224.5t90 201t144 161.5t198.5 108t247.5 40q128 0 238 -46.5t180 -139.5t70 -213q0 -94 -44 -175t-123.5 -130t-176.5 -50q-113 -2 -199 52.5t-102 162.5q-16 89 41 169.5t159 80.5h13v-39h-13q-62 -1 -101.5 -37t-51.5 -79.5t-6 -83.5q7 -49 31 -85.5 t60 -58t77.5 -31.5t87.5 -10q135 0 221 91t86 220q0 82 -39 151.5t-102.5 114.5t-142 70t-159.5 25q-193 0 -345 -85.5t-238 -244t-86 -364.5q0 -142 48.5 -267t135 -217t212.5 -145t273 -53q140 0 267.5 57.5t220.5 169.5l31 -27q-98 -119 -231 -181t-288 -62h-8l-47 -84 q95 0 138 -47t34 -101q-9 -51 -54 -78.5t-112 -27.5t-129 37l6 34q38 -24 93 -29.5t100.5 12.5t52.5 58q10 57 -51.5 87t-136.5 22q11 24 34 64t31 55q-151 8 -277 69t-210.5 158.5t-131 225t-46.5 270.5z" />
<glyph unicode="&#xc8;" horiz-adv-x="1196" d="M29.5 1147q-3.5 41 1 82t24.5 77.5t48 65t71 45.5t94 17h819v-43h-655v-652h647v-41h-649v-655h657v-43h-702v1397h-115q-64 0 -111 -31t-69 -77.5t-22.5 -100.5t20 -100.5t68.5 -77.5t114 -31v-37q-53 0 -97 17t-72.5 45.5t-48 65t-23 77.5zM614 1743h62l117 -203h-43z " />
<glyph unicode="&#xc9;" horiz-adv-x="1196" d="M29.5 1147q3.5 -41 23 -77.5t48 -65t72.5 -45.5t97 -17v37q-57 0 -101 23t-66.5 60t-32.5 81.5t1.5 89t34 81.5t66 60t98.5 23h115v-1397h702v43h-657v655h649v41h-647v652h655v43h-819q-51 0 -94 -17t-71 -45.5t-48 -65t-24.5 -77.5t-1 -82zM711 1530l116 203h62 l-135 -203h-43z" />
<glyph unicode="&#xca;" horiz-adv-x="1198" d="M31.5 1147q-3.5 41 1 82t24.5 77.5t48 65t71 45.5t94 17h820v-43h-656v-652h647v-41h-649v-655h658v-43h-703v1397h-115q-64 0 -111 -31t-69 -77.5t-22.5 -100.5t20 -100.5t68.5 -77.5t114 -31v-37q-53 0 -97 17t-72.5 45.5t-48 65t-23 77.5zM549 1540l168 197h53 l168 -197h-47l-148 162l-147 -162h-47z" />
<glyph unicode="&#xcb;" horiz-adv-x="1202" d="M35.5 1147q-3.5 41 1 82t24.5 77.5t48 65t71 45.5t94 17h820v-43h-656v-652h647v-41h-649v-655h658v-43h-703v1397h-115q-64 0 -111 -31t-69 -77.5t-22.5 -100.5t20 -100.5t68.5 -77.5t114 -31v-37q-53 0 -97 17t-72.5 45.5t-48 65t-23 77.5zM543 1544v76h69v-76h-69z M897 1544v76h70v-76h-70z" />
<glyph unicode="&#xcc;" horiz-adv-x="702" d="M46.5 1147q-3.5 41 1 82t24.5 77.5t48 65t71 45.5t94 17h161v-1434h-45v1397h-114q-64 0 -111 -31t-69 -77.5t-22.5 -100.5t20 -100.5t68.5 -77.5t114 -31v-37q-53 0 -97 17t-72.5 45.5t-48 65t-23 77.5zM266 1737h62l116 -203h-43z" />
<glyph unicode="&#xcd;" horiz-adv-x="688" d="M33.5 1147q3.5 -41 23 -77.5t48 -65t72.5 -45.5t97 -17v37q-57 0 -101 23t-66.5 60t-32.5 81.5t1.5 89t34 81.5t66 60t98.5 23h115v-1397h45v1434h-162q-51 0 -94 -17t-71 -45.5t-48 -65t-24.5 -77.5t-1 -82zM387 1534l117 203h61l-135 -203h-43z" />
<glyph unicode="&#xce;" horiz-adv-x="698" d="M44.5 1147q-3.5 41 1 82t24.5 77.5t48 65t71 45.5t94 17h161v-1434h-45v1397h-114q-64 0 -111 -31t-69 -77.5t-22.5 -100.5t20 -100.5t68.5 -77.5t114 -31v-37q-53 0 -97 17t-72.5 45.5t-48 65t-23 77.5zM225 1534l168 197h53l168 -197h-47l-147 162l-148 -162h-47z" />
<glyph unicode="&#xcf;" horiz-adv-x="698" d="M44.5 1147q-3.5 41 1 82t24.5 77.5t48 65t71 45.5t94 17h161v-1434h-45v1397h-114q-64 0 -111 -31t-69 -77.5t-22.5 -100.5t20 -100.5t68.5 -77.5t114 -31v-37q-53 0 -97 17t-72.5 45.5t-48 65t-23 77.5zM211 1534v76h70v-76h-70zM565 1534v76h70v-76h-70z" />
<glyph unicode="&#xd0;" horiz-adv-x="1599" d="M31.5 1147q-3.5 41 1 82t24.5 77.5t48 65t71 45.5t94 17h504q146 0 267.5 -49.5t200.5 -132.5t134 -191t66.5 -227t0 -237.5t-67 -226t-134.5 -190.5t-201 -131.5t-268 -48.5h-385v696h-129v39h129v662h-115q-64 0 -111 -31t-69 -77.5t-22.5 -100.5t20 -100.5t68.5 -77.5 t114 -31v-37q-53 0 -97 17t-72.5 45.5t-48 65t-23 77.5zM432 43h338q138 -1 253 45t189.5 123.5t126 179t63 213t0 223.5t-63 213.5t-125.5 180t-188.5 124.5t-250.5 46h-342v-656h307v-39h-307v-653z" />
<glyph unicode="&#xd1;" horiz-adv-x="2097" d="M45 -78q0 79 33 150.5t86 120t123.5 73t142.5 13.5q59 -8 108 -35.5t78 -66t45.5 -83.5t11.5 -90t-24.5 -83t-62.5 -64.5t-103 -32.5v37q47 6 82 28.5t50.5 53.5t19.5 68t-10 74t-38.5 69t-66 56t-92.5 32q-69 8 -133.5 -15.5t-110 -68t-73 -106t-27.5 -126.5 q0 -86 40 -167.5t112 -129.5q101 -67 241 -67q171 0 293.5 134t122.5 331v1370h-115q-64 0 -111 -31t-69 -77.5t-22.5 -100.5t20 -100.5t68.5 -77.5t114 -31v-37q-53 0 -97 17t-72.5 45.5t-48 65t-23 77.5t1 82t24.5 77.5t48 65t71 45.5t94 17h187l837 -1409h4v1409h45 v-1436h-84l-827 1395v-1366q0 -142 -64.5 -258.5t-170.5 -181t-228 -64.5q-140 0 -264 78q-76 49 -121 137t-45 184zM1186 1573q33 76 117 76q33 0 97 -38t95 -38q52 0 90 55l23 -16q-47 -78 -117 -78q-35 0 -98 38t-93 38q-57 0 -90 -51z" />
<glyph unicode="&#xd2;" d="M145 711q0 140 58 276t153.5 239t227.5 166.5t272 63.5q114 0 220 -30.5t197.5 -92.5t159.5 -149t107 -206.5t39 -258.5q0 -174 -59 -317t-159 -234.5t-230 -141t-275 -49.5q-142 0 -271 53t-226.5 147.5t-155.5 233.5t-58 300zM190 737q-8 -164 48 -303t153 -228 t218 -138.5t247 -49.5q95 0 188.5 24.5t182.5 79t157 134t109 199t41 264.5q0 141 -40.5 259t-108 197.5t-156 135t-183 80.5t-190.5 24q-175 0 -346.5 -114t-263.5 -310q128 148 313 148q164 0 272.5 -94t108.5 -250q0 -137 -83.5 -215t-192.5 -78q-93 0 -160 53.5 t-70 149.5h37q1 -56 35 -94.5t75 -52t83 -13.5q113 0 173 71.5t60 180.5q0 77 -29.5 136t-79 93t-108 51t-123.5 17q-156 0 -257.5 -104.5t-109.5 -252.5zM752 1763h61l117 -202h-43z" />
<glyph unicode="&#xd3;" d="M145 711q0 -161 58 -300t155.5 -233.5t226.5 -147.5t271 -53q145 0 275 49.5t230 141t159 234.5t59 317q0 139 -39 258.5t-107 206.5t-159.5 149t-197.5 92.5t-220 30.5q-140 0 -272 -63.5t-227.5 -166.5t-153.5 -239t-58 -276zM190 737q8 148 109.5 252.5t257.5 104.5 q65 0 123.5 -17t108 -51t79 -93t29.5 -136q0 -109 -60 -180.5t-173 -71.5q-42 0 -83 13.5t-75 52t-35 94.5h-37q3 -96 70 -149.5t160 -53.5q109 0 192.5 78t83.5 215q0 156 -108.5 250t-272.5 94q-185 0 -313 -148q92 196 263.5 310t346.5 114q96 1 190.5 -24t183 -80.5 t156 -135t108 -197.5t40.5 -259q0 -145 -41 -264.5t-109 -199t-157 -134t-182.5 -79t-188.5 -24.5q-126 0 -247 49.5t-218 138.5t-153 228t-48 303zM874 1561l117 202h62l-135 -202h-44z" />
<glyph unicode="&#xd4;" d="M145 711q0 140 58 276t153.5 239t227.5 166.5t272 63.5q114 0 220 -30.5t197.5 -92.5t159.5 -149t107 -206.5t39 -258.5q0 -174 -59 -317t-159 -234.5t-230 -141t-275 -49.5q-142 0 -271 53t-226.5 147.5t-155.5 233.5t-58 300zM190 737q-8 -164 48 -303t153 -228 t218 -138.5t247 -49.5q95 0 188.5 24.5t182.5 79t157 134t109 199t41 264.5q0 141 -40.5 259t-108 197.5t-156 135t-183 80.5t-190.5 24q-175 0 -346.5 -114t-263.5 -310q128 148 313 148q164 0 272.5 -94t108.5 -250q0 -137 -83.5 -215t-192.5 -78q-93 0 -160 53.5 t-70 149.5h37q1 -56 35 -94.5t75 -52t83 -13.5q113 0 173 71.5t60 180.5q0 77 -29.5 136t-79 93t-108 51t-123.5 17q-156 0 -257.5 -104.5t-109.5 -252.5zM690 1548l168 197h53l168 -197h-47l-147 162l-148 -162h-47z" />
<glyph unicode="&#xd5;" d="M145 711q0 140 58 276t153.5 239t227.5 166.5t272 63.5q114 0 220 -30.5t197.5 -92.5t159.5 -149t107 -206.5t39 -258.5q0 -174 -59 -317t-159 -234.5t-230 -141t-275 -49.5q-142 0 -271 53t-226.5 147.5t-155.5 233.5t-58 300zM190 737q-8 -164 48 -303t153 -228 t218 -138.5t247 -49.5q95 0 188.5 24.5t182.5 79t157 134t109 199t41 264.5q0 141 -40.5 259t-108 197.5t-156 135t-183 80.5t-190.5 24q-175 0 -346.5 -114t-263.5 -310q128 148 313 148q164 0 272.5 -94t108.5 -250q0 -137 -83.5 -215t-192.5 -78q-93 0 -160 53.5 t-70 149.5h37q1 -56 35 -94.5t75 -52t83 -13.5q113 0 173 71.5t60 180.5q0 77 -29.5 136t-79 93t-108 51t-123.5 17q-156 0 -257.5 -104.5t-109.5 -252.5zM696 1604q33 75 117 75q33 0 97.5 -37.5t95.5 -37.5q52 0 90 55l22 -17q-46 -77 -117 -77q-35 0 -97.5 37.5 t-92.5 37.5q-57 0 -90 -51z" />
<glyph unicode="&#xd6;" d="M145 711q0 140 58 276t153.5 239t227.5 166.5t272 63.5q114 0 220 -30.5t197.5 -92.5t159.5 -149t107 -206.5t39 -258.5q0 -174 -59 -317t-159 -234.5t-230 -141t-275 -49.5q-142 0 -271 53t-226.5 147.5t-155.5 233.5t-58 300zM190 737q-8 -164 48 -303t153 -228 t218 -138.5t247 -49.5q95 0 188.5 24.5t182.5 79t157 134t109 199t41 264.5q0 141 -40.5 259t-108 197.5t-156 135t-183 80.5t-190.5 24q-175 0 -346.5 -114t-263.5 -310q128 148 313 148q164 0 272.5 -94t108.5 -250q0 -137 -83.5 -215t-192.5 -78q-93 0 -160 53.5 t-70 149.5h37q1 -56 35 -94.5t75 -52t83 -13.5q113 0 173 71.5t60 180.5q0 77 -29.5 136t-79 93t-108 51t-123.5 17q-156 0 -257.5 -104.5t-109.5 -252.5zM678 1561v75h70v-75h-70zM1032 1561v75h70v-75h-70z" />
<glyph unicode="&#xd7;" horiz-adv-x="1009" d="M160 281l315 315l-309 309l29 25l307 -307l295 295l28 -25l-299 -299l310 -307l-27 -25l-307 309l-314 -317z" />
<glyph unicode="&#xd8;" d="M145 711q0 140 58 276t153.5 239t227.5 166.5t272 63.5q198 0 365 -92l110 190h47l-123 -211q149 -94 236.5 -253t87.5 -371q0 -174 -59 -317t-159 -234.5t-230 -141t-275 -49.5q-186 0 -348 89l-96 -164h-47l108 184q-151 95 -239.5 257.5t-88.5 367.5zM190 737 q-10 -204 74.5 -361.5t231.5 -250.5l184 313l53 13l-203 -347q151 -86 326 -86q95 0 188.5 24.5t182.5 79t157 134t109 199t41 264.5q0 206 -81 354t-218 236l-244 -416l-16 53l223 383q-155 86 -342 86q-175 0 -346.5 -114t-263.5 -310q128 148 313 148q164 0 272.5 -94 t108.5 -250q0 -137 -83.5 -215t-192.5 -78q-93 0 -160 53.5t-70 149.5h37q1 -56 35 -94.5t75 -52t83 -13.5q113 0 173 71.5t60 180.5q0 77 -29.5 136t-79 93t-108 51t-123.5 17q-156 0 -257.5 -104.5t-109.5 -252.5z" />
<glyph unicode="&#xd9;" horiz-adv-x="1339" d="M238 399v1035h43v-1035q0 -98 32 -172t89.5 -117t130 -64t159.5 -21q97 0 183 47t139 132t53 187q0 52 -8 88q-27 101 -110 165t-197 58q-98 -6 -160.5 -52.5t-71.5 -137.5q-2 -33 5 -65t24.5 -60.5t50.5 -46.5t78 -18v-35q-98 0 -150 65t-47 160q4 99 81 161t183 70 q104 7 196.5 -48t129.5 -144l-8 115v768h43v-1059q-3 -110 -62.5 -201.5t-153.5 -141.5t-198 -50q-94 0 -175 25.5t-144 75t-99 131t-36 185.5zM539 1737h61l117 -203h-43z" />
<glyph unicode="&#xda;" horiz-adv-x="1339" d="M238 399q0 -104 36 -185.5t99 -131t144 -75t175 -25.5q104 0 198 50t153.5 141.5t62.5 201.5v1059h-43v-768l8 -115q-37 89 -129.5 144t-196.5 48q-106 -8 -183 -70t-81 -161q-5 -95 47 -160t150 -65v35q-45 0 -78 18t-50.5 46.5t-24.5 60.5t-5 65q9 91 71.5 137.5 t160.5 52.5q114 6 197 -58t110 -165q8 -36 8 -88q0 -102 -53 -187t-139 -132t-183 -47q-87 0 -159.5 21t-130 64t-89.5 117t-32 172v1035h-43v-1035zM629 1536l116 203h62l-135 -203h-43z" />
<glyph unicode="&#xdb;" horiz-adv-x="1339" d="M238 399v1035h43v-1035q0 -98 32 -172t89.5 -117t130 -64t159.5 -21q97 0 183 47t139 132t53 187q0 52 -8 88q-27 101 -110 165t-197 58q-98 -6 -160.5 -52.5t-71.5 -137.5q-2 -33 5 -65t24.5 -60.5t50.5 -46.5t78 -18v-35q-98 0 -150 65t-47 160q4 99 81 161t183 70 q104 7 196.5 -48t129.5 -144l-8 115v768h43v-1059q-3 -110 -62.5 -201.5t-153.5 -141.5t-198 -50q-94 0 -175 25.5t-144 75t-99 131t-36 185.5zM492 1536l167 197h54l168 -197h-47l-148 162l-147 -162h-47z" />
<glyph unicode="&#xdc;" horiz-adv-x="1339" d="M238 399v1035h43v-1035q0 -98 32 -172t89.5 -117t130 -64t159.5 -21q97 0 183 47t139 132t53 187q0 52 -8 88q-27 101 -110 165t-197 58q-98 -6 -160.5 -52.5t-71.5 -137.5q-2 -33 5 -65t24.5 -60.5t50.5 -46.5t78 -18v-35q-98 0 -150 65t-47 160q4 99 81 161t183 70 q104 7 196.5 -48t129.5 -144l-8 115v768h43v-1059q-3 -110 -62.5 -201.5t-153.5 -141.5t-198 -50q-94 0 -175 25.5t-144 75t-99 131t-36 185.5zM469 1538v76h70v-76h-70zM823 1538v76h70v-76h-70z" />
<glyph unicode="&#xdd;" horiz-adv-x="1589" d="M33 1112q6 -116 91 -182.5t187 -50.5q141 26 164 149h-39q-9 -45 -44.5 -74.5t-88.5 -35.5q-97 -10 -159.5 48.5t-67.5 149.5q-7 105 58.5 185.5t164.5 99.5q108 17 199 -31.5t139 -142.5l362 -645v-555q0 -197 -122 -331t-293 -134q-141 0 -242 67q-72 48 -112 129.5 t-40 167.5q0 88 46 164.5t126.5 119.5t172.5 32q51 -8 92.5 -32t66 -56t38.5 -69t10 -74t-19.5 -68t-50.5 -53.5t-82 -28.5v-37q60 6 103 32.5t62.5 64.5t24.5 83t-11.5 90t-45.5 83.5t-78 66t-108 35.5q-72 11 -142.5 -13.5t-123.5 -73t-86 -120t-33 -150.5 q0 -96 44.5 -184t120.5 -137q124 -78 265 -78q122 0 227.5 64.5t169 181t63.5 258.5v553l484 854h-49l-455 -813l-348 630q-57 105 -164 157t-221 30q-116 -17 -189 -109.5t-67 -216.5zM981 1534l117 203h61l-135 -203h-43z" />
<glyph unicode="&#xde;" horiz-adv-x="1161" d="M246 0v1436h45v-285h327q103 0 186.5 -35.5t135.5 -94t79.5 -130.5t27.5 -150q0 -79 -27.5 -150t-79 -127t-134 -89t-185.5 -33h-330v-342h-45zM291 383h327q96 0 172 32t120.5 84.5t67.5 114.5t23 127q0 66 -23 129.5t-68 118t-121 88t-171 33.5h-327v-727z" />
<glyph unicode="&#xdf;" horiz-adv-x="1148" d="M209 0v1098q-1 159 108.5 253.5t255.5 94.5q68 0 130.5 -22.5t112 -64t79 -107t29.5 -144.5q0 -26 -1.5 -48.5t-15 -69.5t-36.5 -83.5t-72 -74t-117 -56.5v-2q82 -10 148.5 -48.5t107 -94t61.5 -117t21 -121.5q0 -100 -36.5 -179.5t-97 -127t-138 -72.5t-161.5 -22.5 t-165 28.5v43q48 -20 77.5 -25t82.5 -5q186 0 289.5 103t103.5 253q0 68 -25.5 131.5t-73.5 115t-124.5 82.5t-169.5 32h-103v45h103q75 1 135 31t94.5 76.5t51.5 100t14 107.5q0 133 -91.5 214t-212.5 81q-62 0 -117.5 -18.5t-101.5 -54.5t-73 -96.5t-27 -137.5v-1098h-45z " />
<glyph unicode="&#xe0;" horiz-adv-x="1165" d="M82 492q0 153 69 276.5t185 194.5q139 88 319 93t328 -71v-985h-41v958q-132 63 -297 56t-291 -88q-104 -67 -166.5 -180t-62.5 -254q0 -97 26.5 -179.5t77 -146t132 -100.5t184.5 -39q112 -2 203.5 88.5t91.5 214.5q0 84 -39.5 148t-96 94t-116.5 30q-66 0 -116.5 -39 t-59.5 -104h-39q6 82 68 133t149 51q126 0 209.5 -93.5t81.5 -219.5q1 -141 -103.5 -242.5t-232.5 -101.5q-114 0 -204.5 41.5t-146 113t-84 161t-28.5 190.5zM500 1423h61l117 -202h-43z" />
<glyph unicode="&#xe1;" horiz-adv-x="1163" d="M82 492q0 -101 28.5 -190.5t84 -161t146 -113t204.5 -41.5q128 0 232.5 101.5t103.5 242.5q2 126 -81.5 219.5t-209.5 93.5q-87 0 -149 -51t-68 -133h39q9 65 59.5 104t116.5 39q60 0 116.5 -30t96 -94t39.5 -148q0 -124 -91.5 -214.5t-203.5 -88.5q-103 2 -184.5 39 t-132 100.5t-77 146t-26.5 179.5q0 141 62.5 254t166.5 180q126 81 291 88t297 -56v-958h41v985q-148 76 -328 71t-319 -93q-116 -71 -185 -194.5t-69 -276.5zM596 1221l117 202h61l-135 -202h-43z" />
<glyph unicode="&#xe2;" horiz-adv-x="1165" d="M82 492q0 153 69 276.5t185 194.5q139 88 319 93t328 -71v-985h-41v958q-132 63 -297 56t-291 -88q-104 -67 -166.5 -180t-62.5 -254q0 -97 26.5 -179.5t77 -146t132 -100.5t184.5 -39q112 -2 203.5 88.5t91.5 214.5q0 84 -39.5 148t-96 94t-116.5 30q-66 0 -116.5 -39 t-59.5 -104h-39q6 82 68 133t149 51q126 0 209.5 -93.5t81.5 -219.5q1 -141 -103.5 -242.5t-232.5 -101.5q-114 0 -204.5 41.5t-146 113t-84 161t-28.5 190.5zM434 1225l168 196h53l168 -196h-47l-147 161l-148 -161h-47z" />
<glyph unicode="&#xe3;" horiz-adv-x="1165" d="M82 492q0 153 69 276.5t185 194.5q139 88 319 93t328 -71v-985h-41v958q-132 63 -297 56t-291 -88q-104 -67 -166.5 -180t-62.5 -254q0 -97 26.5 -179.5t77 -146t132 -100.5t184.5 -39q112 -2 203.5 88.5t91.5 214.5q0 84 -39.5 148t-96 94t-116.5 30q-66 0 -116.5 -39 t-59.5 -104h-39q6 82 68 133t149 51q126 0 209.5 -93.5t81.5 -219.5q1 -141 -103.5 -242.5t-232.5 -101.5q-114 0 -204.5 41.5t-146 113t-84 161t-28.5 190.5zM438 1331q33 76 117 76q33 0 97.5 -38t95.5 -38q52 0 90 55l22 -16q-47 -78 -117 -78q-35 0 -97.5 38t-92.5 38 q-57 0 -90 -51z" />
<glyph unicode="&#xe4;" horiz-adv-x="1165" d="M82 492q0 153 69 276.5t185 194.5q139 88 319 93t328 -71v-985h-41v958q-132 63 -297 56t-291 -88q-104 -67 -166.5 -180t-62.5 -254q0 -97 26.5 -179.5t77 -146t132 -100.5t184.5 -39q112 -2 203.5 88.5t91.5 214.5q0 84 -39.5 148t-96 94t-116.5 30q-66 0 -116.5 -39 t-59.5 -104h-39q6 82 68 133t149 51q126 0 209.5 -93.5t81.5 -219.5q1 -141 -103.5 -242.5t-232.5 -101.5q-114 0 -204.5 41.5t-146 113t-84 161t-28.5 190.5zM424 1311v75h70v-75h-70zM778 1311v75h70v-75h-70z" />
<glyph unicode="&#xe5;" horiz-adv-x="1165" d="M82 492q0 153 69 276.5t185 194.5q139 88 319 93t328 -71v-985h-41v958q-132 63 -297 56t-291 -88q-104 -67 -166.5 -180t-62.5 -254q0 -97 26.5 -179.5t77 -146t132 -100.5t184.5 -39q112 -2 203.5 88.5t91.5 214.5q0 84 -39.5 148t-96 94t-116.5 30q-66 0 -116.5 -39 t-59.5 -104h-39q6 82 68 133t149 51q126 0 209.5 -93.5t81.5 -219.5q1 -141 -103.5 -242.5t-232.5 -101.5q-114 0 -204.5 41.5t-146 113t-84 161t-28.5 190.5zM542 1273q-7 33 0 65.5t38 55t75 21.5q44 1 74 -21.5t36.5 -55t-0.5 -65.5t-37 -56t-73 -23q-45 0 -75.5 23 t-37.5 56zM575.5 1326.5q-4.5 -22.5 0.5 -45t26.5 -38.5t52.5 -16q50 0 71.5 38.5t1 77t-72.5 37.5q-32 1 -53.5 -15t-26 -38.5z" />
<glyph unicode="&#xe6;" horiz-adv-x="2041" d="M144 325q5 130 108 220q121 105 328 108q66 0 157 -22.5t170 -69.5v107q0 90 -29 157t-80 105.5t-112.5 57t-134.5 18.5q-158 0 -287 -88l-22 32q127 97 311 97q71 0 135.5 -18.5t119 -55t91 -99.5t45.5 -145q53 153 174.5 239t290.5 87q141 1 259.5 -71t181.5 -196.5 t48 -267.5h-948q6 -205 136.5 -348t324.5 -143q218 0 342 143l31 -29q-90 -90 -169.5 -122.5t-203.5 -32.5q-127 0 -229 56t-170 153q-54 -63 -120.5 -107.5t-130 -65t-110.5 -29t-90 -9.5q-215 -2 -332 119q-91 94 -85 220zM190 293q11 -115 110 -189q102 -75 261 -75 q102 0 224.5 54.5t203.5 149.5q-79 136 -82 283q-153 94 -325 94q-211 0 -320 -115q-83 -88 -72 -202zM950 561h912q0 86 -26 159.5t-70.5 126t-102.5 90t-122.5 56t-131.5 19.5q-191 -2 -320.5 -123.5t-138.5 -327.5z" />
<glyph unicode="&#xe7;" horiz-adv-x="1073" d="M102 512q0 154 65 278t184.5 195t271.5 72q111 0 190 -25.5t154 -93.5l-27 -29q-72 66 -146.5 86.5t-172.5 20.5q-68 1 -133.5 -17t-127.5 -57.5t-108.5 -97.5t-75 -144t-29.5 -190q0 -216 130.5 -349.5t343.5 -133.5q102 0 182 24.5t145 91.5l25 -30 q-129 -121 -326 -127l-53 -90q94 0 136.5 -43.5t33.5 -94.5q-9 -48 -53.5 -73t-110.5 -25q-70 0 -127 33l4 33q38 -22 92.5 -27t99.5 11.5t52 53.5q10 53 -50 81t-134 20l69 121q-228 6 -366 152.5t-138 373.5z" />
<glyph unicode="&#xe8;" horiz-adv-x="1230" d="M115 539q0 141 60.5 257.5t176 187t264.5 71.5q106 1 201.5 -42t163 -114.5t102 -171.5t23.5 -207h-948q6 -205 136 -348t324 -143q219 0 343 143l30 -29q-90 -90 -169.5 -122.5t-203.5 -32.5q-114 0 -211 48t-160 126.5t-98 176.5t-34 200zM158 561h911q0 86 -26 159.5 t-70.5 126t-102.5 90t-122.5 56t-131.5 19.5q-191 -2 -320 -123.5t-138 -327.5zM498 1419h61l117 -202h-43z" />
<glyph unicode="&#xe9;" horiz-adv-x="1230" d="M115 539q-1 -102 34 -200t98 -176.5t160 -126.5t211 -48q124 0 203.5 32.5t169.5 122.5l-30 29q-124 -143 -343 -143q-194 0 -324 143t-136 348h948q11 107 -23.5 207t-102 171.5t-163 114.5t-201.5 42q-149 -1 -264.5 -71.5t-176 -187t-60.5 -257.5zM158 561 q9 206 138 327.5t320 123.5q67 -1 131.5 -19.5t122.5 -56t102.5 -90t70.5 -126t26 -159.5h-911zM571 1221l117 202h62l-136 -202h-43z" />
<glyph unicode="&#xea;" horiz-adv-x="1230" d="M115 539q0 141 60.5 257.5t176 187t264.5 71.5q106 1 201.5 -42t163 -114.5t102 -171.5t23.5 -207h-948q6 -205 136 -348t324 -143q219 0 343 143l30 -29q-90 -90 -169.5 -122.5t-203.5 -32.5q-114 0 -211 48t-160 126.5t-98 176.5t-34 200zM158 561h911q0 86 -26 159.5 t-70.5 126t-102.5 90t-122.5 56t-131.5 19.5q-191 -2 -320 -123.5t-138 -327.5zM436 1214l168 197h53l168 -197h-47l-147 162l-148 -162h-47z" />
<glyph unicode="&#xeb;" horiz-adv-x="1230" d="M115 539q0 141 60.5 257.5t176 187t264.5 71.5q106 1 201.5 -42t163 -114.5t102 -171.5t23.5 -207h-948q6 -205 136 -348t324 -143q219 0 343 143l30 -29q-90 -90 -169.5 -122.5t-203.5 -32.5q-114 0 -211 48t-160 126.5t-98 176.5t-34 200zM158 561h911q0 86 -26 159.5 t-70.5 126t-102.5 90t-122.5 56t-131.5 19.5q-191 -2 -320 -123.5t-138 -327.5zM414 1309v75h69v-75h-69zM768 1309v75h70v-75h-70z" />
<glyph unicode="&#xec;" horiz-adv-x="471" d="M78 1417h61l117 -203h-43zM205 0v1040h45v-1040h-45z" />
<glyph unicode="&#xed;" horiz-adv-x="471" d="M205 0h45v1040h-45v-1040zM205 1217l117 202h61l-135 -202h-43z" />
<glyph unicode="&#xee;" horiz-adv-x="471" d="M35 1217l168 196h53l168 -196h-47l-148 161l-147 -161h-47zM205 0v1040h45v-1040h-45z" />
<glyph unicode="&#xef;" horiz-adv-x="471" d="M18 1339v76h70v-76h-70zM205 0v1040h45v-1040h-45zM373 1339v76h69v-76h-69z" />
<glyph unicode="&#xf0;" horiz-adv-x="1214" d="M111 467q2 65 22.5 128t60.5 119.5t95 99.5t132 68.5t165 24.5q55 -1 109 -13.5t114 -41.5t113.5 -85.5t89.5 -135.5q-8 207 -86 367.5t-224 254.5l-262 -172l-24 29l250 168q-169 97 -357 100q0 4 1 18t1 17q113 -2 205.5 -28.5t185.5 -84.5l191 111l25 -27l-183 -108 q121 -82 194 -203.5t98.5 -248.5t25.5 -287v-66q-1 -92 -30 -176.5t-84.5 -153.5t-147 -110t-205.5 -41q-91 0 -170.5 28.5t-135 76t-95 109t-58 129t-16.5 134.5zM156 465q-2 -75 25.5 -150.5t79 -139.5t136.5 -104t189 -40q84 0 155.5 26t121 69t83.5 99.5t49.5 117.5 t14.5 122q-2 73 -29.5 143t-78.5 128.5t-133.5 94t-182.5 35.5t-182.5 -34.5t-135 -92t-81.5 -128.5t-31 -146z" />
<glyph unicode="&#xf1;" horiz-adv-x="1241" d="M213 0v995q100 32 175 44t181 12q136 0 240.5 -45t167.5 -140t63 -229l2 -793q0 -116 50 -165t151 -52v-37q-118 -3 -182 60.5t-64 193.5v793q0 102 -36.5 177t-101 116.5t-141 60.5t-167.5 19q-168 0 -293 -43v-967h-45zM406 1290q33 76 116 76q33 0 97.5 -38t95.5 -38 q51 0 90 56l22 -17q-47 -78 -116 -78q-35 0 -98 38t-93 38q-57 0 -90 -51z" />
<glyph unicode="&#xf2;" horiz-adv-x="1277" d="M113 516q0 118 42.5 219t114 169.5t166 107.5t197.5 39q105 0 199 -38t165.5 -106t113.5 -169.5t42 -221.5q0 -304 -225 -448q36 51 45 77q139 122 139 371q0 98 -29 181.5t-77 140.5t-110.5 97.5t-129 59.5t-133.5 19q-66 0 -132 -18.5t-128.5 -58.5t-110.5 -97 t-77 -141t-29 -183q0 -121 40.5 -217.5t107 -155t145 -90t161.5 -33.5q139 -3 228.5 74t89.5 201q0 118 -68 193t-174 77q-65 2 -122 -36t-60 -109h-39q6 89 72.5 135.5t150.5 46.5q128 0 203.5 -89.5t75.5 -213.5q0 -142 -98.5 -230.5t-262.5 -84.5q-136 5 -247 69.5 t-178.5 185.5t-67.5 277zM506 1419h61l117 -202h-43z" />
<glyph unicode="&#xf3;" horiz-adv-x="1277" d="M113 516q0 -156 67.5 -277t178.5 -185.5t247 -69.5q164 -4 262.5 84.5t98.5 230.5q0 124 -75.5 213.5t-203.5 89.5q-84 0 -150.5 -46.5t-72.5 -135.5h39q3 71 60 109t122 36q106 -2 174 -77t68 -193q0 -124 -89.5 -201t-228.5 -74q-83 2 -161.5 33.5t-145 90t-107 155 t-40.5 217.5q0 99 29 183t77 141t110.5 97t128.5 58.5t132 18.5q67 0 133.5 -19t129 -59.5t110.5 -97.5t77 -140.5t29 -181.5q0 -249 -139 -371q-9 -26 -45 -77q225 144 225 448q0 120 -42 221.5t-113.5 169.5t-165.5 106t-199 38q-103 0 -197.5 -39t-166 -107.5 t-114 -169.5t-42.5 -219zM592 1214l117 203h61l-135 -203h-43z" />
<glyph unicode="&#xf4;" horiz-adv-x="1277" d="M113 516q0 118 42.5 219t114 169.5t166 107.5t197.5 39q105 0 199 -38t165.5 -106t113.5 -169.5t42 -221.5q0 -304 -225 -448q36 51 45 77q139 122 139 371q0 98 -29 181.5t-77 140.5t-110.5 97.5t-129 59.5t-133.5 19q-66 0 -132 -18.5t-128.5 -58.5t-110.5 -97 t-77 -141t-29 -183q0 -121 40.5 -217.5t107 -155t145 -90t161.5 -33.5q139 -3 228.5 74t89.5 201q0 118 -68 193t-174 77q-65 2 -122 -36t-60 -109h-39q6 89 72.5 135.5t150.5 46.5q128 0 203.5 -89.5t75.5 -213.5q0 -142 -98.5 -230.5t-262.5 -84.5q-136 5 -247 69.5 t-178.5 185.5t-67.5 277zM451 1217l167 196h54l168 -196h-47l-148 161l-147 -161h-47z" />
<glyph unicode="&#xf5;" horiz-adv-x="1277" d="M113 516q0 118 42.5 219t114 169.5t166 107.5t197.5 39q105 0 199 -38t165.5 -106t113.5 -169.5t42 -221.5q0 -304 -225 -448q36 51 45 77q139 122 139 371q0 98 -29 181.5t-77 140.5t-110.5 97.5t-129 59.5t-133.5 19q-66 0 -132 -18.5t-128.5 -58.5t-110.5 -97 t-77 -141t-29 -183q0 -121 40.5 -217.5t107 -155t145 -90t161.5 -33.5q139 -3 228.5 74t89.5 201q0 118 -68 193t-174 77q-65 2 -122 -36t-60 -109h-39q6 89 72.5 135.5t150.5 46.5q128 0 203.5 -89.5t75.5 -213.5q0 -142 -98.5 -230.5t-262.5 -84.5q-136 5 -247 69.5 t-178.5 185.5t-67.5 277zM444 1315q33 76 117 76q33 0 97.5 -38t95.5 -38q52 0 90 55l22 -16q-47 -78 -116 -78q-35 0 -98 38t-93 38q-56 0 -90 -52z" />
<glyph unicode="&#xf6;" horiz-adv-x="1277" d="M113 516q0 118 42.5 219t114 169.5t166 107.5t197.5 39q105 0 199 -38t165.5 -106t113.5 -169.5t42 -221.5q0 -304 -225 -448q36 51 45 77q139 122 139 371q0 98 -29 181.5t-77 140.5t-110.5 97.5t-129 59.5t-133.5 19q-66 0 -132 -18.5t-128.5 -58.5t-110.5 -97 t-77 -141t-29 -183q0 -121 40.5 -217.5t107 -155t145 -90t161.5 -33.5q139 -3 228.5 74t89.5 201q0 118 -68 193t-174 77q-65 2 -122 -36t-60 -109h-39q6 89 72.5 135.5t150.5 46.5q128 0 203.5 -89.5t75.5 -213.5q0 -142 -98.5 -230.5t-262.5 -84.5q-136 5 -247 69.5 t-178.5 185.5t-67.5 277zM442 1303v75h70v-75h-70zM797 1303v75h69v-75h-69z" />
<glyph unicode="&#xf7;" horiz-adv-x="1206" d="M156 651v43h856v-43h-856zM555 276v78h66v-78h-66zM555 997v76h63v-76h-63z" />
<glyph unicode="&#xf8;" horiz-adv-x="1277" d="M113 516q0 118 42.5 219t114 169.5t166 107.5t197.5 39q135 0 254 -64l90 148h43l-102 -166q108 -70 171.5 -187t63.5 -266q0 -304 -225 -448q36 51 45 77q139 122 139 371q0 143 -58.5 248t-156.5 170l-174 -285h-39l182 303q-112 62 -233 62q-66 0 -132 -18.5 t-128.5 -58.5t-110.5 -97t-77 -141t-29 -183q0 -144 54 -249t146 -167l133 219h43l-145 -237q106 -59 223 -62q139 -3 228.5 74t89.5 201q0 118 -68 193t-174 77q-65 2 -122 -36t-60 -109h-39q6 89 72.5 135.5t150.5 46.5q128 0 203.5 -89.5t75.5 -213.5 q0 -142 -98.5 -230.5t-262.5 -84.5q-139 6 -239 65l-68 -110h-39l78 129q-105 68 -165 183.5t-60 264.5z" />
<glyph unicode="&#xf9;" horiz-adv-x="1239" d="M0 1399v37q117 3 179.5 -60.5t62.5 -193.5v-754q1 -85 27 -153.5t70.5 -113t106 -74.5t128.5 -43t143 -13q159 0 266 37v970h43v-997q-128 -51 -313 -51q-81 0 -154 15t-139 48.5t-114 83.5t-76.5 124t-30.5 165v756q0 116 -49 165t-150 52zM555 1430h61l117 -203h-43z " />
<glyph unicode="&#xfa;" horiz-adv-x="1239" d="M0 1399v37q117 3 179.5 -60.5t62.5 -193.5v-754q1 -85 27 -153.5t70.5 -113t106 -74.5t128.5 -43t143 -13q159 0 266 37v970h43v-997q-128 -51 -313 -51q-81 0 -154 15t-139 48.5t-114 83.5t-76.5 124t-30.5 165v756q0 116 -49 165t-150 52zM580 1233l116 203h62 l-135 -203h-43z" />
<glyph unicode="&#xfb;" horiz-adv-x="1239" d="M0 1399v37q117 3 179.5 -60.5t62.5 -193.5v-754q1 -85 27 -153.5t70.5 -113t106 -74.5t128.5 -43t143 -13q159 0 266 37v970h43v-997q-128 -51 -313 -51q-81 0 -154 15t-139 48.5t-114 83.5t-76.5 124t-30.5 165v756q0 116 -49 165t-150 52zM461 1217l168 196h53 l168 -196h-47l-148 161l-147 -161h-47z" />
<glyph unicode="&#xfc;" horiz-adv-x="1239" d="M0 1399v37q117 3 179.5 -60.5t62.5 -193.5v-754q1 -85 27 -153.5t70.5 -113t106 -74.5t128.5 -43t143 -13q159 0 266 37v970h43v-997q-128 -51 -313 -51q-81 0 -154 15t-139 48.5t-114 83.5t-76.5 124t-30.5 165v756q0 116 -49 165t-150 52zM446 1296v76h70v-76h-70z M801 1296v76h69v-76h-69z" />
<glyph unicode="&#xfd;" horiz-adv-x="1009" d="M66 1038q370 -906 426 -1044l-99 -250q-35 -73 -67 -95.5t-115 -23.5v-37h10q86 0 133.5 29t79.5 117l510 1304h-45l-385 -991l-401 991h-47zM473 1217l117 202h61l-135 -202h-43z" />
<glyph unicode="&#xfe;" horiz-adv-x="1173" d="M213 -412v1846h45v-416q141 33 293 33q108 0 199 -36t149 -97.5t99 -141t50 -167.5t0 -176t-49.5 -167.5t-98.5 -141t-148 -98t-197 -36.5q-145 0 -297 69v-471h-45zM258 102q96 -39 161 -54t136 -15q124 0 221.5 54t148 140t74.5 190t0 208t-74.5 190t-149 139.5 t-224.5 53.5q-66 -1 -93 -2.5t-85 -9t-115 -21.5v-873z" />
<glyph unicode="&#xff;" horiz-adv-x="1009" d="M66 1038h47l401 -991l385 991h45l-510 -1304q-32 -88 -79.5 -117t-133.5 -29h-10v37q83 1 115 23.5t67 95.5l99 250q-56 138 -426 1044zM317 1331v76h70v-76h-70zM672 1331v76h69v-76h-69z" />
<glyph unicode="&#x152;" horiz-adv-x="1861" d="M139 711q0 140 58 275t153.5 237t227.5 164.5t272 62.5q25 -1 43.5 -2t29.5 -1.5t27 -3t20.5 -3.5l27 -6t30.5 -7h709v-41h-647v-647h639v-41h-642v-657h650v-41h-725q-90 -26 -162 -23q-142 0 -271 53t-226.5 147.5t-155.5 233.5t-58 300zM184 737q-8 -164 48 -303 t153 -228t218 -138.5t247 -49.5q108 3 197 29v1335q-64 18 -96.5 22.5t-100.5 6.5q-176 0 -347 -112.5t-263 -307.5q128 148 313 148q164 0 272.5 -94t108.5 -250q0 -137 -84 -215t-193 -78q-92 0 -159 53.5t-70 149.5h37q1 -43 20 -75.5t49.5 -50t61.5 -26t61 -8.5 q113 0 173.5 71.5t60.5 180.5q0 77 -29.5 136t-79 93t-108 51t-123.5 17q-156 0 -257.5 -104.5t-109.5 -252.5z" />
<glyph unicode="&#x153;" horiz-adv-x="2238" d="M123 516q0 118 42.5 219t114 169.5t166 107.5t197.5 39q176 0 310 -100t186 -279q46 174 171 276t314 103q106 1 201.5 -41t163 -113t102 -170.5t23.5 -206.5h-951q4 -133 63.5 -245t165 -179t234.5 -67q218 0 342 143l31 -29q-90 -90 -169.5 -122.5t-203.5 -32.5 q-182 0 -303.5 106t-175.5 283q-28 -114 -77 -187t-132 -122q36 51 45 77q139 122 139 371v25q-3 92 -34 171t-79 133.5t-109.5 93.5t-126.5 57t-130 18q-66 0 -132 -18.5t-128.5 -58.5t-110.5 -97t-77 -141t-29 -183q0 -121 40.5 -217.5t107.5 -155t145.5 -90t161.5 -33.5 q138 -3 227.5 74t89.5 201q0 118 -68 193t-174 77q-65 2 -122 -36t-60 -109h-39q6 89 72.5 135.5t150.5 46.5q128 0 203.5 -89.5t75.5 -213.5q0 -142 -98.5 -230.5t-262.5 -84.5q-136 5 -247 69.5t-178.5 185.5t-67.5 277zM1163 561h914q0 86 -26 159.5t-70.5 126t-102.5 90 t-122.5 56t-131.5 19.5q-191 -2 -321.5 -123.5t-139.5 -327.5z" />
<glyph unicode="&#x178;" horiz-adv-x="1589" d="M33 1112q-6 124 67 216.5t189 109.5q114 22 221 -30t164 -157l348 -630l455 813h49l-484 -854v-553q0 -142 -63.5 -258.5t-169 -181t-227.5 -64.5q-141 0 -265 78q-76 49 -120.5 137t-44.5 184q0 79 33 150.5t86 120t123.5 73t142.5 13.5q59 -8 108 -35.5t78 -66 t45.5 -83.5t11.5 -90t-24.5 -83t-62.5 -64.5t-103 -32.5v37q47 6 82 28.5t50.5 53.5t19.5 68t-10 74t-38.5 69t-66 56t-92.5 32q-92 11 -172.5 -32t-126.5 -119.5t-46 -164.5q0 -86 40 -167.5t112 -129.5q101 -67 242 -67q171 0 293 134t122 331v555l-362 645 q-48 94 -139 142.5t-199 31.5q-99 -19 -164.5 -99.5t-58.5 -185.5q5 -91 67.5 -149.5t159.5 -48.5q53 6 88.5 35.5t44.5 74.5h39q-23 -123 -164 -149q-102 -16 -187 50.5t-91 182.5zM803 1530v76h69v-76h-69zM1157 1530v76h70v-76h-70z" />
<glyph unicode="&#x2c6;" horiz-adv-x="1021" d="M315 1540l168 197h54l168 -197h-48l-147 162l-148 -162h-47z" />
<glyph unicode="&#x2dc;" horiz-adv-x="931" d="M246 1624q33 76 116 76q33 0 97.5 -38t95.5 -38q52 0 90 55l23 -16q-47 -78 -117 -78q-35 0 -98 38t-93 38q-57 0 -90 -51z" />
<glyph unicode="&#x2000;" horiz-adv-x="881" />
<glyph unicode="&#x2001;" horiz-adv-x="1763" />
<glyph unicode="&#x2002;" horiz-adv-x="881" />
<glyph unicode="&#x2003;" horiz-adv-x="1763" />
<glyph unicode="&#x2004;" horiz-adv-x="587" />
<glyph unicode="&#x2005;" horiz-adv-x="440" />
<glyph unicode="&#x2006;" horiz-adv-x="293" />
<glyph unicode="&#x2007;" horiz-adv-x="293" />
<glyph unicode="&#x2008;" horiz-adv-x="220" />
<glyph unicode="&#x2009;" horiz-adv-x="352" />
<glyph unicode="&#x200a;" horiz-adv-x="97" />
<glyph unicode="&#x2010;" horiz-adv-x="917" d="M207 618v46h504v-46h-504z" />
<glyph unicode="&#x2011;" horiz-adv-x="917" d="M207 618v46h504v-46h-504z" />
<glyph unicode="&#x2012;" horiz-adv-x="917" d="M207 618v46h504v-46h-504z" />
<glyph unicode="&#x2013;" horiz-adv-x="1406" d="M215 555v43h979v-43h-979z" />
<glyph unicode="&#x2014;" horiz-adv-x="1755" d="M190 530v88h1371v-88h-1371zM215 555h1321v39h-1321v-39z" />
<glyph unicode="&#x2018;" horiz-adv-x="464" d="M154 1083l122 351h39l-102 -351h-59z" />
<glyph unicode="&#x2019;" horiz-adv-x="436" d="M156 1083l94 351h53l-110 -351h-37z" />
<glyph unicode="&#x201a;" horiz-adv-x="475" d="M113 -229l108 317h55l-124 -317h-39z" />
<glyph unicode="&#x201c;" horiz-adv-x="604" d="M131 1083l123 351h39l-103 -351h-59zM319 1083l123 351h39l-102 -351h-60z" />
<glyph unicode="&#x201d;" horiz-adv-x="581" d="M152 1081l102 351h59l-123 -351h-38zM340 1081l102 351h60l-123 -351h-39z" />
<glyph unicode="&#x201e;" horiz-adv-x="669" d="M113 -229l108 317h55l-124 -317h-39zM338 -229l108 317h56l-125 -317h-39z" />
<glyph unicode="&#x2022;" horiz-adv-x="733" d="M178 596q0 80 54 136t133 56q76 0 130 -56t54 -136t-54 -136.5t-130 -56.5q-79 0 -133 56.5t-54 136.5z" />
<glyph unicode="&#x2026;" horiz-adv-x="1124" d="M193 0v92h69v-92h-69zM537 0v92h69v-92h-69zM887 0v92h69v-92h-69z" />
<glyph unicode="&#x202f;" horiz-adv-x="352" />
<glyph unicode="&#x2039;" horiz-adv-x="698" d="M158 578l317 401h55l-321 -401l321 -396h-55z" />
<glyph unicode="&#x203a;" horiz-adv-x="708" d="M166 182l321 396l-321 401h55l318 -401l-318 -396h-55z" />
<glyph unicode="&#x205f;" horiz-adv-x="440" />
<glyph unicode="&#x20ac;" horiz-adv-x="1302" d="M127 592l10 39h111q-4 50 -3 113t7 92h-119l10 36h113q12 115 61 214.5t122 169t168 116t196 62.5t209 0t205 -64l-17 -37q-93 45 -195 59.5t-196.5 0t-183 -58t-156.5 -108t-114 -156.5t-58 -198h625l-9 -36h-620q-15 -101 -4 -205h581l-10 -39h-565 q44 -254 208.5 -409.5t414.5 -155.5q175 0 321 86l14 -35q-165 -92 -335 -92q-138 0 -255.5 48t-200 131.5t-136.5 192.5t-74 234h-125z" />
<glyph unicode="&#x2122;" horiz-adv-x="1691" d="M109 1399v35h479v-35h-221v-787h-43v787h-215zM737 612v822h76l322 -590l321 590h78v-822h-43v795h-2l-332 -608h-45l-332 608h-2v-795h-41z" />
<glyph unicode="&#xe000;" horiz-adv-x="1034" d="M0 0v1034h1034v-1034h-1034z" />
</font>
</defs>
</svg>
