<?xml version="1.0" standalone="no"?>
<!DOCTYPE svg PUBLIC "-//W3C//DTD SVG 1.1//EN" "http://www.w3.org/Graphics/SVG/1.1/DTD/svg11.dtd" >
<svg xmlns="http://www.w3.org/2000/svg">
<metadata></metadata>
<defs>
<font id="solomon_normal_decoregular" horiz-adv-x="1173" >
<font-face units-per-em="2048" ascent="1536" descent="-512" />
<missing-glyph horiz-adv-x="526" />
<glyph unicode="&#xfb01;" horiz-adv-x="1054" d="M-20 -246q102 -8 157.5 35.5t55.5 130.5v971h-103v147h103v88q0 166 103.5 247t268.5 63v-142q-102 6 -157.5 -37.5t-55.5 -130.5v-88h549v-1038h-162v891h-387v-971q0 -164 -103.5 -244.5t-268.5 -62.5v141zM737 1253h166v189h-166v-189z" />
<glyph unicode="&#xfb02;" horiz-adv-x="1087" d="M-23 -246q102 -8 157.5 35.5t55.5 130.5v965h-102v147h102v94q0 166 104 247t269 63v-142q-102 6 -157.5 -37.5t-55.5 -130.5v-94h205v-147h-205v-965q0 -164 -104 -244.5t-269 -62.5v141zM725 305q0 -170 84 -248t244 -61v141q-96 -7 -131 33.5t-35 134.5v1139h-162 v-1139z" />
<glyph unicode="&#xfb03;" horiz-adv-x="1671" d="M-27 -246q102 -8 157.5 35.5t55.5 130.5v967h-102v137h102v102q0 166 104 247t269 63v-142q-102 6 -157.5 -37.5t-55.5 -130.5v-102h453v102q0 166 103.5 247t268.5 63v-142q-102 6 -157.5 -37.5t-55.5 -130.5v-102h562v-1024h-162v887h-400v-967q0 -164 -103.5 -244.5 t-268.5 -62.5v141q102 -8 157.5 35.5t55.5 130.5v967h-453v-967q0 -164 -104 -244.5t-269 -62.5v141zM1356 1253h166v189h-166v-189z" />
<glyph unicode="&#xfb04;" horiz-adv-x="1720" d="M-27 -246q102 -8 157.5 35.5t55.5 130.5v967h-102v137h102v102q0 166 104 247t269 63v-142q-102 6 -157.5 -37.5t-55.5 -130.5v-102h453v102q0 166 103.5 247t268.5 63v-142q-102 6 -157.5 -37.5t-55.5 -130.5v-102h201v-137h-201v-967q0 -164 -103.5 -244.5 t-268.5 -62.5v141q102 -8 157.5 35.5t55.5 130.5v967h-453v-967q0 -164 -104 -244.5t-269 -62.5v141zM1358 305q0 -170 84 -248t244 -61v141q-96 -7 -131 33.5t-35 134.5v1139h-162v-1139z" />
<glyph horiz-adv-x="2048" />
<glyph horiz-adv-x="2048" />
<glyph unicode="&#xd;" horiz-adv-x="2048" />
<glyph unicode=" "  horiz-adv-x="526" />
<glyph unicode="&#x09;" horiz-adv-x="526" />
<glyph unicode="&#xa0;" horiz-adv-x="526" />
<glyph unicode="!" horiz-adv-x="632" d="M223 1434h187l-9 -1086h-168zM225 0v211h185v-211h-185z" />
<glyph unicode="&#x22;" horiz-adv-x="700" d="M129 1061v395h162v-395h-162zM410 1061v395h161v-395h-161z" />
<glyph unicode="#" horiz-adv-x="1206" d="M109 420l4 153h206l43 287h-184l4 156h205l66 418h151l-63 -418h260l65 418h148l-64 -418h168l-4 -156h-188l-45 -287h166l-5 -153h-186l-65 -418h-146l64 418h-260l-68 -418h-150l64 418h-186zM473 573h260l43 287h-260z" />
<glyph unicode="$" horiz-adv-x="1130" d="M98 272l133 70q40 -103 129.5 -165t198.5 -62q129 -2 209.5 62t87.5 179q3 44 -6.5 82t-24.5 64.5t-44 50.5t-52.5 38t-62 29t-61.5 21.5t-62 17.5q-48 13 -84.5 25t-82 31.5t-78.5 41t-66 53.5t-53.5 69.5t-33 88t-10.5 109.5q2 82 31.5 151t78 115t109.5 75.5t131 39.5 v187h150v-185q121 -18 217 -88.5t139 -185.5l-129 -64q-38 91 -120 141t-175 52q-107 0 -184 -62.5t-84 -183.5q-2 -38 7.5 -71t23.5 -55.5t41 -43.5t48 -32.5t57.5 -24.5t55 -18.5t54.5 -14.5q76 -19 132 -39t118.5 -56.5t101 -83t62.5 -119t20 -163.5q-4 -84 -37 -153.5 t-87 -115t-120 -73t-141 -37.5v-186h-150v186q-128 18 -233 96t-154 207z" />
<glyph unicode="%" horiz-adv-x="1708" d="M94 1110q0 146 103.5 248t248.5 102t249 -102t104 -248q0 -144 -104 -246t-249 -102t-248.5 102t-103.5 246zM238 1110q0 -90 60.5 -153.5t147.5 -63.5q88 0 148.5 63.5t60.5 153.5q0 91 -60 155t-149 64q-87 0 -147.5 -64t-60.5 -155zM307 -76l928 1596h176l-930 -1596 h-174zM901 324q0 145 104 246.5t250 101.5q145 0 249 -102t104 -246t-104 -246.5t-249 -102.5q-146 0 -250 102t-104 247zM1049 324q0 -90 59.5 -152.5t146.5 -62.5q86 0 145.5 62.5t59.5 152.5t-59.5 154.5t-145.5 64.5q-87 0 -146.5 -64.5t-59.5 -154.5z" />
<glyph unicode="&#x26;" horiz-adv-x="1335" d="M109 401q0 62 16.5 115.5t40 92t65 77t76.5 63t88 58.5q-68 81 -107.5 155.5t-39.5 159.5q0 102 51.5 179.5t132.5 116t176 38.5q132 0 230 -89t98 -224q0 -57 -16.5 -106.5t-41 -85t-65 -70t-75.5 -56t-85 -49.5l279 -303q44 76 102 178l142 -73l-134 -232l256 -291 h-215l-133 154q-87 -112 -184 -168.5t-227 -56.5q-184 0 -307 114.5t-123 302.5zM274 406q0 -117 81 -189t200 -72q155 0 289 183l-344 366q-38 -24 -64.5 -42.5t-59.5 -48t-53.5 -57t-34.5 -64.5t-14 -76zM418 1124q0 -55 35.5 -113.5t93.5 -127.5q39 21 62 34t59 39t56 50 t36 58.5t16 72.5q0 71 -50.5 117t-123.5 46q-77 0 -130.5 -50t-53.5 -126z" />
<glyph unicode="'" horiz-adv-x="415" d="M127 1061v395h162v-395h-162z" />
<glyph unicode="(" horiz-adv-x="778" d="M143 721q0 313 168 599.5t441 430.5v-188q-135 -80 -237 -220.5t-153 -301.5t-51 -320q0 -158 51 -318.5t153 -301t237 -220.5v-188q-273 144 -441 430t-168 598z" />
<glyph unicode=")" horiz-adv-x="776" d="M25 -119q134 81 235.5 221t153 300.5t51.5 318.5q0 159 -51.5 320t-153 301t-235.5 221v188q180 -95 318.5 -259t213 -364.5t74.5 -406.5q0 -205 -74.5 -405t-213 -364t-318.5 -259v188z" />
<glyph unicode="*" horiz-adv-x="942" d="M70 1102l45 135l278 -94l-2 295h144l-7 -295l281 94l45 -135l-285 -88l181 -238l-119 -84l-170 244l-170 -244l-117 84l178 238z" />
<glyph unicode="+" horiz-adv-x="1314" d="M158 594v162h430v418h157v-418h412v-162h-412v-422h-157v422h-430z" />
<glyph unicode="," horiz-adv-x="518" d="M45 -223l133 442h189l-168 -442h-154z" />
<glyph unicode="-" horiz-adv-x="917" d="M184 557v162h553v-162h-553z" />
<glyph unicode="." horiz-adv-x="520" d="M156 -4v223h204v-223h-204z" />
<glyph unicode="/" horiz-adv-x="843" d="M55 -133l590 1726h172l-588 -1726h-174z" />
<glyph unicode="0" horiz-adv-x="1230" d="M127 406v628q0 103 40.5 186t108.5 134.5t152.5 79t177.5 28.5q75 1 147 -15t135.5 -50.5t111.5 -84.5t76 -121.5t28 -156.5v-628q0 -132 -68.5 -232t-178 -149.5t-239.5 -49.5q-98 -1 -186.5 28t-156.5 82.5t-108 136.5t-40 184zM295 406q0 -84 47.5 -149t119.5 -96.5 t154 -31.5q147 0 238 109.5t55 253.5q-21 84 -89.5 127.5t-143.5 33.5q-53 -6 -88 -34.5t-39 -73.5q-5 -48 23 -77t77 -28v-164q-52 -3 -100 17q-79 33 -119.5 105t-34.5 161q7 99 82.5 170.5t177.5 85.5q117 18 217 -40t154 -167l8 4q-22 112 -98 185v237q0 85 -49 149.5 t-122.5 95.5t-156.5 30q-128 -2 -220.5 -75.5t-92.5 -199.5v-628z" />
<glyph unicode="1" horiz-adv-x="647" d="M96 1276v160h357v-1436h-168v1276h-189z" />
<glyph unicode="2" horiz-adv-x="1144" d="M111 127l647 655q73 74 96.5 164t-1 165.5t-98 129t-180.5 57.5q-101 3 -188.5 -46t-101.5 -144q-9 -69 30 -128.5t107 -74.5q76 -14 137 28t51 118h148q14 -86 -32 -159.5t-130.5 -110t-179.5 -25.5q-98 12 -172 69.5t-106.5 140.5t-16.5 171q27 154 162.5 243.5 t296.5 83.5q101 -3 187.5 -41.5t145 -99t89.5 -141.5t29.5 -167t-42 -178t-119.5 -171l-501 -508h659v-156h-868z" />
<glyph unicode="3" horiz-adv-x="1124" d="M100 299q-12 126 69.5 228.5t213.5 117.5q91 12 173.5 -21.5t130 -106.5t34.5 -167h-137q6 51 -22.5 88.5t-75 51.5t-93.5 4q-61 -12 -103 -66.5t-36 -114.5q6 -53 36 -92.5t74.5 -61t93.5 -32t101 -10.5q112 2 199.5 85.5t83.5 215.5q-10 289 -359 317v131q60 2 107 10 t95 28.5t74 61.5t25 101q-4 113 -80.5 176.5t-181.5 63.5q-89 0 -170.5 -47.5t-118.5 -131.5l-122 72q49 125 159 193.5t238 68.5q80 0 156 -25t140 -72t104.5 -124.5t43.5 -173.5q1 -88 -46 -162t-122 -108q217 -100 224 -381q3 -102 -34.5 -187.5t-101.5 -141.5t-145 -87 t-168 -33q-82 -1 -158.5 18.5t-141 58.5t-107.5 105t-52 150z" />
<glyph unicode="4" horiz-adv-x="1097" d="M45 422l678 1014h176v-1008h115v-156h-115v-272h-168v272h-575zM244 430l487 -2l4 768z" />
<glyph unicode="5" horiz-adv-x="1171" d="M119 360q0 109 57 190.5t162 119.5q75 31 164 17t147 -71q83 -86 80 -202h-151q0 46 -29 78q-30 32 -76.5 41t-85.5 -7q-115 -47 -115 -166q0 -74 46.5 -127.5t113.5 -76t143 -19.5q106 5 183.5 54.5t113.5 123.5t35 160q0 85 -33 152t-86.5 107t-123 61t-142.5 20 t-145.5 -22t-130.5 -60l-90 -4l106 707h717v-150h-582l-55 -366q98 41 203 46t198 -27.5t167.5 -93.5t118.5 -158t44 -214q0 -94 -32.5 -181t-93.5 -157.5t-158.5 -112.5t-217.5 -42q-85 0 -164.5 24.5t-144 70.5t-104 120t-39.5 165z" />
<glyph unicode="6" horiz-adv-x="1214" d="M119 471q0 147 82 277l426 686h194l-305 -494q62 8 100 8q100 0 183.5 -27t141 -72.5t97 -107t58 -129.5t18.5 -141q0 -93 -32 -180t-92.5 -157t-157.5 -112t-216 -42t-215.5 42t-156.5 112t-92.5 157t-32.5 180zM285 473q0 -86 36 -161t113 -125t182 -50q106 0 183.5 50 t113.5 125t35 161q0 62 -21.5 118.5t-62 102t-105 72.5t-143.5 27q-139 0 -234.5 -90t-96.5 -230z" />
<glyph unicode="7" horiz-adv-x="1005" d="M72 1274v164h846l55 -115l-690 -1323h-191l670 1274h-690z" />
<glyph unicode="8" horiz-adv-x="1181" d="M117 414q-1 118 51 210t147 152q-141 101 -141 297q0 91 35 166t93.5 122.5t131.5 73t152 25.5q107 0 199 -43t152 -133t60 -211q0 -89 -34.5 -168t-104.5 -129q95 -61 147.5 -152.5t51.5 -209.5q-1 -138 -70.5 -241t-174.5 -152.5t-226 -49.5q-89 0 -171.5 29.5t-149 84 t-107 140t-41.5 189.5zM290 365q5 -48 29.5 -91t59 -76t88.5 -52.5t119 -18.5q66 1 121 21t90.5 53.5t60 76.5t30 90.5t0 95t-30.5 90.5t-60.5 76t-90.5 52.5t-120 19.5q-64 0 -118 -20t-88.5 -53.5t-59 -76.5t-30 -91t-0.5 -96zM344.5 1075.5q0.5 -59.5 26.5 -110.5 t82.5 -85t132.5 -34q77 0 134 34t83 85t26.5 110.5t-24.5 110.5t-82.5 85t-136.5 34q-78 0 -135 -34t-82 -85t-24.5 -110.5z" />
<glyph unicode="9" horiz-adv-x="1218" d="M104 961q0 93 32 180t92.5 157t157.5 112t216 42t215.5 -42t157 -112t93 -157t32.5 -180q0 -147 -82 -277l-426 -686h-195l305 494q-70 -9 -100 -9q-124 0 -222 41t-157 109.5t-89 152t-30 175.5zM270 958q0 -62 21.5 -118.5t62 -101.5t105 -72t143.5 -27q140 0 235.5 90 t96.5 229q0 63 -21.5 122.5t-62 107.5t-105 77t-143.5 29q-106 0 -183.5 -50t-113.5 -125t-35 -161z" />
<glyph unicode=":" horiz-adv-x="598" d="M188 -4v223h205v-223h-205zM188 791v223h205v-223h-205z" />
<glyph unicode=";" horiz-adv-x="600" d="M78 -246l133 443h188l-168 -443h-153zM188 791v223h205v-223h-205z" />
<glyph unicode="&#x3c;" horiz-adv-x="1013" d="M74 524v123l821 436v-184l-627 -313l627 -312v-178z" />
<glyph unicode="=" horiz-adv-x="1280" d="M197 291v162h886v-162h-886zM197 690v162h886v-162h-886z" />
<glyph unicode="&#x3e;" horiz-adv-x="1011" d="M121 96v185l627 305l-627 311v186l821 -436v-123z" />
<glyph unicode="?" horiz-adv-x="1064" d="M43 1270l18 22q67 87 173.5 132.5t224.5 45.5q90 0 173 -28t148.5 -80.5t105 -135.5t38.5 -184q-1 -182 -111 -299.5t-293 -150.5l-14 -295h-146l-12 424q104 1 198 41.5t153 115.5t57 166q-3 123 -92.5 198t-208.5 75q-83 0 -161.5 -38t-129.5 -101zM350 2v191h178v-191 h-178z" />
<glyph unicode="@" horiz-adv-x="1644" d="M123 444q2 114 35 224.5t98 208.5t153.5 173t209.5 118.5t258 43.5q144 0 270.5 -46.5t216.5 -127t142.5 -192.5t52.5 -238q0 -121 -42 -232t-109 -189t-153 -124.5t-172 -46.5q-53 0 -90.5 30.5t-40.5 96.5q-36 -58 -101 -88t-136 -30q-115 0 -197 93.5t-82 211.5 q0 85 20 168t60 157t95.5 131t132 90t163.5 33q64 0 125 -37.5t72 -101.5l29 72l161 -6l-178 -553q-23 -67 -19 -87q4 -22 31 -22q59 0 124 66t108 168.5t43 199.5q0 155 -86 264l-4 7q-71 89 -186 137.5t-246 48.5q-134 0 -249 -54.5t-190 -143t-118 -199t-45 -226.5 q-1 -87 17.5 -166t60.5 -150t105 -123.5t157 -83t210 -30.5q104 0 211 43l70 -131q-147 -57 -281 -57q-147 0 -267 39t-201 105t-136 156t-79 190.5t-23 209.5zM592 334q0 -69 38 -112.5t101 -43.5q78 0 149.5 68.5t110.5 161.5t39 174t-34 127.5t-97 46.5q-60 1 -112 -26 t-87 -71.5t-60 -100.5t-36.5 -113.5t-11.5 -110.5z" />
<glyph unicode="A" horiz-adv-x="2242" d="M22 111q18 115 82 211q77 112 218 166q82 31 161 31q56 0 111 -15q148 -44 232 -164q67 -96 67 -213q0 -29 -4 -59q-19 -136 -133 -222q-86 -65 -184 -65q-31 0 -64 6q-64 12 -118 56t-79 104q-16 42 -16 83v13l168 -2q-1 -32 22 -60t54 -34q17 -3 33 -3q48 0 86 32 q50 44 61 112q4 22 4 43q0 63 -38 115q-51 70 -140 94q-34 8 -67 8q-50 0 -98 -18q-80 -32 -132 -105q-63 -89 -63 -189q0 -13 1 -26q9 -115 88 -207q70 -81 167 -113q60 -20 123 -20q40 0 81 8q245 47 344 328l457 1268l-178 2q-84 0 -140 -66q-40 -47 -40 -104 q0 -23 6 -47q15 -56 56.5 -89t98.5 -38l-49 -135q-88 9 -158.5 67.5t-95.5 143.5q-14 49 -14 97q0 55 18 109q36 100 121.5 160t192.5 60h446l520 -1434h-178l-168 459h-553l-186 -520q-62 -173 -182 -288t-291 -143q-49 -8 -97 -8q-97 0 -189 32q-138 46 -239 155 q-78 85 -110 197q-21 72 -21 146q0 40 6 81zM1382 614h449l-223 660z" />
<glyph unicode="B" horiz-adv-x="1400" d="M1 1062q-6 29 -6 58q0 36 10 74q18 66 54 121t103 89t151 34h486q115 0 210 -44.5t153.5 -132.5t58.5 -202q0 -177 -150 -289q117 -58 167 -146q49 -85 49 -203q0 -5 -1 -9q0 -84 -25.5 -152.5t-70 -116t-106.5 -79.5t-134 -47t-153 -15h-428v1288h-50q-43 0 -78.5 -18 t-55.5 -48q-21 -28 -31 -64q-7 -23 -6 -46q0 -14 2 -26q6 -36 22 -65.5t50 -49t79 -21.5v-135q-86 0 -153 34.5t-100 89.5t-47 121zM539 158h260q77 0 139 22.5t100 59.5q40 38 60 85q20 46 20 95q0 51 -22 99q-20 47 -58.5 84.5t-100.5 60t-138 22.5h-191v150h191 q119 0 185 61t69 154v5q0 92 -65 158q-67 68 -189 68h-260v-1124z" />
<glyph unicode="C" horiz-adv-x="1472" d="M98 717v9q0 182 82 348q84 170 238 272q108 72 252 101q75 15 150 15q70 0 142 -13q148 -27 248 -112q95 -79 136 -197q23 -66 23 -130q0 -52 -15 -103q-44 -139 -163 -219q-95 -64 -209 -65q-28 0 -58 4q-109 14 -186.5 81.5t-94.5 165.5q-5 27 -5 54q0 66 32 126 q44 85 133 120q45 16 85 16h13v-152q-54 0 -81 -42q-21 -32 -21 -73q0 -12 2 -24q7 -48 45 -79t96 -40q21 -3 41 -4q66 0 122 38q73 50 95 136q10 35 10 68q0 36 -12 72q-22 68 -78 120q-77 70 -194 90q-49 8 -96 8q-68 0 -134 -16q-112 -28 -194 -88q-114 -82 -174 -212.5 t-60 -274.5q0 -89 23 -174.5t70 -160.5t112.5 -132t157.5 -90t198 -33q126 0 244.5 56t198.5 153l121 -100q-103 -124 -250.5 -194.5t-313.5 -70.5q-139 0 -258.5 41.5t-205 113.5t-147 167t-91 203t-29.5 221z" />
<glyph unicode="D" horiz-adv-x="1656" d="M14 1038q-6 38 -6 77q0 53 12 107q22 92 104.5 156t199.5 64h495q146 0 281.5 -57t234.5 -153.5t158 -231t59 -281.5t-59 -280.5t-157 -229.5t-232.5 -152.5t-280.5 -56.5h-446v1292l-49 2q-43 0 -79 -18.5t-55.5 -48t-30.5 -65.5q-7 -23 -7 -46q0 -13 2 -25 q6 -36 22 -66t50 -49.5t79 -21.5v-135q-120 0 -199.5 63.5t-95.5 155.5zM547 156h274q114 0 217.5 45t178 121t119 180t44.5 217q0 114 -45 219t-120 181t-178 121.5t-214 45.5h-276v-1130z" />
<glyph unicode="E" horiz-adv-x="1234" d="M-5 1056q-6 29 -6 58q0 36 10 74q18 66 54 121.5t103 90t151 34.5h823v-150h-598v-487h590v-158h-590v-485h598v-154h-768v1284l-49 2q-43 0 -78.5 -18.5t-55.5 -47.5q-21 -30 -31 -66q-7 -23 -6 -45q0 -13 2 -26q6 -36 22 -66t50 -49.5t79 -21.5v-135q-86 0 -153 34.5 t-100 89.5t-47 121z" />
<glyph unicode="F" horiz-adv-x="1673" d="M0 72q42 146 162 230q96 67 210 67q28 0 58 -4q134 -19 219 -131q65 -85 64 -182q0 -31 -6 -62q-19 -94 -95 -154q-72 -57 -163 -57h-9v153q37 0 68.5 25.5t40.5 60.5q5 21 5 41q0 46 -30 82q-43 51 -114 64q-22 4 -42 4q-64 1 -118 -39q-72 -52 -96 -143 q-10 -37 -10 -72q0 -49 19 -97q32 -81 107 -134q91 -64 194 -64q12 0 24 1q116 8 210 89q131 114 131 303v1233l-49 2q-43 0 -78.5 -18.5t-55 -48t-30.5 -65.5q-7 -22 -7 -44q1 -13 3 -27q6 -36 22 -66t49.5 -49.5t78.5 -21.5v-135q-119 0 -198 64q-79 63 -95 155 q-7 39 -7 79q0 53 12 105q22 92 104 156t198 64h821v-158h-596v-487h588v-158h-588v-580q0 -115 -53 -228.5t-139 -193.5q-127 -117 -307 -129q-19 -1 -38 -1q-157 0 -284 87q-114 78 -166 216q-30 80 -30 157q0 56 16 111z" />
<glyph unicode="G" horiz-adv-x="1660" d="M100 715q0 141 48 273t137.5 238t231 170t314.5 64q167 0 314 -69t248 -191l-119 -100q-79 95 -198 150t-245 55q-132 0 -241 -51.5t-178 -136t-106.5 -189t-37.5 -213.5q0 -110 37.5 -213.5t106.5 -187.5t178 -134.5t241 -50.5q125 0 243 54t200.5 157t95.5 231h-641 v156h827q0 -154 -52.5 -292t-146 -240.5t-230 -162t-296.5 -59.5q-139 0 -258.5 41.5t-205 112.5t-146.5 165.5t-90.5 202t-30.5 220.5z" />
<glyph unicode="H" horiz-adv-x="2035" d="M14 74q42 144 162 228q96 67 210 67q29 0 58 -4q120 -15 204 -111q80 -91 79 -204v-11q-6 -110 -82 -187q-71 -71 -172 -71h-16v153h3q48 0 76 30q28 31 31 77v8q-1 55 -39 99q-42 46 -102 57q-22 4 -43 4q-65 1 -119 -39q-72 -52 -94 -143q-10 -36 -10 -72q0 -48 18 -95 q32 -81 107 -136q93 -64 195 -64q12 0 24 1q116 8 209 89q133 116 133 305v1233h-51q-60 0 -103 -34t-56 -84q-9 -33 -9 -65q1 -16 3 -33q6 -49 46 -84.5t102 -37.5v-137q-86 0 -152.5 34.5t-99.5 88.5q-34 56 -48 122q-6 29 -6 58q0 37 10 74q18 66 54.5 121t103.5 90 t151 35h225v-643h655v643h170v-1434h-170v639h-655v-586q0 -115 -52.5 -229t-140.5 -195q-127 -116 -307 -127q-18 -1 -36 -1q-158 0 -285 87q-111 76 -165 215q-31 81 -32 159q0 56 16 110z" />
<glyph unicode="I" horiz-adv-x="720" d="M0 1040q-7 39 -7 78q1 52 13 104q22 92 103.5 156t197.5 64h223v-1440h-168v1292h-51q-43 0 -78.5 -18t-54.5 -48q-20 -28 -31 -64q-7 -22 -7 -45q0 -13 2 -27q6 -36 22.5 -65.5t50 -49t78.5 -21.5v-135q-119 0 -198 64t-95 155z" />
<glyph unicode="J" horiz-adv-x="1177" d="M12 522q42 146 162 230q96 67 210 67q28 0 58 -4q87 -12 157.5 -66t104.5 -135q23 -55 23 -112q0 -29 -6 -58q-19 -95 -96 -157q-72 -58 -161 -58h-11v154q35 0 67.5 27.5t40.5 62.5q4 17 4 33q0 46 -31 84q-43 53 -112 65q-20 3 -39 3q-66 0 -121 -40q-72 -51 -96 -141 q-10 -36 -10 -72q0 -49 20 -97q32 -80 107 -134q93 -68 197 -68q22 0 44 3q142 18 230 122.5t88 245.5v795h-271v162h441v-957q0 -198 -127.5 -345t-325.5 -173q-35 -4 -71 -4q-61 0 -122 13q-98 20 -173 71q-114 77 -167 215q-30 81 -30 158q0 56 16 110z" />
<glyph unicode="K" horiz-adv-x="1888" d="M-16 76q44 146 163 229q95 66 208 66q29 0 59 -4q136 -19 220 -131q65 -86 64 -183q0 -30 -6 -61q-18 -94 -94 -154q-70 -55 -157 -55h-15v154h3q35 -1 65 23t38 60q4 17 4 34q0 46 -31 86q-42 54 -110 67q-22 4 -43 4q-64 0 -118 -39q-71 -52 -95 -143q-10 -36 -10 -72 q1 -48 19 -95q32 -81 106 -136q93 -64 196 -64q12 0 24 1q116 8 210 89q131 116 131 305v1233h-49q-60 0 -104 -34t-57 -84q-9 -33 -9 -65q0 -16 2 -33q6 -49 47 -84.5t103 -37.5v-137q-86 0 -153 34.5t-100 89.5t-47 121q-6 29 -6 58q0 36 10 74q18 66 54 121.5t103 90 t151 34.5h225v-721l678 717h192l-604 -650l600 -784h-200l-512 674l-154 -150v-467q0 -116 -52.5 -229.5t-139.5 -194.5q-127 -116 -307 -127q-18 -1 -36 -1q-158 0 -286 87q-112 76 -165 215q-31 81 -31 159q0 56 16 110z" />
<glyph unicode="L" horiz-adv-x="1144" d="M2 1032q-7 39 -6 77q0 51 12 105q21 92 103.5 156t199.5 64h226v-1274h550v-158h-720v1290h-52q-45 0 -81 -18t-56 -48q-22 -30 -32 -66q-7 -23 -6 -46q0 -12 2 -26q6 -36 23 -67t51.5 -51t80.5 -22v-135q-120 0 -199.5 64t-95.5 155z" />
<glyph unicode="M" horiz-adv-x="2365" d="M10 74q42 144 162 228q96 67 210 67q29 0 58 -4q75 -9 138 -52t102 -108q42 -71 44 -153v-6q0 -79 -41 -146q-43 -70 -122 -103q-40 -16 -91 -16h-17v153h9q33 0 58 19q34 27 42 75q2 12 1 24q0 35 -16 65q-38 71 -125 88q-22 4 -43 4q-64 0 -118 -39q-71 -52 -95 -143 q-10 -36 -10 -72q0 -48 18 -95q32 -81 107 -136q92 -64 195 -64q12 0 24 1q117 8 209 89q133 116 133 305v1233h-49q-60 0 -104 -34t-57 -84q-9 -33 -9 -65q1 -16 3 -33q6 -49 46 -84.5t102 -37.5v-137q-86 0 -153 34.5t-100 89.5t-47 121q-6 29 -6 58q0 36 10 74 q18 66 54 121.5t103 90t151 34.5h271l450 -1020l449 1020h215v-1434h-172v1145l-418 -954h-145l-426 946v-1084q0 -117 -52 -230t-139 -194q-127 -116 -307 -127q-18 -1 -36 -1q-158 0 -286 87q-112 76 -165 215q-31 81 -31 159q0 56 16 110z" />
<glyph unicode="N" horiz-adv-x="2125" d="M8 74q42 144 162 228q96 67 210 67q29 0 58 -4q87 -11 157.5 -66.5t104.5 -138.5q23 -55 22 -112q0 -29 -5 -58q-21 -94 -97 -154q-71 -55 -156 -55h-15v153h6q34 0 63 22q32 24 39 62q4 20 4 39q0 49 -30 85q-42 50 -113 63q-22 4 -42 4q-64 1 -118 -39 q-72 -52 -96 -143q-10 -36 -10 -70q0 -49 20 -97q32 -81 107 -136q91 -64 194 -64q11 0 23 1q116 8 211 89q133 116 133 297v1241h-52q-100 0 -146 -83q-26 -46 -26 -93q0 -36 16 -74q36 -84 138 -88v-137q-120 0 -200 64q-78 63 -94 155q-7 39 -7 78q0 53 12 106 q21 92 103.5 156t199.5 64q39 0 118 -1t118 -1l743 -1192v1192h164v-1432h-215l-702 1145v-1100q0 -114 -52.5 -224t-140.5 -192q-127 -116 -307 -127q-18 -1 -36 -1q-158 0 -286 87q-114 76 -166 214q-30 80 -30 159q0 56 16 111z" />
<glyph unicode="O" horiz-adv-x="1658" d="M100 768q10 140 71.5 268t158 221.5t227.5 149t272 55.5q148 0 284 -60.5t234 -161.5t156 -238.5t58 -286.5q0 -120 -37 -233t-105 -204.5t-158 -161t-201.5 -107.5t-230.5 -38q-105 0 -204.5 30t-182 83.5t-150.5 128.5t-113 162.5t-67 188.5q-15 71 -15 143q0 31 3 61z M266 731q-1 -21 -2 -41q0 -83 24 -160q28 -96 82 -168.5t127 -126t158.5 -81t173.5 -27.5q107 0 207 38.5t180 109.5t128.5 185.5t48.5 254.5q0 112 -32 209t-86.5 166.5t-126.5 119.5t-154 74q-78 23 -160 23h-7q-138 0 -264 -66q-92 -12 -164 -59q0 -2 -1 -5.5t-1 -5.5 q75 30 157 31q58 0 120 -16q154 -40 242 -166q68 -96 67 -209q0 -34 -6 -70q-25 -141 -149 -227q-82 -56 -169 -56q-45 0 -92 15q-89 28 -143 103q-48 66 -48 143q0 10 1 20h174q0 -5 -1 -10q0 -35 18 -59q20 -27 53 -35q17 -5 34 -5q44 0 82 32q53 44 64 112q4 21 4 42 q1 60 -37 112q-50 70 -137 92q-35 9 -70 9q-53 -1 -103 -21q-84 -34 -136 -109t-56 -168z" />
<glyph unicode="P" horiz-adv-x="1343" d="M2 1032q-7 39 -6 78q0 53 12 106q21 92 103.5 156t199.5 64h484q116 0 210.5 -39.5t152.5 -105t89 -146.5t31 -168q0 -88 -31 -168.5t-89 -144.5t-151.5 -102t-209.5 -38h-262v-524h-168v1290h-52q-101 0 -147 -84q-26 -47 -25 -94q-1 -37 15 -74q36 -85 139 -88v-137 q-120 0 -199.5 63.5t-95.5 155.5zM535 680h260q77 0 138.5 26t99 69t57.5 95t20 107q0 56 -20 109t-58 97.5t-99.5 71.5t-137.5 27h-260v-602z" />
<glyph unicode="Q" horiz-adv-x="1683" d="M100 713q0 200 98 372.5t266.5 274.5t366.5 102q199 0 368 -102t266.5 -274.5t97.5 -372.5q0 -162 -66.5 -307.5t-183.5 -249.5q39 -94 110.5 -153.5t158.5 -67.5q10 -1 20 -1q77 0 157 56v-176q-76 -28 -155 -28q-2 -1 -3 -1q-78 0 -149 26q-73 26 -135 73t-108 119 t-68 159q-11 45 -24 126t-23 132t-41 113t-82 106q-94 81 -211 92q-16 1 -32 1q-100 0 -189 -60q-69 -48 -102 -130q-22 -57 -22 -114q0 -27 5 -54q15 -86 78 -141q64 -53 153.5 -79.5t179.5 -26.5q134 0 250 55q18 -86 49 -145q-141 -66 -299 -66q-198 0 -366.5 101 t-266.5 272t-98 369zM246 455q1 -1 3 -2t3 -2q6 105 59 201.5t138 152.5q127 88 287 88q21 0 42 -2q185 -13 314 -131q45 -42 76 -90t50 -107.5t27.5 -98t20.5 -109.5q3 -15 4 -23q123 155 123 381q0 140 -48.5 255.5t-128.5 188t-180 111.5q-98 39 -202 39h-5 q-107 -1 -206 -40.5t-178.5 -112.5t-127 -187.5t-47.5 -253.5q0 -33 2 -49q-29 -79 -29 -159q0 -25 3 -50z" />
<glyph unicode="R" horiz-adv-x="1413" d="M6 1030q-7 39 -7 79q1 53 13 105q22 92 103.5 156t197.5 64h510q112 0 204 -35.5t151.5 -95.5t93 -137t35.5 -162v-11q0 -72 -24 -138q-26 -71 -77.5 -129.5t-136 -95.5t-190.5 -42l460 -588h-202l-449 586h-149v-586h-170v1286h-52q-43 0 -78.5 -18.5t-55 -48 t-30.5 -65.5q-7 -22 -7 -44q0 -13 2 -27q6 -36 22.5 -66t50 -49.5t78.5 -21.5v-135q-119 0 -198 63.5t-95 155.5zM539 731h286q149 0 233.5 78.5t84.5 191.5q0 120 -83.5 199.5t-234.5 79.5h-286v-549z" />
<glyph unicode="S" horiz-adv-x="1318" d="M30 118q34 172 173 279q91 70 208 87q32 5 64 4q83 0 163 -32q110 -44 169 -143q51 -80 51 -177q0 -17 -2 -35q-10 -118 -92 -193q-82 -76 -197 -76v156q60 3 97 49q30 36 32 88q0 5 1 10q0 46 -21 82q-32 59 -98 87q-53 22 -110 22q-14 0 -28 -1q-72 -7 -127 -42 q-97 -63 -124 -183q-8 -38 -9 -74q0 -78 41 -147q55 -99 173 -151q91 -41 181 -40q25 0 50 3q179 25 297 163q112 131 112 301v17q-6 172 -113 286t-280 163q-54 16 -104 36.5t-101.5 49t-91.5 61.5t-75.5 75.5t-53.5 90.5q-19 48 -25 106q-2 16 -1 33q0 43 12 90 q22 95 88 165.5t153.5 105t184.5 34.5q71 0 136.5 -15.5t124 -47.5t104 -86.5t69.5 -126.5l-131 -64q-81 191 -301 191q-90 0 -165.5 -46t-98.5 -136q-9 -35 -9 -67q0 -196 330 -292q111 -32 201.5 -84t160.5 -124.5t110 -172t44 -217.5v-21q0 -109 -38 -211 q-42 -112 -116 -196.5t-178.5 -141t-222.5 -71.5q-40 -5 -79 -5q-126 0 -246 54q-157 70 -236 207q-65 110 -65 231q0 45 9 92z" />
<glyph unicode="T" horiz-adv-x="903" d="M10 1274v164h883v-164h-356v-1274h-170v1274h-357z" />
<glyph unicode="U" horiz-adv-x="1320" d="M176 414v1020h170v-1020q0 -69 26.5 -125.5t70 -91t99.5 -53.5q56 -20 114 -20h4q56 0 111 18q57 18 101 51q66 51 91 131q14 43 14 88q0 37 -10 75q-21 82 -90 126q-58 37 -121 37q-11 0 -23 -1q-64 -8 -101 -49q-30 -33 -30 -79q0 -11 2 -23q5 -35 31 -58.5t67 -23.5 v-152h-12q-83 0 -148 53q-70 57 -87 148q-6 30 -6 58q-1 91 59 168q78 101 205 120q25 3 48 3q73 0 141 -30q88 -40 147 -122l8 8q-27 70 -80 123v641h170v-1020q0 -107 -41.5 -193.5t-110 -140t-155.5 -82.5t-178.5 -29t-178.5 29t-155.5 82.5t-110 140t-41.5 193.5z" />
<glyph unicode="V" horiz-adv-x="2080" d="M-12 1036q10 179 131 316q67 76 159 122q90 46 186 58q39 5 78 6q58 0 118 -12q100 -18 184.5 -63.5t153.5 -122.5t104 -175q104 -289 344 -985q60 167 211 594.5t235 659.5h179l-521 -1436h-207l-401 1110q-29 81 -91.5 140.5t-140.5 85.5t-161 28q-4 0 -7 1 q-78 -1 -154 -33q-78 -34 -134 -95q-80 -93 -88 -207q-1 -12 -1 -24q0 -101 62 -189q51 -71 129 -101q48 -19 100 -19q32 0 66 7q87 26 137 94q37 51 37 112q0 21 -4 42q-10 66 -62 107q-36 29 -80 29q-18 0 -36 -5q-34 -9 -53.5 -34t-18.5 -60l-163 -4q-1 13 -1 25 q0 78 48 145q56 78 145 100q40 9 78 9q95 0 178 -58q116 -82 141 -221q6 -37 6 -72q0 -114 -66 -212q-88 -129 -241 -169q-56 -14 -112 -14q-79 0 -157 30q-132 50 -216 165q-94 133 -94 292q-1 17 0 33z" />
<glyph unicode="W" horiz-adv-x="2707" d="M-15 1049q12 150 107 276q68 92 172 145.5t223 61.5q21 1 43 2q181 0 342 -108q180 -120 232 -312l242 -917l329 1065h150l327 -1063l330 1243h174l-397 -1440h-207l-301 961q-24 -75 -303 -961h-207l-295 1067q-26 95 -97 166.5t-165 104.5q-73 26 -147 26q-20 0 -41 -2 q-80 -8 -150.5 -43t-116.5 -94q-65 -87 -75 -187q-1 -16 -1 -30q0 -84 44 -166q46 -80 135 -119q52 -25 109 -26q33 -1 67 9q94 24 145 105q30 50 30 107q0 10 -1 20q-6 70 -56 116q-40 37 -91 36q-13 0 -27 -2q-34 -8 -55.5 -31.5t-24.5 -57.5l-158 9q0 89 61 160.5 t150 84.5q29 5 56 5q91 0 170 -56q61 -41 99 -106.5t46 -139.5q2 -19 2 -38q0 -108 -59 -203q-81 -125 -227 -169q-65 -20 -129 -20q-79 0 -154 31q-72 28 -135 81t-99 118q-68 122 -68 251q0 20 2 40z" />
<glyph unicode="X" horiz-adv-x="2211" d="M-35 55q3 106 48 204.5t124 168.5q101 91 249 108q30 3 58 4q113 0 209 -55q145 -86 193 -239q16 -53 16 -108q0 -72 -28 -146q-32 -75 -97 -128.5t-145 -72.5q-32 -6 -63 -6q-18 0 -35 2q-45 3 -99 27q-59 28 -99.5 83t-49.5 119q-2 12 -2 37h164q0 -17 8 -41 q12 -36 47 -53q30 -15 62 -15q22 0 46 7q70 24 105 102q19 41 19 85q0 27 -7 55q-13 46 -45 84.5t-76 62.5q-64 35 -132 35q-17 -1 -33 -3q-84 -10 -152 -69q-55 -45 -86 -110t-33 -136v-12q0 -83 39 -160q49 -97 136 -152t196 -61q13 -1 26 -1q229 0 390 235l559 805 l-492 719h203l391 -576l383 580h192l-483 -721q82 -121 254 -365.5t242 -347.5h-207l-385 573l-526 -768q-103 -149 -249 -232q-125 -71 -265 -71q-24 0 -48 2q-150 14 -271 92t-193 209q-58 108 -58 237v13z" />
<glyph unicode="Y" horiz-adv-x="1622" d="M-18 1104q-1 16 -1 33q0 122 81 216q92 106 235 130q36 5 71 5q95 0 182 -40q118 -55 183 -174l291 -531q62 113 189.5 346.5t189.5 346.5h194l-491 -873v-540q-1 -103 -54.5 -208.5t-133.5 -181.5q-115 -106 -273 -125q-37 -5 -73 -5q-154 0 -283 87q-113 75 -165 214 q-31 81 -31 159q0 56 16 111q42 145 162 229q97 68 212 68q28 0 56 -4q135 -19 219 -131q65 -86 65 -184q0 -30 -6 -62q-12 -63 -56 -115.5t-104 -77.5q-42 -16 -92 -16h-16v153q37 0 69 24.5t39 59.5q4 17 4 34q0 47 -31 88q-42 55 -110 67q-20 3 -39 3q-67 0 -123 -40 q-72 -52 -94 -141q-10 -37 -10 -73q0 -49 18 -96q32 -81 107 -134q91 -64 194 -64q12 0 23 1q117 8 211 89q131 115 131 266l2 545l-348 623q-40 74 -112 114q-55 30 -117 30q-20 0 -41 -3q-80 -11 -132 -70q-48 -53 -48 -123q0 -8 1 -16q5 -62 49 -106q37 -37 84 -37 q10 0 21 2q27 3 46.5 21.5t23.5 50.5h161q-1 -82 -57 -144.5t-141 -81.5q-31 -7 -60 -7q-93 0 -172 68q-105 89 -116 220z" />
<glyph unicode="Z" horiz-adv-x="1351" d="M82 123l766 1147h-715v166h883l55 -117l-766 -1145h602q84 0 147.5 44t92.5 126q13 37 13 74q0 38 -14 76q-28 74 -102 106q-31 16 -66 16q-24 0 -49 -8q-62 -18 -83 -76q-8 -23 -8 -42q0 -27 15 -48q25 -36 81 -45l-10 -143q-57 4 -101 21.5t-70.5 44.5t-43.5 59t-22 67 q-4 25 -4 49q0 9 1 19q2 32 10 61q18 63 63.5 110t103.5 69.5t123.5 22.5t123.5 -25q132 -57 182 -189q26 -68 27 -138q0 -65 -23 -132q-45 -130 -150 -209.5t-239 -79.5h-774z" />
<glyph unicode="[" horiz-adv-x="616" d="M205 -174l2 1786h342v-146h-176l-2 -1499h176v-141h-342z" />
<glyph unicode="\" horiz-adv-x="845" d="M31 1593h172l590 -1726h-175z" />
<glyph unicode="]" horiz-adv-x="618" d="M63 1466v146h343l2 -1786h-342v141h176l-2 1499h-177z" />
<glyph unicode="^" horiz-adv-x="1226" d="M133 616l426 818h111l424 -818h-183l-297 592l-303 -592h-178z" />
<glyph unicode="_" horiz-adv-x="1171" d="M57 0h1047v-160h-1047v160z" />
<glyph unicode="`" horiz-adv-x="1021" d="M356 1794h191l133 -235h-152z" />
<glyph unicode="a" d="M80 522q0 145 71.5 268.5t194.5 197t268 77.5h16q229 0 406 -86v-977h-143l-8 61q51 57 65 146l-12 4q-38 -101 -138 -163q-96 -61 -203 -60h-7q-142 2 -259.5 73.5t-184 192.5t-66.5 266zM240 522q0 -159 98.5 -274t251.5 -119h6q86 0 154 60q70 62 71 149 q0 141 -112 184q-30 13 -59 13q-38 1 -74 -19q-66 -34 -66 -110h-139v8q0 110 80 190q55 54 143 68q28 4 54 5q57 0 106 -20q78 -31 120 -104l3 336q-85 36 -194 36q-32 0 -67 -3q-158 -12 -267 -122.5t-109 -277.5z" />
<glyph unicode="b" horiz-adv-x="1183" d="M154 39v1399h159v-244v-178q-54 -60 -73 -170l10 -4q39 100 128 162.5t200 62.5q145 0 266 -77.5t187.5 -203t66.5 -268.5q0 -81 -22.5 -159t-68.5 -146.5t-109.5 -120.5t-152 -82t-190.5 -30q-235 4 -401 59zM313 150q92 -27 242 -31q90 0 165 35.5t122 93.5 q46 58 72 128q25 68 24 138v6q-1 69 -23.5 137.5t-63 126.5t-106 96t-145.5 42h-12q-90 0 -152 -58q-66 -62 -67 -145q0 -68 38 -122.5t99 -74.5q27 -9 51 -9q37 1 69 21q50 32 50 96v7h141q1 -11 1 -21q0 -84 -42 -144q-48 -68 -121 -93q-50 -18 -103 -18q-25 0 -50 4 q-61 8 -111 42.5t-78 92.5v-350z" />
<glyph unicode="c" horiz-adv-x="1056" d="M82 520q1 103 36 198.5t99.5 173t167 124t227.5 47.5q217 0 363 -143l-88 -109q-113 107 -277 107h-4q-94 0 -175 -48q-83 -49 -135.5 -142.5t-53.5 -211.5q0 -73 23.5 -141t68 -124t117 -90t161.5 -34q77 0 151 30.5t132 84.5l90 -109q-73 -71 -169 -110t-204 -39 q-103 0 -190 30t-149 81t-105.5 119.5t-64.5 146t-21 159.5z" />
<glyph unicode="d" horiz-adv-x="1185" d="M88 518q0 109 33.5 207t96 175t161.5 122t221 45q112 0 204.5 -63t131.5 -162l10 4q-18 109 -74 170v178v244h160v-1399q-166 -55 -401 -59q-102 0 -190.5 30t-152 82t-109.5 120.5t-68.5 146.5t-22.5 159zM246 522v-6q0 -71 24 -139q26 -71 73.5 -129t122.5 -93.5 t165 -35.5q148 4 241 31v350q-58 -118 -188 -135q-25 -4 -50 -4q-53 0 -103 18q-73 25 -121 93q-42 60 -42 144q0 11 1 21h141v-7q0 -64 50 -96q32 -20 69 -21q25 0 51 9q61 20 99 74.5t38 122.5q1 83 -69 145q-65 59 -156 58h-12q-69 -3 -126 -29t-95 -65t-63.5 -91 t-37 -105.5t-12.5 -109.5z" />
<glyph unicode="e" horiz-adv-x="1206" d="M84 522q0 102 34.5 198t98.5 173t166.5 124t226.5 48h4q160 1 282 -81q124 -82 182 -223q41 -99 41 -209q0 -46 -7 -95h-872q10 -140 109 -237t263 -97q88 0 168 37t131 106l129 -78q-152 -206 -428 -206q-127 0 -230.5 46.5t-167.5 123.5q-63 76 -97 172q-33 93 -33 192 v6zM242 592h725q-12 144 -109.5 236.5t-245.5 95.5q-81 -1 -148 -28.5t-111.5 -75t-72.5 -105t-38 -123.5z" />
<glyph unicode="f" horiz-adv-x="585" d="M-29 -246q16 -1 31 -1q80 0 126 37q56 43 56 130v965h-104v149h104v88q0 164 104 245q85 66 211 66q28 0 58 -3v-142q-16 1 -31 1q-80 0 -126 -37q-56 -43 -56 -130v-88h205v-149h-205v-965q0 -164 -104 -244q-85 -66 -211 -66q-28 0 -58 3v141z" />
<glyph unicode="g" horiz-adv-x="1185" d="M82 522q0 145 71.5 268.5t194.5 197t268 77.5h15q228 0 405 -86v-975q0 -95 -37 -174t-100 -130.5t-145 -79.5t-174 -30h-8q-243 0 -429 183l97 114q150 -147 324 -147h14q125 2 212 70.5t87 191.5v47q61 75 73 160l-10 4q-38 -100 -138 -163q-96 -60 -203 -60h-7 q-142 2 -259.5 73.5t-184 192.5t-66.5 266zM242 522q0 -159 98.5 -274t251.5 -119h6q86 0 154 60q71 62 71 149q0 141 -112 184q-32 10 -63 10q-14 0 -27 -2q-44 -6 -77 -40t-34 -84h-137v8q0 109 78 190q57 55 145 68q27 5 54 5q56 0 106 -20q79 -31 121 -104v336 q-83 36 -192 36q-32 0 -67 -3q-158 -12 -267 -122.5t-109 -277.5z" />
<glyph unicode="h" horiz-adv-x="1220" d="M154 0v1434h159v-426q111 54 242 57h11q142 0 255 -51q117 -53 187 -163.5t71 -262.5v-672q1 -91 43 -133q36 -36 113 -36q13 0 27 1v-141q-29 -3 -55 -3q-123 0 -197 65q-90 79 -90 247v672q-1 154 -104.5 243t-260.5 89q-118 0 -242 -46v-874h-159z" />
<glyph unicode="i" horiz-adv-x="473" d="M154 1245v197h165v-197h-165zM156 0v1049h161v-1049h-161z" />
<glyph unicode="j" horiz-adv-x="473" d="M-55 -264q12 -1 24 -1q83 0 131 39q56 43 56 130v1145h161v-1145q0 -165 -103 -246q-86 -67 -216 -67q-25 0 -53 3v142zM150 1251v181h165v-181h-165z" />
<glyph unicode="k" horiz-adv-x="1040" d="M-6 1290v142q29 3 55 3q262 0 262 -311v-573l488 489h194l-456 -454l473 -586h-187l-389 483l-123 -114v-369h-155v1124q0 94 -34 134q-28 34 -101 33q-13 0 -27 -1z" />
<glyph unicode="l" horiz-adv-x="536" d="M143 305v1139h162v-1139q0 -95 35 -135q30 -35 104 -34q13 0 27 1v-141q-29 -3 -55 -3q-120 0 -189 64q-84 78 -84 248z" />
<glyph unicode="m" horiz-adv-x="1869" d="M158 2v979q250 86 413 86q282 -4 373 -180q99 180 352 180q92 0 168.5 -27t137 -82t94 -148.5t33.5 -217.5q0 -110 1 -339t1 -341q-1 -93 37 -133q32 -34 107 -34q13 0 28 1v-141q-29 -3 -55 -3q-120 0 -192 64q-86 78 -87 246v680q0 165 -75 248.5t-198 83.5 q-272 0 -272 -301l-4 -621h-154l-2 621q-1 87 -23 148t-63.5 93.5t-91 46.5t-115.5 15q-124 0 -254 -49v-875h-159z" />
<glyph unicode="n" horiz-adv-x="1241" d="M154 0v979q125 44 218 66t195 22q111 0 207 -32t168.5 -91t114 -150.5t41.5 -203.5v-666q0 -90 44 -132q37 -36 113 -35q13 0 27 1v-141q-29 -3 -55 -3q-123 0 -198 64q-91 78 -91 246v666q0 159 -105.5 246.5t-265.5 87.5q-133 0 -252 -45v-879h-161z" />
<glyph unicode="o" horiz-adv-x="1218" d="M82 520q0 151 66 274.5t187.5 196t274.5 72.5q152 0 274 -72.5t188.5 -196t66.5 -274.5q0 -170 -84.5 -304t-229.5 -196q-101 -43 -215 -43q-153 0 -274.5 72.5t-187.5 196t-66 274.5zM242 520q0 -98 31 -176t83 -126t117 -73.5t137 -25.5q96 0 165 55t69 154 q0 66 -28.5 114.5t-84.5 69.5q-32 10 -63 10q-13 0 -27 -2q-44 -6 -77 -40.5t-34 -84.5h-137v8q0 113 78 191q57 54 145 68q28 4 54 4q57 0 106 -19q87 -33 139 -102t64 -162h14q5 26 5 52q0 53 -21 106v7q0 28 -12 97q-34 134 -132.5 205.5t-222.5 71.5q-72 0 -137 -25.5 t-117 -74t-83 -126.5t-31 -176z" />
<glyph unicode="p" horiz-adv-x="1187" d="M158 -391v1401q171 57 401 57q127 0 232 -46t171.5 -122.5t103 -172t36.5 -198.5q-1 -107 -40.5 -206.5t-107.5 -174.5t-165.5 -120t-206.5 -45q-111 0 -200 61.5t-128 161.5l-10 -2q18 -109 73 -172v-176v-246h-159zM317 547q28 58 78 93t111 44q26 4 50 4q54 0 104 -18 q72 -26 120 -94q42 -60 42 -144q0 -11 -1 -22h-141v8q0 65 -50 96q-32 20 -69 20q-25 0 -51 -8q-62 -20 -99.5 -74.5t-37.5 -121.5q0 -83 67 -146q60 -58 147 -58q8 0 17 1q79 4 145 41.5t106.5 95.5t63 126.5t23.5 137.5v7q0 54 -15 109q-16 57 -48 108.5t-77 90.5t-108 62 t-135 23q-145 0 -242 -31v-350z" />
<glyph unicode="q" horiz-adv-x="1187" d="M90 526q0 103 36.5 198.5t103 172t171 122.5t230.5 46q232 0 403 -57v-1088q0 -91 44 -133q37 -36 114 -36q13 0 27 1v-141q-29 -3 -55 -3q-123 0 -196 65q-89 79 -89 247v109q52 57 67 172l-10 2q-37 -99 -126 -161t-200 -62q-109 0 -207 45t-166 120t-107.5 174.5 t-39.5 206.5zM248 526q1 -69 23.5 -137.5t63.5 -126.5t107 -95.5t146 -41.5q8 -1 16 -1q86 0 148 58q67 63 67 146q0 66 -38 121t-99 75q-27 8 -52 8q-38 0 -70 -20q-50 -31 -50 -96v-8h-141q-1 11 -1 21q0 85 43 145q48 68 121 94q50 18 104 18q24 0 50 -4 q129 -20 186 -137v350q-94 31 -241 31q-72 0 -135 -23t-108 -62t-77 -90.5t-48 -108.5q-15 -55 -15 -109v-7z" />
<glyph unicode="r" horiz-adv-x="806" d="M156 0v1044h137l16 -133q49 84 139 122q77 32 157 33q13 0 27 -2q92 -6 171 -46l-60 -139q-63 29 -126 35q-14 1 -28 1q-47 -1 -89 -15q-54 -18 -95.5 -54.5t-65.5 -94t-24 -126.5v-625h-159z" />
<glyph unicode="s" horiz-adv-x="878" d="M76 147l98 101q103 -127 252 -127h6q50 -1 96 15q48 16 82.5 56.5t34.5 96.5q-1 36 -22 65.5t-56 48t-68.5 30t-70.5 18.5q-55 9 -99.5 23t-87.5 37.5t-72.5 55t-47.5 78t-19 103.5q0 142 108.5 226.5t256.5 84.5q85 0 166.5 -29t140.5 -90l-92 -104q-51 43 -101 59 t-114 18h-7q-80 -1 -140 -43q-62 -44 -62 -120q0 -32 14 -56.5t34 -39.5t50 -27.5t53.5 -18.5t53.5 -12q56 -11 101.5 -26t91 -40t76.5 -57.5t50 -80t19 -105.5q0 -78 -35 -140t-91.5 -97.5t-120 -54t-128.5 -18.5q-108 0 -200 43t-150 127z" />
<glyph unicode="t" horiz-adv-x="620" d="M63 899v139h107v394h160v-394h211v-139h-211v-596q0 -88 56 -132q47 -37 125 -37q14 0 30 1v-141q-30 -3 -58 -3q-126 -1 -210 65q-103 80 -103 247v596h-107z" />
<glyph unicode="u" horiz-adv-x="1239" d="M-29 1286v141q30 3 58 3q120 0 188 -60q84 -74 84 -242q0 -107 -1 -338.5t-1 -338.5q0 -159 105.5 -246.5t265.5 -87.5q133 0 252 45v878h161v-979q-125 -44 -218 -66t-195 -22q-148 0 -267 54.5t-191.5 164.5t-72.5 259v677q0 91 -36 128q-30 31 -103 31q-14 0 -29 -1z " />
<glyph unicode="v" horiz-adv-x="970" d="M23 1042h172l245 -692q11 -27 25 -92.5t20 -103.5h13q18 129 43 196l243 692h172l-370 -1046h-193z" />
<glyph unicode="w" horiz-adv-x="1449" d="M33 1044h164l194 -688q18 -55 33 -200h10q2 46 10 110.5t15 87.5l176 690h178l174 -690q10 -34 19.5 -97.5t11.5 -100.5h10q4 113 29 200l194 688h164l-309 -1044h-188l-175 694q-2 8 -9 72.5t-7 67.5h-8q0 -1 -7 -69.5t-7 -70.5l-173 -694h-188z" />
<glyph unicode="x" horiz-adv-x="1032" d="M41 0l367 520l-363 524h199l268 -407l268 407h199l-365 -524l369 -520h-199l-272 403l-272 -403h-199z" />
<glyph unicode="y" horiz-adv-x="1011" d="M4 1038h172l336 -860l319 860h173l-482 -1243q-70 -187 -294 -187q-27 0 -56 3v133q23 -3 43 -3q56 0 89 21q44 27 67 84l57 150z" />
<glyph unicode="z" horiz-adv-x="937" d="M68 102l583 797l-545 -2v143h662l86 -104l-582 -799h582v-137h-704z" />
<glyph unicode="{" horiz-adv-x="618" d="M102 639v152q138 0 138 268v303q0 108 58.5 172.5t162.5 64.5h96v-145q-10 0 -30 0.5t-28 0t-23 -1t-21 -3.5t-16 -7.5t-14 -12t-9 -18.5t-6.5 -26t-1.5 -34v-332q0 -226 -111 -305q111 -79 111 -305v-330q0 -22 3 -38.5t6 -28t13.5 -19t15 -11.5t23 -6t24 -2.5t31 0 t33.5 0.5v-145h-96q-104 0 -162.5 65t-58.5 173v303q0 268 -138 268z" />
<glyph unicode="|" horiz-adv-x="563" d="M203 -326v1948h157v-1948h-157z" />
<glyph unicode="}" horiz-adv-x="618" d="M61 -25q9 0 30 -0.5t28 0t23 1.5t21.5 3.5t16 7.5t14.5 13t9 19t6.5 26t1.5 35v330q0 226 111 305q-111 79 -111 305v332q0 22 -3 38t-6 27t-13.5 18.5t-16 11.5t-22.5 5.5t-24.5 2t-31 0t-33.5 -0.5v145h97q104 0 162.5 -64.5t58.5 -172.5v-303q0 -268 137 -268v-152 q-137 0 -137 -268v-303q0 -108 -58.5 -173t-162.5 -65h-97v145z" />
<glyph unicode="~" horiz-adv-x="1200" d="M117 567q198 367 536 138q55 -37 99.5 -47.5t82 6.5t68 49t66.5 88l108 -88q-52 -114 -134 -168.5t-179 -46.5t-199 73q-84 54 -138 61t-99 -27.5t-105 -125.5z" />
<glyph unicode="&#xa1;" horiz-adv-x="575" d="M197 -397l8 1085h168l10 -1085h-186zM197 825v211h184v-211h-184z" />
<glyph unicode="&#xa2;" horiz-adv-x="1142" d="M111 711q1 97 32 187.5t88.5 165.5t149 124.5t203.5 60.5v185h125v-185q171 -18 295 -139l-89 -109q-113 107 -276 107q-71 1 -137.5 -28t-117.5 -80t-82 -127.5t-32 -165.5q0 -73 23.5 -141.5t68 -124.5t117.5 -90t162 -34q77 0 151 30.5t132 84.5l90 -108 q-128 -125 -305 -146v-176h-125v174q-114 10 -206 58.5t-149 123t-87.5 165t-30.5 188.5z" />
<glyph unicode="&#xa3;" horiz-adv-x="1191" d="M115 0v150h116v497h-112v123h112v262q0 98 33 179t88 132.5t126.5 82t148 35t153.5 -17t141.5 -65.5t113 -118t67.5 -168l-156 -31q-15 78 -62 134.5t-107.5 81.5t-128 23t-123 -31t-92 -91t-36.5 -146v-262h451v-123h-451v-497h715v-150h-997z" />
<glyph unicode="&#xa5;" horiz-adv-x="1234" d="M53 1434h195l381 -695q62 114 189 347.5t188 347.5h194l-348 -623h174v-123h-244l-71 -129v-24h315v-123h-315v-412h-168v412h-314v123h314v24q-35 65 -72 129h-242v123h172q-17 31 -149 269.5t-199 353.5z" />
<glyph unicode="&#xa6;" horiz-adv-x="559" d="M203 -326v840h157v-840h-157zM203 788v834h157v-834h-157z" />
<glyph unicode="&#xa7;" horiz-adv-x="946" d="M82 135l100 98q103 -124 252 -124q84 -2 151 41t66 124q0 37 -20.5 67t-55.5 48.5t-68.5 30t-70.5 18.5q-55 9 -99.5 23t-88 37.5t-72.5 55t-47 78t-18 103.5q0 65 37 117.5t98 79.5q-103 79 -103 213q0 97 53 169.5t135 108t177 35.5q84 0 165.5 -30t139.5 -91l-90 -110 q-96 81 -219 84q-83 2 -144.5 -43t-60.5 -123q0 -37 19 -64t54.5 -43.5t63 -24.5t68.5 -16q71 -14 126.5 -36t106 -57.5t78 -90.5t27.5 -127q0 -144 -137 -192q104 -81 104 -220q0 -63 -23.5 -116t-61.5 -88t-87.5 -59t-100.5 -35t-102 -11q-108 0 -201 43t-151 127z M266 735q0 -30 14 -54t33.5 -38.5t50.5 -27t53.5 -18t53.5 -11.5q63 -11 129 -37q86 47 86 137q-1 37 -22 67t-55.5 48.5t-69 29.5t-70.5 17q-52 8 -113 29q-93 -51 -90 -142z" />
<glyph unicode="&#xa8;" horiz-adv-x="1021" d="M246 1602v200h184v-200h-184zM600 1602v200h184v-200h-184z" />
<glyph unicode="&#xa9;" horiz-adv-x="1681" d="M111 717q0 153 57.5 291.5t154.5 238.5t231.5 158.5t283.5 58.5q201 0 369.5 -99.5t266 -271t97.5 -376.5q0 -153 -57.5 -292t-155.5 -238.5t-234 -158.5t-286 -59q-149 0 -283.5 59t-231.5 158.5t-154.5 238.5t-57.5 292zM260 717q0 -126 45 -239t121.5 -194t184 -128 t227.5 -47q162 0 296 80t210.5 219.5t76.5 308.5t-76.5 308.5t-210.5 219.5t-296 80q-120 0 -227.5 -47t-184 -128t-121.5 -194t-45 -239zM456.5 716q-0.5 -114 53.5 -210q53 -95 144 -145t202 -50q163 0 281 115l-93 104q-78 -75 -188 -75q-141 0 -207 112 q-44 72 -39.5 163t56.5 157q54 70 131 88q65 17 133.5 -3.5t116.5 -68.5l90 107q-111 114 -281 114q-112 0 -202.5 -50.5t-143.5 -147.5q-53 -96 -53.5 -210z" />
<glyph unicode="&#xaa;" horiz-adv-x="974" d="M111 1065q0 164 116.5 282t280.5 121q168 6 309 -61l8 -4v-725h-129l-12 88q-44 -61 -114.5 -82.5t-147.5 -5.5q-137 27 -224 131t-87 256zM147 455v116h680v-116h-680zM254 1065q0 -93 57 -167.5t144 -94.5q67 -14 126.5 7.5t98.5 76.5l2 444q-76 26 -170 19 q-109 -9 -183.5 -91t-74.5 -194z" />
<glyph unicode="&#xab;" horiz-adv-x="1122" d="M90 578l336 421h184l-336 -421l336 -420h-184zM502 578l336 421h184l-336 -421l336 -420h-184z" />
<glyph unicode="&#xac;" horiz-adv-x="1257" d="M123 707v149h977v-547h-148v398h-829z" />
<glyph unicode="&#xad;" horiz-adv-x="882" d="M143 506v151h598v-151h-598z" />
<glyph unicode="&#xae;" horiz-adv-x="1681" d="M113 713q0 153 57.5 291.5t154.5 238.5t231.5 158.5t283.5 58.5q201 0 369.5 -99.5t266 -271t97.5 -376.5q0 -153 -57.5 -292t-155.5 -238.5t-234 -158.5t-286 -59q-149 0 -283.5 59t-231.5 158.5t-154.5 238.5t-57.5 292zM262 713q0 -169 76 -308.5t209 -220t293 -80.5 q162 0 296 80.5t210.5 220t76.5 308.5t-76.5 308.5t-210.5 219.5t-296 80q-120 0 -227.5 -47t-184 -128t-121.5 -194t-45 -239zM588 317h145v308h51l234 -308h170l-248 314q97 19 150 81t53 162q-1 127 -80.5 191.5t-208.5 64.5h-266v-813zM733 748v258h121q67 0 108.5 -42 t43.5 -90t-41.5 -87t-110.5 -39h-121z" />
<glyph unicode="&#xaf;" horiz-adv-x="1021" d="M250 1550v138h522v-138h-522z" />
<glyph unicode="&#xb0;" horiz-adv-x="798" d="M113 1174q0 114 83 196t201 82t202.5 -82t84.5 -196q0 -115 -84 -197t-203 -82q-118 0 -201 81.5t-83 197.5zM246 1174q0 -63 43.5 -107.5t107.5 -44.5t108 44.5t44 107.5t-44 108t-108 45t-107.5 -44.5t-43.5 -108.5z" />
<glyph unicode="&#xb1;" horiz-adv-x="1394" d="M190 696v162h431v418h157v-418h412v-162h-412v-422h-157v422h-431zM205 0v141h985v-141h-985z" />
<glyph unicode="&#xb2;" horiz-adv-x="808" d="M63 743l459 433q88 88 66 161q-14 51 -64.5 75t-109.5 26q-68 3 -123.5 -24t-83.5 -85l-129 53q30 71 92 121q47 39 113 58q68 19 133 16q108 -3 195.5 -55.5t115.5 -149.5q23 -77 -7 -155t-95 -140l-340 -301h452v-131h-628z" />
<glyph unicode="&#xb3;" horiz-adv-x="849" d="M86 823l121 58q31 -56 91 -87.5t126 -31.5q73 0 128.5 42.5t55.5 113.5q0 67 -50 111t-118 44h-92v123h92q61 0 101.5 29t40.5 88q0 62 -46.5 95.5t-111.5 33.5q-56 0 -108.5 -27t-77.5 -74l-117 62q40 80 122 125t175 45q81 0 151 -28t117 -89t47 -143q0 -54 -30.5 -101 t-79.5 -69q137 -71 137 -228q-1 -88 -51.5 -154.5t-126.5 -98t-162 -31.5q-106 0 -198 50t-136 142z" />
<glyph unicode="&#xb4;" horiz-adv-x="1021" d="M350 1559l133 235h191l-172 -235h-152z" />
<glyph unicode="&#xb6;" horiz-adv-x="1208" d="M86 997q0 85 30.5 163.5t88.5 142t152 101.5t210 38h451v-1606h-162v1464h-180v-1464h-164v729q-102 4 -185 42.5t-134.5 99.5t-79 135.5t-27.5 154.5z" />
<glyph unicode="&#xb7;" horiz-adv-x="532" d="M180 506v194h189v-194h-189z" />
<glyph unicode="&#xb8;" horiz-adv-x="1021" d="M315 -373l31 90q69 -39 131 -39q55 -1 79.5 33.5t3 70.5t-78.5 38q-32 0 -55 -13l-49 41l104 183h119l-65 -117q56 -2 107 -50t48 -108q-4 -89 -64 -134.5t-137 -45.5q-74 0 -174 51z" />
<glyph unicode="&#xb9;" horiz-adv-x="602" d="M100 1425v134h19h246h18v-922h-152v788h-131z" />
<glyph unicode="&#xba;" horiz-adv-x="956" d="M143 1130q0 137 96.5 229.5t235.5 92.5q141 0 238.5 -92.5t97.5 -229.5q0 -143 -97 -235t-237 -92q-141 0 -237.5 92t-96.5 235zM160 526v133h639v-133h-639zM274 1130q0 -93 58.5 -152.5t144.5 -59.5q85 0 143 60t58 152q0 90 -58.5 148.5t-142.5 58.5 q-86 0 -144.5 -58.5t-58.5 -148.5z" />
<glyph unicode="&#xbb;" horiz-adv-x="1122" d="M100 158l336 420l-336 421h183l335 -421l-335 -420h-183zM514 158l336 420l-336 421h182l336 -421l-336 -420h-182z" />
<glyph unicode="&#xbc;" horiz-adv-x="1898" d="M188 1303h131v-711h152v844h-18h-246h-19v-133zM473 -66l768 1610h154l-768 -1610h-154zM1083 272l91 -108h387v-164h149v164h80v131h-80v612h-147zM1264 297l299 408l-2 -410z" />
<glyph unicode="&#xbd;" horiz-adv-x="1937" d="M154 1303h131v-711h151v844h-18h-246h-18v-133zM397 -61l770 1597h154l-770 -1597h-154zM1155 98l45 -98h629v131h-453l340 301q65 62 95.5 140t7.5 155q-28 97 -116 149.5t-196 55.5q-62 3 -133 -17q-66 -19 -112 -57q-63 -51 -93 -121l129 -53q28 58 83.5 85t123.5 24 q59 -2 109.5 -26t64.5 -75q22 -75 -65 -162z" />
<glyph unicode="&#xbe;" horiz-adv-x="2004" d="M80 715q44 -92 136 -142.5t198 -50.5q86 0 162 32t126.5 98.5t51.5 154.5q0 155 -138 227q49 22 80 69t31 101q0 82 -47 143t-117 89t-151 28q-93 0 -175 -45t-122 -125l116 -61q25 47 78 73.5t109 26.5q65 0 111 -33.5t46 -95.5q0 -59 -40 -88t-101 -29h-92v-122h92 q68 0 118 -44.5t50 -111.5q0 -71 -55.5 -113.5t-128.5 -42.5q-66 0 -126 31.5t-91 87.5zM596 -74l780 1610h154l-780 -1610h-154zM1178 272l90 -108h387v-164h149v164h80v131h-80v612h-147zM1358 297l299 408l-2 -410z" />
<glyph unicode="&#xbf;" horiz-adv-x="1011" d="M92 -4q1 182 111 299.5t293 150.5l14 295h145l13 -424q-104 -1 -198 -41.5t-153 -115.5t-57 -166q3 -123 92.5 -198t208.5 -75q82 0 160.5 38t130.5 102l121 -92l-19 -23q-67 -87 -173 -132.5t-224 -45.5q-90 0 -173 28t-148.5 80.5t-105 135.5t-38.5 184zM487 846v190 h179v-190h-179z" />
<glyph unicode="&#xc0;" horiz-adv-x="2252" d="M29.5 111q17.5 115 81.5 211q77 114 217.5 167t271.5 15q148 -44 232 -164.5t63 -271.5q-19 -137 -132.5 -222.5t-248.5 -58.5q-64 12 -118 56t-79 104q-19 49 -16 96l168 -2q-1 -32 22 -60t54 -34q70 -14 119.5 29.5t60.5 111.5q17 88 -34 158t-140 94 q-85 21 -164.5 -10.5t-132.5 -104.5q-70 -100 -61.5 -214.5t88.5 -207.5q70 -81 166.5 -113t203.5 -12q245 47 344 328l457 1268l-178 2q-84 0 -140.5 -66.5t-33.5 -150.5q15 -56 56.5 -89t98.5 -38l-49 -135q-88 9 -158.5 67.5t-95.5 143.5q-31 106 4.5 205.5t121 160 t192.5 60.5h446l520 -1434h-178l-168 459h-553l-186 -520q-62 -173 -182 -288t-291 -143q-147 -23 -285.5 23.5t-238.5 155.5q-78 85 -110 197t-14.5 227zM1366 1765h190l134 -235h-152zM1389 614h448l-223 660z" />
<glyph unicode="&#xc1;" horiz-adv-x="2242" d="M22.5 111q17.5 115 81.5 211q77 113 218 166.5t272 15.5q148 -44 232 -164.5t63 -271.5q-19 -137 -132.5 -222.5t-248.5 -58.5q-64 12 -118 56t-79 104q-19 49 -16 96l168 -2q-1 -32 22 -60t54 -34q70 -14 119.5 29.5t60.5 111.5q17 88 -34 158t-140 94 q-85 21 -164.5 -10.5t-132.5 -104.5q-71 -100 -62 -215t88 -207q70 -81 167 -113t204 -12q245 47 344 328l457 1268l-178 2q-84 0 -140.5 -66.5t-33.5 -150.5q15 -56 56.5 -89t98.5 -38l-49 -135q-88 9 -158.5 67.5t-95.5 143.5q-31 106 4.5 205.5t121 160t192.5 60.5h446 l520 -1434h-178l-168 459h-553l-186 -520q-62 -173 -182 -288t-291 -143q-148 -23 -286.5 23.5t-238.5 155.5q-78 85 -110 197t-14.5 227zM1382 614h449l-223 660zM1518 1526l133 235h190l-172 -235h-151z" />
<glyph unicode="&#xc2;" horiz-adv-x="2242" d="M22.5 111q17.5 115 81.5 211q77 113 218 166.5t272 15.5q148 -44 232 -164.5t63 -271.5q-19 -137 -132.5 -222.5t-248.5 -58.5q-64 12 -118 56t-79 104q-19 49 -16 96l168 -2q-1 -32 22 -60t54 -34q70 -14 119.5 29.5t60.5 111.5q17 88 -34 158t-140 94 q-85 21 -164.5 -10.5t-132.5 -104.5q-71 -100 -62 -215t88 -207q70 -81 167 -113t204 -12q245 47 344 328l457 1268l-178 2q-84 0 -140.5 -66.5t-33.5 -150.5q15 -56 56.5 -89t98.5 -38l-49 -135q-88 9 -158.5 67.5t-95.5 143.5q-31 106 4.5 205.5t121 160t192.5 60.5h446 l520 -1434h-178l-168 459h-553l-186 -520q-62 -173 -182 -288t-291 -143q-148 -23 -286.5 23.5t-238.5 155.5q-78 85 -110 197t-14.5 227zM1315 1524l180 239h207l180 -239h-151l-132 166h-4l-129 -166h-151zM1382 614h449l-223 660z" />
<glyph unicode="&#xc3;" horiz-adv-x="2242" d="M22.5 111q17.5 115 81.5 211q77 113 218 166.5t272 15.5q148 -44 232 -164.5t63 -271.5q-19 -137 -132.5 -222.5t-248.5 -58.5q-64 12 -118 56t-79 104q-19 49 -16 96l168 -2q-1 -32 22 -60t54 -34q70 -14 119.5 29.5t60.5 111.5q17 88 -34 158t-140 94 q-85 21 -164.5 -10.5t-132.5 -104.5q-71 -100 -62 -215t88 -207q70 -81 167 -113t204 -12q245 47 344 328l457 1268l-178 2q-84 0 -140.5 -66.5t-33.5 -150.5q15 -56 56.5 -89t98.5 -38l-49 -135q-88 9 -158.5 67.5t-95.5 143.5q-31 106 4.5 205.5t121 160t192.5 60.5h446 l520 -1434h-178l-168 459h-553l-186 -520q-62 -173 -182 -288t-291 -143q-148 -23 -286.5 23.5t-238.5 155.5q-78 85 -110 197t-14.5 227zM1253 1583q61 115 163 140.5t206 -46.5q110 -74 190 58l93 -68q-47 -106 -145.5 -133t-194.5 37q-127 81 -213 -51zM1382 614h449 l-223 660z" />
<glyph unicode="&#xc4;" horiz-adv-x="2242" d="M22.5 111q17.5 115 81.5 211q77 113 218 166.5t272 15.5q148 -44 232 -164.5t63 -271.5q-19 -137 -132.5 -222.5t-248.5 -58.5q-64 12 -118 56t-79 104q-19 49 -16 96l168 -2q-1 -32 22 -60t54 -34q70 -14 119.5 29.5t60.5 111.5q17 88 -34 158t-140 94 q-85 21 -164.5 -10.5t-132.5 -104.5q-71 -100 -62 -215t88 -207q70 -81 167 -113t204 -12q245 47 344 328l457 1268l-178 2q-84 0 -140.5 -66.5t-33.5 -150.5q15 -56 56.5 -89t98.5 -38l-49 -135q-88 9 -158.5 67.5t-95.5 143.5q-31 106 4.5 205.5t121 160t192.5 60.5h446 l520 -1434h-178l-168 459h-553l-186 -520q-62 -173 -182 -288t-291 -143q-148 -23 -286.5 23.5t-238.5 155.5q-78 85 -110 197t-14.5 227zM1335 1528v168h181v-168h-181zM1382 614h449l-223 660zM1681 1528v168h181v-168h-181z" />
<glyph unicode="&#xc5;" horiz-adv-x="2242" d="M22.5 111q17.5 115 81.5 211q77 113 218 166.5t272 15.5q148 -44 232 -164.5t63 -271.5q-19 -137 -132.5 -222.5t-248.5 -58.5q-64 12 -118 56t-79 104q-19 49 -16 96l168 -2q-1 -32 22 -60t54 -34q70 -14 119.5 29.5t60.5 111.5q17 88 -34 158t-140 94 q-85 21 -164.5 -10.5t-132.5 -104.5q-71 -100 -62 -215t88 -207q70 -81 167 -113t204 -12q245 47 344 328l457 1268l-178 2q-84 0 -140.5 -66.5t-33.5 -150.5q15 -56 56.5 -89t98.5 -38l-49 -135q-88 9 -158.5 67.5t-95.5 143.5q-31 106 4.5 205.5t121 160t192.5 60.5h446 l520 -1434h-178l-168 459h-553l-186 -520q-62 -173 -182 -288t-291 -143q-148 -23 -286.5 23.5t-238.5 155.5q-78 85 -110 197t-14.5 227zM1382 614h449l-223 660zM1432 1663q0 70 50 112t122 42q71 0 121.5 -42.5t50.5 -111.5q0 -68 -51 -110t-121 -42q-72 0 -122 42 t-50 110zM1536 1663q0 -29 18.5 -47.5t49.5 -18.5q29 0 48 18.5t19 47.5q0 32 -18.5 51t-48.5 19q-31 0 -49.5 -19t-18.5 -51z" />
<glyph unicode="&#xc6;" horiz-adv-x="2762" d="M32 64q9 180 124 313q90 104 234.5 141t271.5 -16q141 -60 211 -189.5t32 -277.5q-34 -133 -156 -204.5t-253 -29.5q-79 24 -133.5 94t-53.5 152h168q-1 -28 19 -55.5t47 -36.5q68 -22 122 16t74 105q26 85 -16.5 160t-128.5 110q-84 30 -165 8t-142 -88 q-82 -89 -87 -207t64 -215q61 -89 153.5 -132.5t200.5 -35.5q256 19 386 287l675 1331l-231 2q-84 0 -142.5 -71.5t-35.5 -155.5q15 -58 56.5 -95.5t96.5 -41.5l-67 -123q-81 9 -144 70t-86 141q-31 106 4.5 205.5t121 160t192.5 60.5h1218v-156h-596v-491h590v-158h-590 l-2 -479h598v-160h-766v483h-446l-305 -606q-80 -165 -213 -265.5t-307 -109.5q-149 -6 -281 56t-219 182q-102 142 -93 322zM1530 645h366v680h-26z" />
<glyph unicode="&#xc7;" horiz-adv-x="1472" d="M98 717q-2 188 82 357.5t238 271.5q108 72 252 101t291.5 2t248.5 -112q95 -79 136 -197.5t8 -232.5q-44 -139 -163 -219.5t-267 -60.5q-109 14 -186.5 81.5t-94.5 165.5q-18 95 26.5 180t133.5 120q52 19 98 16v-152q-54 0 -81 -42t-19 -97q7 -48 45 -79t96 -40 q90 -15 163 34.5t95 135.5q20 72 -1.5 140t-78.5 120q-77 70 -194 89.5t-229.5 -8t-194.5 -87.5q-114 -82 -174 -212.5t-60 -274.5q0 -89 23 -174.5t70 -160.5t112.5 -132t157.5 -90t198 -33q126 0 244.5 56t198.5 153l121 -100q-101 -121 -243 -191t-304 -74l-49 -77 q60 -2 115.5 -48.5t52.5 -103.5q-6 -86 -69.5 -130t-145.5 -44q-75 0 -187 49l33 88q74 -39 139 -39q36 -1 61 12.5t32 33.5t2.5 40t-28.5 35t-61 16q-37 0 -59 -12l-53 39l94 147q-119 14 -221 62.5t-175.5 120t-125.5 162t-77.5 191t-25.5 204.5z" />
<glyph unicode="&#xc8;" horiz-adv-x="1234" d="M-5 1056q-14 66 4 132.5t54 121.5t103 89.5t151 34.5h823v-150h-598v-487h590v-158h-590v-485h598v-154h-768v1284l-49 2q-43 0 -78.5 -18.5t-55.5 -48t-30.5 -65t-4.5 -71.5t22 -66t50 -49.5t79 -21.5v-135q-86 0 -153 34.5t-100 89.5t-47 121zM524 1757h191l133 -235 h-152z" />
<glyph unicode="&#xc9;" horiz-adv-x="1234" d="M-5 1056q-14 66 4 132.5t54 121.5t103 89.5t151 34.5h823v-150h-598v-487h590v-158h-590v-485h598v-154h-768v1284l-49 2q-43 0 -78.5 -18.5t-55.5 -48t-30.5 -65t-4.5 -71.5t22 -66t50 -49.5t79 -21.5v-135q-86 0 -153 34.5t-100 89.5t-47 121zM664 1526l133 235h190 l-172 -235h-151z" />
<glyph unicode="&#xca;" horiz-adv-x="1234" d="M-5 1056q-14 66 4 132.5t54 121.5t103 89.5t151 34.5h823v-150h-598v-487h590v-158h-590v-485h598v-154h-768v1284l-49 2q-43 0 -78.5 -18.5t-55.5 -48t-30.5 -65t-4.5 -71.5t22 -66t50 -49.5t79 -21.5v-135q-86 0 -153 34.5t-100 89.5t-47 121zM444 1520l177 223h200 l178 -223h-149l-127 153h-4l-127 -153h-148z" />
<glyph unicode="&#xcb;" horiz-adv-x="1234" d="M-5 1056q-14 66 4 132.5t54 121.5t103 89.5t151 34.5h823v-150h-598v-487h590v-158h-590v-485h598v-154h-768v1284l-49 2q-43 0 -78.5 -18.5t-55.5 -48t-30.5 -65t-4.5 -71.5t22 -66t50 -49.5t79 -21.5v-135q-86 0 -153 34.5t-100 89.5t-47 121zM479 1530v160h178v-160 h-178zM821 1530v160h178v-160h-178z" />
<glyph unicode="&#xcc;" horiz-adv-x="702" d="M-18.5 1040q-15.5 91 6 182.5t103.5 155.5t198 64h223v-1440h-168v1292h-51q-43 0 -78.5 -18t-55.5 -47.5t-30.5 -65t-4.5 -71t22 -65.5t49.5 -49.5t78.5 -21.5v-135q-119 0 -198 64t-94.5 155zM178 1767h191l133 -235h-152z" />
<glyph unicode="&#xcd;" horiz-adv-x="702" d="M-18.5 1040q-15.5 91 6 182.5t103.5 155.5t198 64h223v-1440h-168v1292h-51q-43 0 -78.5 -18t-55.5 -47.5t-30.5 -65t-4.5 -71t22 -65.5t49.5 -49.5t78.5 -21.5v-135q-119 0 -198 64t-94.5 155zM340 1532l133 235h191l-172 -235h-152z" />
<glyph unicode="&#xce;" horiz-adv-x="702" d="M-18.5 1040q-15.5 91 6 182.5t103.5 155.5t198 64h223v-1440h-168v1292h-51q-43 0 -78.5 -18t-55.5 -47.5t-30.5 -65t-4.5 -71t22 -65.5t49.5 -49.5t78.5 -21.5v-135q-119 0 -198 64t-94.5 155zM96 1524l180 239h207l181 -239h-152l-131 166h-4l-129 -166h-152z" />
<glyph unicode="&#xcf;" horiz-adv-x="702" d="M-18.5 1040q-15.5 91 6 182.5t103.5 155.5t198 64h223v-1440h-168v1292h-51q-43 0 -78.5 -18t-55.5 -47.5t-30.5 -65t-4.5 -71t22 -65.5t49.5 -49.5t78.5 -21.5v-135q-119 0 -198 64t-94.5 155zM143 1532v160h179v-160h-179zM487 1532v160h181v-160h-181z" />
<glyph unicode="&#xd0;" horiz-adv-x="1646" d="M19 1038.5q-15 91.5 7.5 183.5t105.5 156t200 64l489 2q137 1 254 -38t200.5 -107t143.5 -159t89.5 -193.5t31.5 -211.5q2 -111 -25 -217t-85.5 -200t-142.5 -165t-203.5 -112t-260.5 -41h-444v580h-125v155h125v557l-43 2q-60 0 -104.5 -34t-58.5 -83.5t-8.5 -99 t45 -85.5t101.5 -38v-135q-120 0 -198.5 64t-93.5 155.5zM547 156h274q136 -2 245.5 46.5t176 131t100.5 185.5t31 214q-2 107 -38.5 205.5t-103 177t-172 125.5t-235.5 47h-278v-553h270v-155h-270v-424z" />
<glyph unicode="&#xd1;" horiz-adv-x="2117" d="M0 74q42 145 162 228.5t268 62.5q87 -11 157.5 -66.5t104.5 -138.5t17 -170q-20 -95 -96.5 -154.5t-172.5 -54.5v153q37 -2 69.5 23t39.5 61q16 73 -26 123.5t-113 63.5q-88 17 -160 -35.5t-96 -142.5q-23 -86 9 -167t107 -136q101 -71 217.5 -63t210.5 89 q133 116 133 297v1241h-51q-100 0 -146.5 -83t-10 -167.5t138.5 -87.5v-137q-120 0 -199.5 64t-95 155.5t5.5 183.5t103.5 156t199.5 64q39 0 118 -1t118 -1l743 -1192v1192h164v-1432h-215l-703 1145v-1100q0 -114 -52.5 -224t-139.5 -192q-127 -116 -307 -127t-322 86 q-113 76 -165.5 214.5t-14.5 269.5zM1055 1593q61 115 162.5 141t205.5 -46q111 -74 191 57l92 -68q-47 -106 -145.5 -133t-194.5 37q-127 81 -213 -51z" />
<glyph unicode="&#xd2;" horiz-adv-x="1658" d="M100 768q10 140 71.5 268t158 221.5t227.5 149t272 55.5q148 0 284 -60.5t234 -161.5t156 -238.5t58 -286.5q0 -120 -37 -233t-105 -204.5t-158 -161t-201.5 -107.5t-230.5 -38q-105 0 -204.5 30t-182 83.5t-150.5 128.5t-113 162.5t-66.5 188.5t-12.5 204zM266 731 q-7 -105 21.5 -201t82.5 -168.5t127 -126t158.5 -81t173.5 -27.5q107 0 207 38.5t180 109.5t128.5 185.5t48.5 254.5q0 112 -32 209t-86.5 166.5t-127 119.5t-154 74t-166.5 23q-138 0 -264 -66q-92 -12 -164 -59q0 -2 -1 -5.5t-1 -5.5q129 52 277 15q153 -41 241.5 -166.5 t61.5 -278.5q-26 -141 -149.5 -226.5t-260.5 -41.5q-89 28 -143 103t-47 163h174q-3 -42 17.5 -69t52.5 -35q63 -17 116 27.5t64 111.5q17 85 -33.5 154.5t-136.5 91.5q-89 22 -172.5 -11.5t-136 -109t-56.5 -168.5zM645 1769h191l133 -235h-152z" />
<glyph unicode="&#xd3;" horiz-adv-x="1658" d="M100 768q10 140 71.5 268t158 221.5t227.5 149t272 55.5q148 0 284 -60.5t234 -161.5t156 -238.5t58 -286.5q0 -120 -37 -233t-105 -204.5t-158 -161t-201.5 -107.5t-230.5 -38q-105 0 -204.5 30t-182 83.5t-150.5 128.5t-113 162.5t-66.5 188.5t-12.5 204zM266 731 q-7 -105 21.5 -201t82.5 -168.5t127 -126t158.5 -81t173.5 -27.5q107 0 207 38.5t180 109.5t128.5 185.5t48.5 254.5q0 112 -32 209t-86.5 166.5t-127 119.5t-154 74t-166.5 23q-138 0 -264 -66q-92 -12 -164 -59q0 -2 -1 -5.5t-1 -5.5q129 52 277 15q153 -41 241.5 -166.5 t61.5 -278.5q-26 -141 -149.5 -226.5t-260.5 -41.5q-89 28 -143 103t-47 163h174q-3 -42 17.5 -69t52.5 -35q63 -17 116 27.5t64 111.5q17 85 -33.5 154.5t-136.5 91.5q-89 22 -172.5 -11.5t-136 -109t-56.5 -168.5zM760 1538l133 236h190l-172 -236h-151z" />
<glyph unicode="&#xd4;" horiz-adv-x="1658" d="M100 768q10 140 71.5 268t158 221.5t227.5 149t272 55.5q148 0 284 -60.5t234 -161.5t156 -238.5t58 -286.5q0 -120 -37 -233t-105 -204.5t-158 -161t-201.5 -107.5t-230.5 -38q-105 0 -204.5 30t-182 83.5t-150.5 128.5t-113 162.5t-66.5 188.5t-12.5 204zM266 731 q-7 -105 21.5 -201t82.5 -168.5t127 -126t158.5 -81t173.5 -27.5q107 0 207 38.5t180 109.5t128.5 185.5t48.5 254.5q0 112 -32 209t-86.5 166.5t-127 119.5t-154 74t-166.5 23q-138 0 -264 -66q-92 -12 -164 -59q0 -2 -1 -5.5t-1 -5.5q129 52 277 15q153 -41 241.5 -166.5 t61.5 -278.5q-26 -141 -149.5 -226.5t-260.5 -41.5q-89 28 -143 103t-47 163h174q-3 -42 17.5 -69t52.5 -35q63 -17 116 27.5t64 111.5q17 85 -33.5 154.5t-136.5 91.5q-89 22 -172.5 -11.5t-136 -109t-56.5 -168.5zM575 1524l181 239h207l180 -239h-152l-131 166h-4 l-129 -166h-152z" />
<glyph unicode="&#xd5;" horiz-adv-x="1658" d="M100 768q10 140 71.5 268t158 221.5t227.5 149t272 55.5q148 0 284 -60.5t234 -161.5t156 -238.5t58 -286.5q0 -120 -37 -233t-105 -204.5t-158 -161t-201.5 -107.5t-230.5 -38q-105 0 -204.5 30t-182 83.5t-150.5 128.5t-113 162.5t-66.5 188.5t-12.5 204zM266 731 q-7 -105 21.5 -201t82.5 -168.5t127 -126t158.5 -81t173.5 -27.5q107 0 207 38.5t180 109.5t128.5 185.5t48.5 254.5q0 112 -32 209t-86.5 166.5t-127 119.5t-154 74t-166.5 23q-138 0 -264 -66q-92 -12 -164 -59q0 -2 -1 -5.5t-1 -5.5q129 52 277 15q153 -41 241.5 -166.5 t61.5 -278.5q-26 -141 -149.5 -226.5t-260.5 -41.5q-89 28 -143 103t-47 163h174q-3 -42 17.5 -69t52.5 -35q63 -17 116 27.5t64 111.5q17 85 -33.5 154.5t-136.5 91.5q-89 22 -172.5 -11.5t-136 -109t-56.5 -168.5zM535 1591q61 115 162.5 141t205.5 -46q111 -74 191 57 l92 -68q-47 -106 -145.5 -133t-194.5 37q-127 81 -213 -51z" />
<glyph unicode="&#xd6;" horiz-adv-x="1658" d="M100 768q10 140 71.5 268t158 221.5t227.5 149t272 55.5q148 0 284 -60.5t234 -161.5t156 -238.5t58 -286.5q0 -120 -37 -233t-105 -204.5t-158 -161t-201.5 -107.5t-230.5 -38q-105 0 -204.5 30t-182 83.5t-150.5 128.5t-113 162.5t-66.5 188.5t-12.5 204zM266 731 q-7 -105 21.5 -201t82.5 -168.5t127 -126t158.5 -81t173.5 -27.5q107 0 207 38.5t180 109.5t128.5 185.5t48.5 254.5q0 112 -32 209t-86.5 166.5t-127 119.5t-154 74t-166.5 23q-138 0 -264 -66q-92 -12 -164 -59q0 -2 -1 -5.5t-1 -5.5q129 52 277 15q153 -41 241.5 -166.5 t61.5 -278.5q-26 -141 -149.5 -226.5t-260.5 -41.5q-89 28 -143 103t-47 163h174q-3 -42 17.5 -69t52.5 -35q63 -17 116 27.5t64 111.5q17 85 -33.5 154.5t-136.5 91.5q-89 22 -172.5 -11.5t-136 -109t-56.5 -168.5zM584 1534v172h188v-172h-188zM946 1534v172h187v-172 h-187z" />
<glyph unicode="&#xd7;" horiz-adv-x="1083" d="M123 889l113 115l305 -306l295 295l112 -110l-297 -295l293 -293l-115 -113l-290 291l-299 -299l-113 113l299 297z" />
<glyph unicode="&#xd8;" horiz-adv-x="1658" d="M98 715q0 149 58 286.5t156 238.5t233.5 161.5t283.5 60.5q172 0 326 -80l94 156h158l-137 -229q135 -106 213 -262.5t78 -331.5q0 -120 -37 -233t-105 -204.5t-158 -161t-201.5 -107.5t-230.5 -38q-166 0 -317 74l-88 -147h-160l131 219q-138 105 -217.5 261.5 t-79.5 336.5zM266 731q-7 -105 21.5 -201t82.5 -168.5t127 -126t158.5 -81t173.5 -27.5q107 0 207 38.5t180 109.5t128.5 185.5t48.5 254.5q0 148 -54 265t-147 196l-156 -263q-5 39 -24.5 82t-44.5 66q71 118 112 188q-125 58 -252 58q-138 0 -264 -66q-92 -12 -164 -59 q0 -2 -1 -5.5t-1 -5.5q129 52 277 15q153 -41 241.5 -166.5t61.5 -278.5q-26 -141 -149.5 -226.5t-260.5 -41.5q-89 28 -143 103t-47 163h174q-3 -42 17.5 -69t52.5 -35q63 -17 116 27.5t64 111.5q17 85 -33.5 154.5t-136.5 91.5q-89 22 -172.5 -11.5t-136 -109 t-56.5 -168.5z" />
<glyph unicode="&#xd9;" horiz-adv-x="1320" d="M176 414v1020h170v-1020q0 -69 26.5 -125.5t70 -91t100 -53.5t114 -19.5t114.5 17t101 51.5q66 52 91 131.5t4 162.5q-21 82 -90 126t-144 36q-64 -8 -101 -49t-28 -102q5 -35 31 -58.5t67 -23.5v-152q-90 -4 -160 53t-87 148q-24 125 53.5 226t204.5 120 q101 13 189.5 -27.5t146.5 -121.5l8 8q-27 70 -80 123v641h170v-1020q0 -107 -41.5 -193.5t-110 -140t-155.5 -82.5t-178.5 -29t-178.5 29t-155.5 82.5t-110 140t-41.5 193.5zM438 1757h191l133 -235h-152z" />
<glyph unicode="&#xda;" horiz-adv-x="1320" d="M176 414v1020h170v-1020q0 -69 26.5 -125.5t70 -91t100 -53.5t114 -19.5t114.5 17t101 51.5q66 52 91 131.5t4 162.5q-21 82 -90 126t-144 36q-64 -8 -101 -49t-28 -102q5 -35 31 -58.5t67 -23.5v-152q-90 -4 -160 53t-87 148q-24 125 53.5 226t204.5 120 q101 13 189.5 -27.5t146.5 -121.5l8 8q-27 70 -80 123v641h170v-1020q0 -107 -41.5 -193.5t-110 -140t-155.5 -82.5t-178.5 -29t-178.5 29t-155.5 82.5t-110 140t-41.5 193.5zM571 1520l134 235h190l-172 -235h-152z" />
<glyph unicode="&#xdb;" horiz-adv-x="1320" d="M176 414v1020h170v-1020q0 -69 26.5 -125.5t70 -91t100 -53.5t114 -19.5t114.5 17t101 51.5q66 52 91 131.5t4 162.5q-21 82 -90 126t-144 36q-64 -8 -101 -49t-28 -102q5 -35 31 -58.5t67 -23.5v-152q-90 -4 -160 53t-87 148q-24 125 53.5 226t204.5 120 q101 13 189.5 -27.5t146.5 -121.5l8 8q-27 70 -80 123v641h170v-1020q0 -107 -41.5 -193.5t-110 -140t-155.5 -82.5t-178.5 -29t-178.5 29t-155.5 82.5t-110 140t-41.5 193.5zM379 1520l180 239h207l180 -239h-151l-131 166h-5l-129 -166h-151z" />
<glyph unicode="&#xdc;" horiz-adv-x="1320" d="M176 414v1020h170v-1020q0 -69 26.5 -125.5t70 -91t100 -53.5t114 -19.5t114.5 17t101 51.5q66 52 91 131.5t4 162.5q-21 82 -90 126t-144 36q-64 -8 -101 -49t-28 -102q5 -35 31 -58.5t67 -23.5v-152q-90 -4 -160 53t-87 148q-24 125 53.5 226t204.5 120 q101 13 189.5 -27.5t146.5 -121.5l8 8q-27 70 -80 123v641h170v-1020q0 -107 -41.5 -193.5t-110 -140t-155.5 -82.5t-178.5 -29t-178.5 29t-155.5 82.5t-110 140t-41.5 193.5zM416 1530v160h182v-160h-182zM766 1530v160h180v-160h-180z" />
<glyph unicode="&#xdd;" horiz-adv-x="1622" d="M-18 1104q-12 143 80 249t235 130q135 20 253 -35t183 -174l291 -531q62 113 189.5 346.5t189.5 346.5h194l-491 -873v-540q-1 -103 -54.5 -208.5t-133.5 -181.5q-115 -106 -273 -125q-197 -25 -356 82q-113 75 -165.5 214.5t-14.5 269.5q42 145 162 229t268 64 q135 -19 219.5 -131t58.5 -246q-12 -63 -56 -115.5t-104 -77.5q-49 -19 -108 -16v153q37 0 69 24.5t39 59.5q15 66 -27 121.5t-110 67.5q-90 15 -162 -37t-94 -141q-23 -88 8.5 -169t106.5 -134q101 -71 217.5 -63t210.5 89q131 115 131 266l2 545l-348 623 q-40 74 -112.5 114t-157.5 27q-80 -11 -132.5 -70t-46.5 -139q5 -62 49.5 -106.5t104.5 -34.5q27 3 46.5 21.5t23.5 50.5h161q-1 -82 -57 -144.5t-141 -81.5q-128 -28 -232.5 61t-115.5 220zM930 1524l133 235h190l-172 -235h-151z" />
<glyph unicode="&#xde;" d="M197 0v1434h168v-234h260q116 0 210.5 -39.5t152.5 -105t89 -146.5t31 -168q0 -88 -31 -167.5t-89.5 -142.5t-151.5 -100.5t-209 -37.5h-262v-293h-168zM365 449h260q77 0 138.5 25.5t99 67.5t57.5 93t20 106q0 56 -20 110.5t-57.5 100.5t-99.5 74.5t-138 28.5h-260v-606 z" />
<glyph unicode="&#xdf;" horiz-adv-x="1169" d="M152 0v1075q0 114 59.5 201.5t153.5 131.5t204 44q170 0 290 -100.5t120 -268.5q0 -87 -43.5 -168t-126.5 -133q120 -45 191 -148t69 -222q2 -90 -26 -165t-77 -125t-115 -83.5t-140 -45.5t-152.5 -5t-152.5 32v156q78 -45 176 -45q77 0 139 24t100.5 63.5t59 90t20 103 t-21 103t-59 90t-100.5 63.5t-138 24h-121v158h121q113 0 178 72.5t59 164.5q-7 96 -80.5 152.5t-171.5 56.5q-97 0 -171 -62t-74 -159v-917v-158h-170z" />
<glyph unicode="&#xe0;" d="M80 522q0 145 71.5 268.5t194.5 197t268 77.5q239 3 422 -86v-977h-143l-8 61q51 57 65 146l-12 4q-38 -100 -137.5 -162.5t-210.5 -60.5q-142 2 -259.5 73.5t-184 192.5t-66.5 266zM240 522q0 -159 98.5 -274t251.5 -119q90 -2 160.5 60t70.5 149q0 141 -112 184 q-66 28 -132.5 -6.5t-66.5 -109.5h-139q-3 115 80 198q55 55 142.5 68.5t160.5 -15.5q78 -31 120 -104l3 336q-110 47 -261 33q-158 -12 -267 -122.5t-109 -277.5zM410 1427h190l133 -235h-151z" />
<glyph unicode="&#xe1;" d="M80 522q0 145 71.5 268.5t194.5 197t268 77.5q239 3 422 -86v-977h-143l-8 61q51 57 65 146l-12 4q-38 -100 -137.5 -162.5t-210.5 -60.5q-142 2 -259.5 73.5t-184 192.5t-66.5 266zM240 522q0 -159 98.5 -274t251.5 -119q90 -2 160.5 60t70.5 149q0 141 -112 184 q-66 28 -132.5 -6.5t-66.5 -109.5h-139q-3 115 80 198q55 55 142.5 68.5t160.5 -15.5q78 -31 120 -104l3 336q-110 47 -261 33q-158 -12 -267 -122.5t-109 -277.5zM543 1188l133 235h190l-172 -235h-151z" />
<glyph unicode="&#xe2;" d="M80 522q0 145 71.5 268.5t194.5 197t268 77.5q239 3 422 -86v-977h-143l-8 61q51 57 65 146l-12 4q-38 -100 -137.5 -162.5t-210.5 -60.5q-142 2 -259.5 73.5t-184 192.5t-66.5 266zM240 522q0 -159 98.5 -274t251.5 -119q90 -2 160.5 60t70.5 149q0 141 -112 184 q-66 28 -132.5 -6.5t-66.5 -109.5h-139q-3 115 80 198q55 55 142.5 68.5t160.5 -15.5q78 -31 120 -104l3 336q-110 47 -261 33q-158 -12 -267 -122.5t-109 -277.5zM354 1178l181 239h206l181 -239h-152l-131 165h-4l-129 -165h-152z" />
<glyph unicode="&#xe3;" d="M80 522q0 145 71.5 268.5t194.5 197t268 77.5q239 3 422 -86v-977h-143l-8 61q51 57 65 146l-12 4q-38 -100 -137.5 -162.5t-210.5 -60.5q-142 2 -259.5 73.5t-184 192.5t-66.5 266zM240 522q0 -159 98.5 -274t251.5 -119q90 -2 160.5 60t70.5 149q0 141 -112 184 q-66 28 -132.5 -6.5t-66.5 -109.5h-139q-3 115 80 198q55 55 142.5 68.5t160.5 -15.5q78 -31 120 -104l3 336q-110 47 -261 33q-158 -12 -267 -122.5t-109 -277.5zM344 1260q57 115 151.5 140.5t192.5 -46.5q102 -74 178 57l86 -68q-44 -106 -136 -133t-181 37 q-119 80 -201 -51z" />
<glyph unicode="&#xe4;" d="M80 522q0 145 71.5 268.5t194.5 197t268 77.5q239 3 422 -86v-977h-143l-8 61q51 57 65 146l-12 4q-38 -100 -137.5 -162.5t-210.5 -60.5q-142 2 -259.5 73.5t-184 192.5t-66.5 266zM240 522q0 -159 98.5 -274t251.5 -119q90 -2 160.5 60t70.5 149q0 141 -112 184 q-66 28 -132.5 -6.5t-66.5 -109.5h-139q-3 115 80 198q55 55 142.5 68.5t160.5 -15.5q78 -31 120 -104l3 336q-110 47 -261 33q-158 -12 -267 -122.5t-109 -277.5zM373 1249v170h182v-170h-182zM725 1249v170h182v-170h-182z" />
<glyph unicode="&#xe5;" d="M80 522q0 145 71.5 268.5t194.5 197t268 77.5q239 3 422 -86v-977h-143l-8 61q51 57 65 146l-12 4q-38 -100 -137.5 -162.5t-210.5 -60.5q-142 2 -259.5 73.5t-184 192.5t-66.5 266zM240 522q0 -159 98.5 -274t251.5 -119q90 -2 160.5 60t70.5 149q0 141 -112 184 q-66 28 -132.5 -6.5t-66.5 -109.5h-139q-3 115 80 198q55 55 142.5 68.5t160.5 -15.5q78 -31 120 -104l3 336q-110 47 -261 33q-158 -12 -267 -122.5t-109 -277.5zM475 1294q0 70 50 112t122 42q71 0 121.5 -42.5t50.5 -111.5q0 -68 -50.5 -109.5t-121.5 -41.5 q-72 0 -122 41.5t-50 109.5zM580 1294q0 -29 18 -47t49 -18q30 0 49 18t19 47q0 32 -19 51t-49 19q-31 0 -49 -19t-18 -51z" />
<glyph unicode="&#xe6;" horiz-adv-x="1941" d="M87 337q4 133 108 229q134 123 370 120q123 0 260 -72q2 2 2 4v17q0 82 -33 144t-86 96t-120.5 48.5t-135.5 7t-132 -34.5t-109 -71l-82 95q65 65 159.5 102.5t193 40t189.5 -22t160.5 -86.5t94.5 -151q62 119 170.5 188t249.5 70q162 1 286 -81.5t181.5 -222.5 t33.5 -304h-872q10 -140 109.5 -237t263.5 -97q88 0 168 37t131 106l129 -78q-153 -207 -428 -207q-254 0 -402 175q-78 -83 -186.5 -128t-212.5 -42q-237 -2 -365 125q-98 97 -95 230zM240 300q18 -89 115 -138q79 -39 192 -39q86 0 174 33.5t151 109.5q-50 109 -53 228 q-102 59 -252 59q-184 -1 -275 -95q-69 -71 -52 -158zM973 588h729q-12 144 -109 236.5t-245 95.5q-81 -1 -149 -28.5t-113.5 -74.5t-74 -105t-38.5 -124z" />
<glyph unicode="&#xe7;" horiz-adv-x="1056" d="M82 520q1 103 36 198.5t99.5 173t167 124t227.5 47.5q217 0 363 -143l-88 -109q-113 107 -277 107q-96 1 -179 -48t-135.5 -142.5t-53.5 -211.5q0 -73 23.5 -141t68 -124t117 -90t161.5 -34q77 0 151 30.5t132 84.5l90 -109q-130 -127 -317 -145l-50 -82q56 -2 107.5 -46 t48.5 -98q-4 -80 -63.5 -120.5t-137.5 -40.5q-72 0 -174 45l31 82q66 -35 131 -35q55 -1 79.5 30.5t3 63.5t-78.5 33q-33 0 -55 -10l-49 36l88 142q-113 11 -203.5 59.5t-147 122.5t-86.5 163.5t-30 186.5z" />
<glyph unicode="&#xe8;" horiz-adv-x="1206" d="M84 522q0 102 34.5 198t98.5 173t166.5 124t226.5 48q162 1 286.5 -81.5t182 -222.5t33.5 -304h-872q10 -140 109 -237t263 -97q88 0 168 37t131 106l129 -78q-152 -206 -428 -206q-127 0 -230.5 46.5t-167 123.5t-97.5 172.5t-33 197.5zM242 592h725 q-12 144 -109.5 236.5t-245.5 95.5q-81 -1 -148 -28.5t-111.5 -75t-72.5 -105t-38 -123.5zM408 1432h190l133 -236h-151z" />
<glyph unicode="&#xe9;" horiz-adv-x="1206" d="M84 522q0 102 34.5 198t98.5 173t166.5 124t226.5 48q162 1 286.5 -81.5t182 -222.5t33.5 -304h-872q10 -140 109 -237t263 -97q88 0 168 37t131 106l129 -78q-152 -206 -428 -206q-127 0 -230.5 46.5t-167 123.5t-97.5 172.5t-33 197.5zM242 592h725 q-12 144 -109.5 236.5t-245.5 95.5q-81 -1 -148 -28.5t-111.5 -75t-72.5 -105t-38 -123.5zM516 1194l133 236h191l-172 -236h-152z" />
<glyph unicode="&#xea;" horiz-adv-x="1206" d="M84 522q0 102 34.5 198t98.5 173t166.5 124t226.5 48q162 1 286.5 -81.5t182 -222.5t33.5 -304h-872q10 -140 109 -237t263 -97q88 0 168 37t131 106l129 -78q-152 -206 -428 -206q-127 0 -230.5 46.5t-167 123.5t-97.5 172.5t-33 197.5zM242 592h725 q-12 144 -109.5 236.5t-245.5 95.5q-81 -1 -148 -28.5t-111.5 -75t-72.5 -105t-38 -123.5zM334 1178l180 239h207l180 -239h-151l-132 165h-4l-129 -165h-151z" />
<glyph unicode="&#xeb;" horiz-adv-x="1206" d="M84 522q0 102 34.5 198t98.5 173t166.5 124t226.5 48q162 1 286.5 -81.5t182 -222.5t33.5 -304h-872q10 -140 109 -237t263 -97q88 0 168 37t131 106l129 -78q-152 -206 -428 -206q-127 0 -230.5 46.5t-167 123.5t-97.5 172.5t-33 197.5zM242 592h725 q-12 144 -109.5 236.5t-245.5 95.5q-81 -1 -148 -28.5t-111.5 -75t-72.5 -105t-38 -123.5zM336 1235v166h182v-166h-182zM688 1235v166h182v-166h-182z" />
<glyph unicode="&#xec;" horiz-adv-x="471" d="M6 1436h191l133 -236h-152zM156 0v1049h161v-1049h-161z" />
<glyph unicode="&#xed;" horiz-adv-x="471" d="M135 1196l133 236h191l-172 -236h-152zM156 0v1049h161v-1049h-161z" />
<glyph unicode="&#xee;" horiz-adv-x="471" d="M-53 1192l180 240h207l180 -240h-152l-131 166h-4l-129 -166h-151zM156 0v1049h161v-1049h-161z" />
<glyph unicode="&#xef;" horiz-adv-x="471" d="M-18 1251v176h172v-176h-172zM156 0v1049h161v-1049h-161zM313 1251v176h172v-176h-172z" />
<glyph unicode="&#xf0;" horiz-adv-x="1234" d="M86 483q2 91 36.5 175t97.5 151.5t163 107.5t223 39q115 -2 210 -48.5t157 -135.5q-32 129 -106.5 234.5t-184.5 175.5l-264 -162l-60 84l217 131q-136 59 -311 59l15 140q260 0 452 -103l207 125l53 -86l-166 -100q318 -243 303 -783q-1 -99 -33.5 -187t-95 -158.5 t-164 -112t-229.5 -41.5q-127 0 -229.5 42.5t-165.5 113t-95 158t-30 181.5zM252 481q-2 -66 19 -126t63 -109.5t112 -79t160 -29.5t161.5 30t114 79.5t64 110t19.5 126.5q-2 64 -24.5 121.5t-65 104.5t-112.5 74.5t-157 27.5t-155.5 -28t-110.5 -75t-64 -105t-24 -122z" />
<glyph unicode="&#xf1;" horiz-adv-x="1241" d="M154 0v979q125 44 218 66t195 22q111 0 207 -32t168.5 -91t114 -150.5t41.5 -203.5v-666q0 -90 43.5 -131.5t140.5 -34.5v-141q-162 -17 -253 61.5t-91 245.5v666q0 159 -105.5 246.5t-265.5 87.5q-133 0 -252 -45v-879h-161zM295 1276q58 114 153 139.5t193 -45.5 q104 -73 180 55l86 -65q-44 -105 -136.5 -131.5t-182.5 35.5q-120 81 -201 -50z" />
<glyph unicode="&#xf2;" horiz-adv-x="1218" d="M82 520q0 -151 66 -274.5t187.5 -196t274.5 -72.5q114 0 215 43q145 62 229.5 196t84.5 304q0 151 -66.5 274.5t-188.5 196t-274 72.5q-153 0 -274.5 -72.5t-187.5 -196t-66 -274.5zM242 520q0 98 31 176t83 126.5t117 74t137 25.5q124 0 222.5 -71.5t132.5 -205.5 q14 -78 12 -104q31 -78 16 -158h-14q-12 93 -64 162t-139 102q-73 29 -160.5 15.5t-144.5 -68.5q-81 -81 -78 -199h137q1 50 34 84.5t77 41t90 -8.5q56 -21 84.5 -69.5t28.5 -114.5q0 -99 -69 -154t-165 -55q-72 0 -137 25.5t-117 73.5t-83 126t-31 176zM395 1421h191 l133 -235h-152z" />
<glyph unicode="&#xf3;" horiz-adv-x="1218" d="M82 520q0 151 66 274.5t187.5 196t274.5 72.5q152 0 274 -72.5t188.5 -196t66.5 -274.5q0 -170 -84.5 -304t-229.5 -196q-101 -43 -215 -43q-153 0 -274.5 72.5t-187.5 196t-66 274.5zM242 520q0 -98 31 -176t83 -126t117 -73.5t137 -25.5q96 0 165 55t69 154 q0 66 -28.5 114.5t-84.5 69.5q-46 15 -90 8.5t-77 -41t-34 -84.5h-137q-3 118 78 199q57 55 144.5 68.5t160.5 -15.5q87 -33 139 -102t64 -162h14q15 80 -16 158q2 26 -12 104q-34 134 -132.5 205.5t-222.5 71.5q-72 0 -137 -25.5t-117 -74t-83 -126.5t-31 -176zM518 1188 l133 235h191l-172 -235h-152z" />
<glyph unicode="&#xf4;" horiz-adv-x="1218" d="M82 520q0 -151 66 -274.5t187.5 -196t274.5 -72.5q114 0 215 43q145 62 229.5 196t84.5 304q0 151 -66.5 274.5t-188.5 196t-274 72.5q-153 0 -274.5 -72.5t-187.5 -196t-66 -274.5zM242 520q0 98 31 176t83 126.5t117 74t137 25.5q124 0 222.5 -71.5t132.5 -205.5 q14 -78 12 -104q31 -78 16 -158h-14q-12 93 -64 162t-139 102q-73 29 -160.5 15.5t-144.5 -68.5q-81 -81 -78 -199h137q1 50 34 84.5t77 41t90 -8.5q56 -21 84.5 -69.5t28.5 -114.5q0 -99 -69 -154t-165 -55q-72 0 -137 25.5t-117 73.5t-83 126t-31 176zM332 1180l180 239 h207l180 -239h-151l-132 166h-4l-129 -166h-151z" />
<glyph unicode="&#xf5;" horiz-adv-x="1218" d="M82 520q0 151 66 274.5t187.5 196t274.5 72.5q152 0 274 -72.5t188.5 -196t66.5 -274.5q0 -170 -84.5 -304t-229.5 -196q-101 -43 -215 -43q-153 0 -274.5 72.5t-187.5 196t-66 274.5zM242 520q0 -98 31 -176t83 -126t117 -73.5t137 -25.5q96 0 165 55t69 154 q0 66 -28.5 114.5t-84.5 69.5q-46 15 -90 8.5t-77 -41t-34 -84.5h-137q-3 118 78 199q57 55 144.5 68.5t160.5 -15.5q87 -33 139 -102t64 -162h14q15 80 -16 158q2 26 -12 104q-34 134 -132.5 205.5t-222.5 71.5q-72 0 -137 -25.5t-117 -74t-83 -126.5t-31 -176zM301 1262 q58 109 152.5 133t191.5 -45q102 -69 178 55l84 -64q-42 -102 -133.5 -127.5t-181.5 35.5q-119 79 -199 -49z" />
<glyph unicode="&#xf6;" horiz-adv-x="1218" d="M82 520q0 -151 66 -274.5t187.5 -196t274.5 -72.5q114 0 215 43q145 62 229.5 196t84.5 304q0 151 -66.5 274.5t-188.5 196t-274 72.5q-153 0 -274.5 -72.5t-187.5 -196t-66 -274.5zM242 520q0 98 31 176t83 126.5t117 74t137 25.5q124 0 222.5 -71.5t132.5 -205.5 q14 -78 12 -104q31 -78 16 -158h-14q-12 93 -64 162t-139 102q-73 29 -160.5 15.5t-144.5 -68.5q-81 -81 -78 -199h137q1 50 34 84.5t77 41t90 -8.5q56 -21 84.5 -69.5t28.5 -114.5q0 -99 -69 -154t-165 -55q-72 0 -137 25.5t-117 73.5t-83 126t-31 176zM348 1241v170h187 v-170h-187zM707 1241v170h186v-170h-186z" />
<glyph unicode="&#xf7;" horiz-adv-x="1239" d="M133 600v160h967v-160h-967zM512 186v187h186v-187h-186zM512 987v187h184v-187h-184z" />
<glyph unicode="&#xf8;" horiz-adv-x="1218" d="M82 518q0 230 148 385.5t378 155.5q129 0 234 -51l84 135h137l-123 -197q93 -74 145 -185.5t52 -242.5q0 -151 -66 -274.5t-188 -196t-275 -72.5q-118 0 -235 52l-80 -129h-139l118 192q-90 74 -140 186t-50 242zM240 520q0 -98 31 -176t83 -126t117 -73.5t137 -25.5 q96 0 165 55t69 154q0 66 -28.5 114.5t-84.5 69.5q-46 15 -90 8.5t-77 -41t-34 -84.5h-137q-3 118 78 199q57 55 144.5 68.5t160.5 -15.5q87 -33 139 -102t64 -162h14q15 80 -16 158q2 26 -12 104q-34 134 -132.5 205.5t-222.5 71.5q-72 0 -137 -25.5t-117 -74t-83 -126.5 t-31 -176z" />
<glyph unicode="&#xf9;" horiz-adv-x="1239" d="M-29 1292v142q162 17 246 -57t84 -242q0 -107 -1 -342t-1 -342q0 -159 105.5 -246.5t265.5 -87.5q133 0 252 45v878h161v-979q-125 -44 -218 -66t-195 -22q-148 0 -267 54.5t-191.5 164.5t-72.5 259v684q0 91 -36 127.5t-132 29.5zM430 1440h191l133 -236h-152z" />
<glyph unicode="&#xfa;" horiz-adv-x="1239" d="M-29 1286v141q162 17 246 -57t84 -242q0 -107 -1 -338.5t-1 -338.5q0 -159 105.5 -246.5t265.5 -87.5q133 0 252 45v878h161v-979q-125 -44 -218 -66t-195 -22q-148 0 -267 54.5t-191.5 164.5t-72.5 259v677q0 91 -36 128t-132 30zM518 1192h152l172 235h-191z" />
<glyph unicode="&#xfb;" horiz-adv-x="1239" d="M-29 1286v141q162 17 246 -57t84 -242q0 -107 -1 -338.5t-1 -338.5q0 -159 105.5 -246.5t265.5 -87.5q133 0 252 45v878h161v-979q-125 -44 -218 -66t-195 -22q-148 0 -267 54.5t-191.5 164.5t-72.5 259v677q0 91 -36 128t-132 30zM412 1214l180 240h207l180 -240h-152 l-131 166h-4l-129 -166h-151z" />
<glyph unicode="&#xfc;" horiz-adv-x="1239" d="M-29 1286v141q328 35 328 -299v-677q0 -159 105.5 -246.5t265.5 -87.5q133 0 252 45v878h161v-979q-125 -44 -218 -66t-195 -22q-148 0 -267 54.5t-191.5 164.5t-72.5 259v677q0 91 -36 128t-132 30zM430 1253v170h178v-170h-178zM772 1253v170h178v-170h-178z" />
<glyph unicode="&#xfd;" horiz-adv-x="1011" d="M4 1038h172l330 -852l325 852h173l-482 -1243q-78 -209 -350 -184v133q87 -10 131.5 17.5t67.5 84.5l57 150zM403 1192l134 235h190l-172 -235h-152z" />
<glyph unicode="&#xfe;" horiz-adv-x="1181" d="M156 -395v1829h159v-426q111 57 242 57q129 0 233.5 -46t169.5 -123t100 -172.5t36 -199.5q1 -83 -20 -162.5t-65 -150t-107 -123.5t-152.5 -84t-194.5 -31q-129 0 -242 58v-426h-159zM315 162q113 -45 242 -45q91 0 166 35t121.5 92.5t71.5 130t24 149.5 q-1 103 -44 192.5t-132 148.5t-207 59q-124 0 -242 -47v-715z" />
<glyph unicode="&#xff;" horiz-adv-x="1011" d="M4 1038h172l330 -852l325 852h173l-482 -1243q-78 -209 -350 -184v133q87 -10 131.5 17.5t67.5 84.5l57 150zM246 1257v170h186v-170h-186zM604 1257v170h187v-170h-187z" />
<glyph unicode="&#x152;" horiz-adv-x="2000" d="M98 768q15 200 129 367t289 254q125 62 295 77.5t307 -32.5h764v-150h-596v-487h590v-158h-590v-485h596v-154h-766q-113 -38 -246 -35.5t-243 35.5q-198 59 -339 216t-179 362q-19 113 -11 190zM268 731q-3 -69 8 -129q27 -180 136.5 -297.5t263.5 -157.5 q92 -29 221.5 -24.5t218.5 49.5v520v572q-124 56 -282.5 46.5t-272.5 -69.5q-92 -12 -164 -59q0 -9 -2 -11q137 51 277 13q154 -39 243 -164t60 -279q-26 -141 -149 -226.5t-259 -41.5q-90 28 -144.5 103t-45.5 163h174q-4 -42 15.5 -69t51.5 -35q64 -16 117 27t66 110 q15 87 -35 156.5t-137 91.5q-135 33 -245 -56t-116 -233z" />
<glyph unicode="&#x153;" horiz-adv-x="2101" d="M82 520q0 151 66 275t187.5 197t274.5 73q145 0 264.5 -74t184.5 -203q66 126 185 199t261 74q154 0 279 -84q263 -169 233 -524h-882v-2q10 -64 38.5 -121.5t73.5 -103.5t112 -73.5t146 -27.5q90 0 170 37t131 106l129 -78q-153 -208 -430 -208q-306 0 -448 247 q-65 -118 -187 -185t-260 -67q-153 0 -274.5 72.5t-187.5 196t-66 274.5zM242 520q0 -98 31 -176t83 -125.5t117 -72.5t137 -25q96 0 165 54t69 153q0 66 -28.5 114.5t-84.5 71.5q-68 26 -134 -8.5t-67 -110.5h-137q-3 118 78 199q57 55 144 68.5t159 -15.5q87 -33 140 -104 t65 -164h14q5 126 -10 213t-70 172q-51 77 -131 117.5t-172 40.5q-72 0 -137 -25.5t-117 -74t-83 -126.5t-31 -176zM1137 588h725q-12 144 -109.5 235.5t-245.5 94.5q-81 0 -148 -27.5t-111.5 -75t-72.5 -105t-38 -122.5z" />
<glyph unicode="&#x178;" horiz-adv-x="1669" d="M31 1108q11 -131 115.5 -220t232.5 -61q85 19 141.5 81.5t57.5 144.5h-162q-4 -32 -23.5 -50.5t-46.5 -21.5q-60 -10 -104 34.5t-49 106.5q-6 80 46 139t132 70q85 13 157.5 -27t112.5 -114l348 -623l-2 -544q0 -152 -131 -267q-94 -81 -210.5 -89t-217.5 63 q-75 53 -106.5 134t-8.5 169q22 89 94 141t162 37q68 -12 110.5 -67t27.5 -121q-7 -35 -39.5 -59.5t-69.5 -24.5v-154q60 -3 109 16q60 25 103.5 77.5t55.5 115.5q26 134 -58.5 246t-219.5 131q-148 20 -268 -64t-162 -229q-38 -130 14.5 -269.5t165.5 -214.5 q158 -106 356 -81q158 19 273 125q80 76 133.5 181t54.5 208v540l492 873h-195q-62 -113 -190 -346t-189 -346l-291 530q-65 119 -183 174t-253 35q-143 -24 -235 -130t-80 -249zM799 1587v201h184v-201h-184zM1153 1587v201h184v-201h-184z" />
<glyph unicode="&#x2c6;" horiz-adv-x="1021" d="M229 1563l181 239h206l181 -239h-152l-131 166h-4l-129 -166h-152z" />
<glyph unicode="&#x2dc;" horiz-adv-x="983" d="M166 1606q61 115 163 140.5t206 -46.5q110 -74 190 57l92 -67q-47 -106 -145.5 -133.5t-194.5 36.5q-127 81 -213 -51z" />
<glyph unicode="&#x2000;" horiz-adv-x="908" />
<glyph unicode="&#x2001;" horiz-adv-x="1817" />
<glyph unicode="&#x2002;" horiz-adv-x="908" />
<glyph unicode="&#x2003;" horiz-adv-x="1817" />
<glyph unicode="&#x2004;" horiz-adv-x="605" />
<glyph unicode="&#x2005;" horiz-adv-x="454" />
<glyph unicode="&#x2006;" horiz-adv-x="302" />
<glyph unicode="&#x2007;" horiz-adv-x="302" />
<glyph unicode="&#x2008;" horiz-adv-x="227" />
<glyph unicode="&#x2009;" horiz-adv-x="363" />
<glyph unicode="&#x200a;" horiz-adv-x="100" />
<glyph unicode="&#x2010;" horiz-adv-x="917" d="M184 557v162h553v-162h-553z" />
<glyph unicode="&#x2011;" horiz-adv-x="917" d="M184 557v162h553v-162h-553z" />
<glyph unicode="&#x2012;" horiz-adv-x="917" d="M184 557v162h553v-162h-553z" />
<glyph unicode="&#x2013;" horiz-adv-x="1406" d="M184 504v158h1043v-158h-1043z" />
<glyph unicode="&#x2014;" horiz-adv-x="1755" d="M184 504v160h1409v-160h-1409z" />
<glyph unicode="&#x2018;" horiz-adv-x="464" d="M90 1036l160 432h135l-113 -432h-182z" />
<glyph unicode="&#x2019;" horiz-adv-x="448" d="M90 1038l113 432h182l-160 -432h-135z" />
<glyph unicode="&#x201a;" horiz-adv-x="518" d="M45 -223l133 442h189l-168 -442h-154z" />
<glyph unicode="&#x201c;" horiz-adv-x="755" d="M90 1036l160 432h135l-113 -432h-182zM379 1036l160 432h135l-113 -432h-182z" />
<glyph unicode="&#x201d;" horiz-adv-x="727" d="M90 1038l113 432h178l-156 -432h-135zM381 1038l113 432h178l-156 -432h-135z" />
<glyph unicode="&#x201e;" horiz-adv-x="811" d="M45 -223l133 442h182l-167 -442h-148zM369 -223l133 442h180l-166 -442h-147z" />
<glyph unicode="&#x2022;" horiz-adv-x="815" d="M147 596q0 115 79.5 194.5t195.5 79.5q114 0 193 -79.5t79 -194.5t-79 -194.5t-193 -79.5q-116 0 -195.5 79.5t-79.5 194.5z" />
<glyph unicode="&#x2026;" horiz-adv-x="1435" d="M156 -4v223h204v-223h-204zM594 -4v223h205v-223h-205zM1047 -4v223h204v-223h-204z" />
<glyph unicode="&#x202f;" horiz-adv-x="363" />
<glyph unicode="&#x2039;" horiz-adv-x="702" d="M90 578l336 421h192l-335 -421l335 -420h-192z" />
<glyph unicode="&#x203a;" horiz-adv-x="708" d="M92 999h191l335 -421l-335 -420h-187l330 420z" />
<glyph unicode="&#x205f;" horiz-adv-x="454" />
<glyph unicode="&#x20ac;" horiz-adv-x="1343" d="M53 551l31 137h102q-2 8 -2 29q0 9 1 28.5t1 28.5h-125l29 141h119q28 113 87.5 210.5t146.5 174t209.5 120.5t265.5 44q165 0 309 -69l-68 -142q-112 56 -241 56q-203 -3 -340.5 -113t-192.5 -281h596l-29 -141h-594q-2 -18 -2 -57v-29h568l-27 -137h-520 q23 -88 68.5 -163.5t112 -134.5t159.5 -92.5t201 -33.5q140 0 274 72l76 -138q-164 -90 -350 -90q-148 0 -274 47t-214 128t-145.5 184t-81.5 221h-150z" />
<glyph unicode="&#x2122;" horiz-adv-x="1789" d="M51 1305v125h594v-125h-227v-650h-139v650h-228zM780 655v772h154l285 -503l290 503h148v-772h-141l6 553l-246 -454h-113l-245 454l4 -553h-142z" />
<glyph unicode="&#xe000;" horiz-adv-x="1044" d="M0 0v1044h1044v-1044h-1044z" />
</font>
</defs>
</svg>
